<?xml version="1.0" encoding="UTF-8" standalone="no"?>
<!-- Created with Inkscape (http://www.inkscape.org/) -->

<svg
   xmlns:dc="http://purl.org/dc/elements/1.1/"
   xmlns:cc="http://creativecommons.org/ns#"
   xmlns:rdf="http://www.w3.org/1999/02/22-rdf-syntax-ns#"
   xmlns:svg="http://www.w3.org/2000/svg"
   xmlns="http://www.w3.org/2000/svg"
   xmlns:sodipodi="http://sodipodi.sourceforge.net/DTD/sodipodi-0.dtd"
   xmlns:inkscape="http://www.inkscape.org/namespaces/inkscape"
   id="svg7384"
   height="24"
   width="24"
   version="1.1"
   inkscape:version="0.48.4 r9939"
   sodipodi:docname="lc_dbindexdesign.svg"
   inkscape:export-filename="/home/uri/Descargas/NITRUX-KDE/NITRUX-KDE/16x16/actions/view-preview.png"
   inkscape:export-xdpi="30"
   inkscape:export-ydpi="30">
  <defs
     id="defs9" />
  <sodipodi:namedview
     pagecolor="#ffffff"
     bordercolor="#666666"
     borderopacity="1"
     objecttolerance="10"
     gridtolerance="10000"
     guidetolerance="10"
     inkscape:pageopacity="0"
     inkscape:pageshadow="2"
     inkscape:window-width="1885"
     inkscape:window-height="1060"
     id="namedview7"
     showgrid="true"
     inkscape:zoom="32"
     inkscape:cx="10.455485"
     inkscape:cy="14.245519"
     inkscape:window-x="-2"
     inkscape:window-y="-3"
     inkscape:window-maximized="1"
     inkscape:current-layer="svg7384"
     inkscape:showpageshadow="false"
     borderlayer="true"
     fit-margin-top="0"
     fit-margin-left="0"
     fit-margin-right="0"
     fit-margin-bottom="0"
     inkscape:snap-bbox="true"
     inkscape:snap-global="true">
    <sodipodi:guide
       position="3,21"
       orientation="18,0"
       id="guide4064" />
    <sodipodi:guide
       position="3,3"
       orientation="0,18"
       id="guide4066" />
    <sodipodi:guide
       position="21,3"
       orientation="-18,0"
       id="guide4068" />
    <sodipodi:guide
       position="21,21"
       orientation="0,-18"
       id="guide4070" />
    <sodipodi:guide
       position="4,20"
       orientation="16,0"
       id="guide4072" />
    <sodipodi:guide
       position="4,4"
       orientation="0,16"
       id="guide4074" />
    <sodipodi:guide
       position="20,4"
       orientation="-16,0"
       id="guide4076" />
    <sodipodi:guide
       position="20,20"
       orientation="0,-16"
       id="guide4078" />
    <inkscape:grid
       type="xygrid"
       id="grid4080"
       originx="1px"
       originy="1px" />
  </sodipodi:namedview>
  <metadata
     id="metadata90">
    <rdf:RDF>
      <cc:Work
         rdf:about="">
        <dc:format>image/svg+xml</dc:format>
        <dc:type
           rdf:resource="http://purl.org/dc/dcmitype/StillImage" />
        <dc:title>Gnome Symbolic Icon Theme</dc:title>
      </cc:Work>
    </rdf:RDF>
  </metadata>
  <title
     id="title9167">Gnome Symbolic Icon Theme</title>
  <path
     style="fill:#4d4d4d;fill-rule:evenodd;stroke:none;stroke-width:1px;stroke-linecap:butt;stroke-linejoin:miter;stroke-opacity:1"
     d="m 4,11 0,9 16,0 z M 5,12.8 16.1,19 5,19 Z"
     id="path4163"
     inkscape:connector-curvature="0"
     sodipodi:nodetypes="cccccccc" />
  <path
     style="fill:#4d4d4d;fill-opacity:1;stroke:none"
     d="M 16.5,5 C 15.100569,5 13.903793,5.813097 13.34375,7 L 4,7 l 0,1 2,2 0,-1 1,0 0,1 1,0 0,-1 1,0 0,1 1,0 0,-1 1,0 0,1 2.34375,0 C 13.903793,11.186903 15.100569,12 16.5,12 18.432997,12 20,10.432996 20,8.5 20,6.5670037 18.432997,5 16.5,5 z M 18,7 c 0.552285,0 1,0.4477153 1,1 0,0.5522847 -0.447715,1 -1,1 -0.552285,0 -1,-0.4477153 -1,-1 0,-0.5522847 0.447715,-1 1,-1 z"
     id="path3784"
     inkscape:connector-curvature="0" />
</svg>
