<?xml version="1.0" encoding="UTF-8" standalone="no"?>
<!-- Created with Inkscape (http://www.inkscape.org/) -->

<svg
   xmlns:dc="http://purl.org/dc/elements/1.1/"
   xmlns:cc="http://creativecommons.org/ns#"
   xmlns:rdf="http://www.w3.org/1999/02/22-rdf-syntax-ns#"
   xmlns:svg="http://www.w3.org/2000/svg"
   xmlns="http://www.w3.org/2000/svg"
   xmlns:sodipodi="http://sodipodi.sourceforge.net/DTD/sodipodi-0.dtd"
   xmlns:inkscape="http://www.inkscape.org/namespaces/inkscape"
   width="22"
   height="22"
   id="svg3760"
   version="1.1"
   inkscape:version="0.91 r13725"
   sodipodi:docname="align-vertical-baseline.svg">
  <defs
     id="defs3762" />
  <sodipodi:namedview
     id="base"
     pagecolor="#ffffff"
     bordercolor="#666666"
     borderopacity="1.0"
     inkscape:pageopacity="0.0"
     inkscape:pageshadow="2"
     inkscape:zoom="45.254834"
     inkscape:cx="12.355"
     inkscape:cy="11.412742"
     inkscape:document-units="px"
     inkscape:current-layer="layer1"
     showgrid="true"
     fit-margin-top="0"
     fit-margin-left="0"
     fit-margin-right="0"
     fit-margin-bottom="0"
     inkscape:window-width="1920"
     inkscape:window-height="957"
     inkscape:window-x="-4"
     inkscape:window-y="0"
     inkscape:window-maximized="1"
     inkscape:showpageshadow="false"
     showguides="true"
     inkscape:snap-bbox="true"
     inkscape:snap-global="false">
    <sodipodi:guide
       position="4.1796875e-06,21.999997"
       orientation="22,0"
       id="guide4116" />
    <sodipodi:guide
       position="4.1796875e-06,-2.6953124e-06"
       orientation="0,22"
       id="guide4118" />
    <sodipodi:guide
       position="22.000004,-2.6953124e-06"
       orientation="-22,0"
       id="guide4120" />
    <sodipodi:guide
       position="22.000004,21.999997"
       orientation="0,-22"
       id="guide4122" />
    <sodipodi:guide
       position="2.0000042,19.999997"
       orientation="18,0"
       id="guide4124" />
    <sodipodi:guide
       position="20.000004,1.9999973"
       orientation="-18,0"
       id="guide4128" />
    <sodipodi:guide
       position="20.000004,19.999997"
       orientation="0,-18"
       id="guide4130" />
    <sodipodi:guide
       position="3.0000042,18.999997"
       orientation="16,0"
       id="guide4132" />
    <sodipodi:guide
       position="3.0000042,2.9999973"
       orientation="0,16"
       id="guide4134" />
    <sodipodi:guide
       position="19.000004,2.9999973"
       orientation="-16,0"
       id="guide4136" />
    <sodipodi:guide
       position="19.000004,18.999997"
       orientation="0,-16"
       id="guide4138" />
    <inkscape:grid
       type="xygrid"
       id="grid4140" />
  </sodipodi:namedview>
  <metadata
     id="metadata3765">
    <rdf:RDF>
      <cc:Work
         rdf:about="">
        <dc:format>image/svg+xml</dc:format>
        <dc:type
           rdf:resource="http://purl.org/dc/dcmitype/StillImage" />
        <dc:title />
      </cc:Work>
    </rdf:RDF>
  </metadata>
  <g
     inkscape:label="Capa 1"
     inkscape:groupmode="layer"
     id="layer1"
     transform="translate(-553.72253,-583.11926)">
    <rect
       style="fill:#4d4d4d;fill-opacity:1;stroke:none"
       id="rect3779"
       width="1"
       height="16"
       x="597.11926"
       y="-572.72253"
       transform="matrix(0,1,-1,0,0,0)" />
    <path
       style="font-style:normal;font-variant:normal;font-weight:bold;font-stretch:normal;font-size:9.10746765px;line-height:125%;font-family:Oxygen;-inkscape-font-specification:'Oxygen Bold';letter-spacing:0px;word-spacing:0px;fill:#4d4d4d;fill-opacity:1;stroke:none"
       inkscape:connector-curvature="0"
       id="path4237"
       d="m 571.08615,595.27774 0.19092,0.71403 1.44546,0 0,-4.71765 c 0,-1.44079 -1.06364,-2.15482 -2.70001,-2.15482 l -0.16365,0 c -1.17273,0.0255 -2.07273,0.21676 -2.72729,0.49727 l 0.36819,1.26229 c 0.31364,-0.10206 1.5,-0.45902 2.19546,-0.45902 l 0.0955,0 c 0.96819,0.0382 1.03638,0.36977 1.03638,1.14753 l 0,0.30601 -0.50454,0.0765 c -2.34549,0.31877 -3.60004,0.58652 -3.60004,2.26957 0,1.17305 0.91364,1.89981 2.23639,1.89981 0.91364,0 1.51365,-0.35701 2.12727,-0.84152 z m -1.8,-0.29325 c -0.58637,0 -0.87274,-0.34427 -0.87274,-0.82878 0,-0.91803 0.85909,-1.07104 1.90912,-1.2113 l 0.50453,-0.0764 0,1.56829 c -0.50453,0.31875 -0.88636,0.54827 -1.54091,0.54827 z" />
    <path
       style="color:#000000;font-style:normal;font-variant:normal;font-weight:normal;font-stretch:normal;font-size:medium;line-height:normal;font-family:Sans;-inkscape-font-specification:Sans;text-indent:0;text-align:start;text-decoration:none;text-decoration-line:none;letter-spacing:normal;word-spacing:normal;text-transform:none;direction:ltr;block-progression:tb;writing-mode:lr-tb;baseline-shift:baseline;text-anchor:start;display:inline;overflow:visible;visibility:visible;fill:#4d4d4d;fill-opacity:1;stroke:none;stroke-width:1.20000005;marker:none;enable-background:accumulate"
       d="m 559.81876,589.1193 c 0.26954,1.77824 0.96595,3.64768 2.54967,5.35312 -1.25782,1.583 -3.06491,3.08848 -5.92715,4.53709 l 0.59603,1.10979 c 6.20093,-3.13835 8.13296,-7.26759 9.40397,-11 l -1.35762,0 c -0.51195,1.50338 -1.10357,2.93176 -1.98675,4.30861 -1.26473,-1.41631 -1.85688,-2.79639 -2.08609,-4.30861 l -1.19206,0 z"
       id="path3007"
       inkscape:connector-curvature="0" />
  </g>
</svg>
