<?xml version="1.0" encoding="UTF-8" standalone="no"?>
<!-- Created with Inkscape (http://www.inkscape.org/) -->

<svg
   xmlns:dc="http://purl.org/dc/elements/1.1/"
   xmlns:cc="http://creativecommons.org/ns#"
   xmlns:rdf="http://www.w3.org/1999/02/22-rdf-syntax-ns#"
   xmlns:svg="http://www.w3.org/2000/svg"
   xmlns="http://www.w3.org/2000/svg"
   xmlns:sodipodi="http://sodipodi.sourceforge.net/DTD/sodipodi-0.dtd"
   xmlns:inkscape="http://www.inkscape.org/namespaces/inkscape"
   width="22"
   height="22"
   id="svg3381"
   version="1.1"
   inkscape:version="0.91 r13725"
   sodipodi:docname="text_letter_spacing.svg">
  <defs
     id="defs3383" />
  <sodipodi:namedview
     id="base"
     pagecolor="#ffffff"
     bordercolor="#666666"
     borderopacity="1.0"
     inkscape:pageopacity="0.0"
     inkscape:pageshadow="2"
     inkscape:zoom="22.627417"
     inkscape:cx="8.9983338"
     inkscape:cy="7.8855799"
     inkscape:document-units="px"
     inkscape:current-layer="layer1"
     showgrid="true"
     fit-margin-top="0"
     fit-margin-left="0"
     fit-margin-right="0"
     fit-margin-bottom="0"
     inkscape:window-width="1920"
     inkscape:window-height="957"
     inkscape:window-x="-4"
     inkscape:window-y="0"
     inkscape:window-maximized="1"
     inkscape:showpageshadow="false"
     showguides="true">
    <inkscape:grid
       type="xygrid"
       id="grid4114" />
    <sodipodi:guide
       position="3.0000117,4.9999785"
       orientation="0,16"
       id="guide4153" />
    <sodipodi:guide
       position="19.000012,16.999979"
       orientation="0,-16"
       id="guide4157" />
    <sodipodi:guide
       position="2.0000117,19.999979"
       orientation="18,0"
       id="guide4163" />
    <sodipodi:guide
       position="2.0000117,1.9999785"
       orientation="0,18"
       id="guide4165" />
    <sodipodi:guide
       position="20.000012,1.9999785"
       orientation="-18,0"
       id="guide4167" />
    <sodipodi:guide
       position="20.000012,19.999979"
       orientation="0,-18"
       id="guide4169" />
    <sodipodi:guide
       position="3.0000117,18.999979"
       orientation="16,0"
       id="guide4171" />
    <sodipodi:guide
       position="3.0000117,2.9999785"
       orientation="0,16"
       id="guide4173" />
    <sodipodi:guide
       position="19.000012,2.9999785"
       orientation="-16,0"
       id="guide4175" />
    <sodipodi:guide
       position="19.000012,18.999979"
       orientation="0,-16"
       id="guide4177" />
  </sodipodi:namedview>
  <metadata
     id="metadata3386">
    <rdf:RDF>
      <cc:Work
         rdf:about="">
        <dc:format>image/svg+xml</dc:format>
        <dc:type
           rdf:resource="http://purl.org/dc/dcmitype/StillImage" />
        <dc:title></dc:title>
      </cc:Work>
    </rdf:RDF>
  </metadata>
  <g
     inkscape:label="Capa 1"
     inkscape:groupmode="layer"
     id="layer1"
     transform="translate(-364.57143,-525.79075)">
    <g
       transform="translate(-186.71428,-81.85714)"
       id="layer1-9"
       inkscape:label="Capa 1">
      <path
         id="path4152"
         transform="translate(550.28571,606.64789)"
         d="m 4,4 0,2 0,1 0,2 0,1 1,0 2,0 C 8.108,10 9,9.108 9,8 9,7.18906 8.518735,6.4981038 7.828125,6.1835938 7.934075,5.9777437 8,5.74831 8,5.5 8,4.669 7.331,4 6.5,4 L 5,4 4,4 Z m 11,0 0,6 2,0 1,0 c 1.10801,0 2,-0.89199 2,-2 L 20,6 C 20,4.89199 19.10801,4 18,4 L 17,4 15,4 Z M 5,5 6.5,5 C 6.777,5 7,5.223 7,5.5 7,5.777 6.777,6 6.5,6 L 5,6 5,5 Z m 11,0 1,0 1,0 c 0.55401,0 1,0.44599 1,1 l 0,2 c 0,0.55401 -0.44599,1 -1,1 L 17,9 16,9 16,5 Z M 5,7 6.5,7 7,7 C 7.554,7 8,7.446 8,8 8,8.554 7.554,9 7,9 L 5,9 5,7 Z m 6,0 0,1 2,0 0,-1 -2,0 z m -6,6 0,1 2,0 0,-1 -2,0 z m 4,0 0,1 2,0 0,-1 -2,0 z m 4,0 0,1 2,0 0,-1 -2,0 z m 4,0 0,1 2,0 0,-1 -2,0 z m -11,3 -2,2 2,2 0,-4 z m 12,0 0,4 2,-2 -2,-2 z m -6,1 c -0.554,0 -1,0.446 -1,1 0,0.554 0.446,1 1,1 0.554,0 1,-0.446 1,-1 0,-0.554 -0.446,-1 -1,-1 z"
         style="font-style:normal;font-variant:normal;font-weight:normal;font-stretch:normal;font-size:medium;line-height:125%;font-family:Oxygen;-inkscape-font-specification:Oxygen;letter-spacing:0px;word-spacing:0px;fill:#4d4d4d;fill-opacity:1;stroke:none;stroke-width:1px;stroke-linecap:butt;stroke-linejoin:miter;stroke-opacity:1"
         inkscape:connector-curvature="0" />
    </g>
  </g>
</svg>
