<?xml version="1.0" encoding="UTF-8" standalone="no"?>
<!-- Created with Inkscape (http://www.inkscape.org/) -->

<svg
   xmlns:dc="http://purl.org/dc/elements/1.1/"
   xmlns:cc="http://creativecommons.org/ns#"
   xmlns:rdf="http://www.w3.org/1999/02/22-rdf-syntax-ns#"
   xmlns:svg="http://www.w3.org/2000/svg"
   xmlns="http://www.w3.org/2000/svg"
   xmlns:sodipodi="http://sodipodi.sourceforge.net/DTD/sodipodi-0.dtd"
   xmlns:inkscape="http://www.inkscape.org/namespaces/inkscape"
   width="24"
   height="24"
   id="svg2"
   version="1.1"
   inkscape:version="0.48.4 r9939"
   viewBox="0 0 24 24"
   sodipodi:docname="documentsize_L_A5_24x24.svg">
  <defs
     id="defs4" />
  <sodipodi:namedview
     id="base"
     pagecolor="#ffffff"
     bordercolor="#666666"
     borderopacity="1.0"
     inkscape:pageopacity="0.0"
     inkscape:pageshadow="2"
     inkscape:zoom="25.15656"
     inkscape:cx="9.5794902"
     inkscape:cy="7.845493"
     inkscape:document-units="px"
     inkscape:current-layer="layer1"
     showgrid="true"
     inkscape:showpageshadow="false"
     units="px"
     inkscape:window-width="1121"
     inkscape:window-height="1042"
     inkscape:window-x="795"
     inkscape:window-y="0"
     inkscape:window-maximized="0"
     showguides="true"
     fit-margin-top="0"
     fit-margin-left="0"
     fit-margin-right="0"
     fit-margin-bottom="0"
     inkscape:snap-bbox="true"
     inkscape:snap-global="true">
    <inkscape:grid
       type="xygrid"
       id="grid4120"
       originx="1px"
       originy="0.99998262px" />
    <sodipodi:guide
       position="3,21"
       orientation="18,0"
       id="guide4126" />
    <sodipodi:guide
       position="3,3"
       orientation="0,18"
       id="guide4128" />
    <sodipodi:guide
       position="21,7.9999826"
       orientation="-18,0"
       id="guide4130" />
    <sodipodi:guide
       position="21,21"
       orientation="0,-18"
       id="guide4132" />
    <sodipodi:guide
       position="4,20"
       orientation="16,0"
       id="guide4134" />
    <sodipodi:guide
       position="20,4"
       orientation="-16,0"
       id="guide4138" />
    <sodipodi:guide
       position="20,20"
       orientation="0,-16"
       id="guide4140" />
    <sodipodi:guide
       position="20,14"
       orientation="-6,0"
       id="guide4199" />
    <sodipodi:guide
       position="20,20"
       orientation="0,-6.0000172"
       id="guide4201" />
  </sodipodi:namedview>
  <metadata
     id="metadata7">
    <rdf:RDF>
      <cc:Work
         rdf:about="">
        <dc:format>image/svg+xml</dc:format>
        <dc:type
           rdf:resource="http://purl.org/dc/dcmitype/StillImage" />
        <dc:title></dc:title>
      </cc:Work>
    </rdf:RDF>
  </metadata>
  <g
     inkscape:label="Capa 1"
     inkscape:groupmode="layer"
     id="layer1"
     transform="translate(1,-1029.3622)">
    <path
       inkscape:connector-curvature="0"
       style="color:#000000;fill:#4d4d4d;fill-opacity:1;fill-rule:nonzero;stroke:none;stroke-width:2;marker:none;visibility:visible;display:inline;overflow:visible;enable-background:accumulate"
       d="m 3,1032.3622 0,18 0,1 16,0 0,-1 0,-18 -16,0 z m 1,1 14,0 0,16 0,1 -14,0 0,-1 0,-16 z"
       id="rect3079-6-5-5" />
    <rect
       style="fill:#4d4d4d;fill-opacity:1;stroke:none"
       id="rect4035"
       width="0"
       height="10.999983"
       x="-12.687495"
       y="1050.3622" />
    <rect
       style="fill:#4d4d4d;fill-opacity:1;stroke:none"
       id="rect4035-5"
       width="0"
       height="10.999983"
       x="5.3532758"
       y="1048.3109" />
    <rect
       style="fill:#4d4d4d;fill-opacity:1;stroke:none"
       id="rect4035-8"
       width="0"
       height="10.999983"
       x="-12.687495"
       y="1050.3622" />
    <rect
       style="fill:#4d4d4d;fill-opacity:1;stroke:none"
       id="rect4035-59"
       width="0"
       height="10.999983"
       x="-12.687495"
       y="1050.3622" />
    <text
       sodipodi:linespacing="125%"
       id="text3781-3"
       y="1063.1195"
       x="2.7484787"
       style="font-size:9px;font-style:normal;font-weight:normal;line-height:125%;letter-spacing:0px;word-spacing:0px;fill:#4d4d4d;fill-opacity:1;stroke:none;font-family:Sans"
       xml:space="preserve"><tspan
         id="tspan3783-0"
         sodipodi:role="line"
         x="2.7484787"
         y="1063.1195" /></text>
    <text
       sodipodi:linespacing="125%"
       id="text3781-8"
       y="1057.2561"
       x="3.485173"
       style="font-size:9px;font-style:normal;font-weight:normal;line-height:125%;letter-spacing:0px;word-spacing:0px;fill:#4d4d4d;fill-opacity:1;stroke:none;font-family:Sans"
       xml:space="preserve"><tspan
         id="tspan3783-1"
         sodipodi:role="line"
         x="3.485173"
         y="1057.2561" /></text>
    <text
       sodipodi:linespacing="125%"
       id="text3781-4"
       y="1064.1195"
       x="-3.2515213"
       style="font-size:9px;font-style:normal;font-weight:normal;line-height:125%;letter-spacing:0px;word-spacing:0px;fill:#4d4d4d;fill-opacity:1;stroke:none;font-family:Sans"
       xml:space="preserve"><tspan
         id="tspan3783-13"
         sodipodi:role="line"
         x="-3.2515213"
         y="1064.1195" /></text>
    <rect
       style="fill:#4d4d4d;fill-opacity:1;stroke:none"
       id="rect4035-9"
       width="0"
       height="10.999983"
       x="-12.687495"
       y="1050.3622" />
    <rect
       style="fill:#4d4d4d;fill-opacity:1;stroke:none"
       id="rect4035-5-7"
       width="0"
       height="10.999983"
       x="5.3532758"
       y="1048.3109" />
    <rect
       style="fill:#4d4d4d;fill-opacity:1;stroke:none"
       id="rect4035-9-0"
       width="0"
       height="10.999983"
       x="-32.687496"
       y="1050.3622" />
    <rect
       style="fill:#4d4d4d;fill-opacity:1;stroke:none"
       id="rect4035-5-7-5"
       width="0"
       height="10.999983"
       x="-14.646724"
       y="1048.3109" />
    <rect
       style="fill:#4d4d4d;fill-opacity:1;stroke:none"
       id="rect4035-3"
       width="0"
       height="10.999983"
       x="-12.687495"
       y="1050.3622" />
    <rect
       style="fill:#4d4d4d;fill-opacity:1;stroke:none"
       id="rect4035-5-4"
       width="0"
       height="10.999983"
       x="5.3532758"
       y="1048.3109" />
    <rect
       style="fill:#4d4d4d;fill-opacity:1;stroke:none"
       id="rect4035-8-7"
       width="0"
       height="10.999983"
       x="-12.687495"
       y="1050.3622" />
    <rect
       style="fill:#4d4d4d;fill-opacity:1;stroke:none"
       id="rect4035-59-1"
       width="0"
       height="10.999983"
       x="-12.687495"
       y="1050.3622" />
    <text
       sodipodi:linespacing="125%"
       id="text3781-1"
       y="1063.1195"
       x="2.7484787"
       style="font-size:9px;font-style:normal;font-weight:normal;line-height:125%;letter-spacing:0px;word-spacing:0px;fill:#4d4d4d;fill-opacity:1;stroke:none;font-family:Sans"
       xml:space="preserve"><tspan
         id="tspan3783-8"
         sodipodi:role="line"
         x="2.7484787"
         y="1063.1195" /></text>
    <text
       sodipodi:linespacing="125%"
       id="text3781-8-2"
       y="1057.2561"
       x="3.485173"
       style="font-size:9px;font-style:normal;font-weight:normal;line-height:125%;letter-spacing:0px;word-spacing:0px;fill:#4d4d4d;fill-opacity:1;stroke:none;font-family:Sans"
       xml:space="preserve"><tspan
         id="tspan3783-1-6"
         sodipodi:role="line"
         x="3.485173"
         y="1057.2561" /></text>
    <text
       sodipodi:linespacing="125%"
       id="text3781-4-7"
       y="1064.1195"
       x="-3.2515213"
       style="font-size:9px;font-style:normal;font-weight:normal;line-height:125%;letter-spacing:0px;word-spacing:0px;fill:#4d4d4d;fill-opacity:1;stroke:none;font-family:Sans"
       xml:space="preserve"><tspan
         id="tspan3783-13-8"
         sodipodi:role="line"
         x="-3.2515213"
         y="1064.1195" /></text>
    <rect
       style="fill:#4d4d4d;fill-opacity:1;stroke:none"
       id="rect4035-9-08"
       width="0"
       height="10.999983"
       x="-12.687495"
       y="1050.3622" />
    <rect
       style="fill:#4d4d4d;fill-opacity:1;stroke:none"
       id="rect4035-5-7-8"
       width="0"
       height="10.999983"
       x="5.3532758"
       y="1048.3109" />
    <rect
       style="fill:#4d4d4d;fill-opacity:1;stroke:none"
       id="rect4035-9-0-2"
       width="0"
       height="10.999983"
       x="-32.687496"
       y="1050.3622" />
    <rect
       style="fill:#4d4d4d;fill-opacity:1;stroke:none"
       id="rect4035-5-7-5-2"
       width="0"
       height="10.999983"
       x="-14.646724"
       y="1048.3109" />
    <g
       style="font-size:9.30875778px;font-style:normal;font-weight:normal;line-height:125%;letter-spacing:0px;word-spacing:0px;fill:#4d4d4d;fill-opacity:1;stroke:none;font-family:Sans"
       id="text4023-6-2-6"
       transform="matrix(1.033594,0,0,1,-0.403128,0)">
      <path
         d="m 13.777209,1045.3622 c -0.406048,0 -0.768156,-0.053 -1.086325,-0.1591 -0.315141,-0.106 -0.545435,-0.2287 -0.690884,-0.3681 l 0.254536,-0.6682 c 0.427256,0.3364 0.936329,0.5045 1.527218,0.5045 0.454527,0 0.81512,-0.1121 1.08178,-0.3363 0.269683,-0.2273 0.404527,-0.5439 0.404531,-0.95 -4e-6,-0.2212 -0.03485,-0.4136 -0.104542,-0.5772 -0.06667,-0.1667 -0.157574,-0.3 -0.272718,-0.4 -0.11212,-0.103 -0.257569,-0.1848 -0.436348,-0.2455 -0.175754,-0.064 -0.357565,-0.1075 -0.545435,-0.1318 -0.184844,-0.027 -0.399987,-0.044 -0.645431,-0.05 -0.0303,0 -0.07576,0 -0.136359,0 -0.0606,0 -0.106058,0 -0.136359,0 l 0,-0.6773 0.227265,0 c 0.212112,0 0.398469,-0.014 0.559071,-0.032 0.163628,-0.021 0.325743,-0.058 0.486346,-0.1091 0.163628,-0.052 0.298471,-0.1197 0.404531,-0.2045 0.106054,-0.085 0.192414,-0.1985 0.259082,-0.3409 0.06666,-0.1424 0.09999,-0.3106 0.1,-0.5045 -3e-6,-0.7273 -0.416655,-1.0909 -1.249955,-1.0909 -0.299991,0 -0.581799,0.044 -0.845424,0.1318 -0.263628,0.088 -0.489378,0.2061 -0.677249,0.3546 L 12,1038.8397 c 0.451498,-0.3424 1.101474,-0.5136 1.94993,-0.5136 0.342409,0 0.659064,0.064 0.949966,0.1909 0.290895,0.1243 0.53028,0.3167 0.718156,0.5773 0.187868,0.2575 0.281804,0.5606 0.281808,0.909 -4e-6,0.4243 -0.104546,0.7727 -0.313625,1.0455 -0.209087,0.2727 -0.503016,0.4681 -0.881787,0.5863 0.424224,0.091 0.75603,0.2894 0.995419,0.5954 0.242412,0.3061 0.363619,0.6939 0.363624,1.1636 -5e-6,0.597 -0.213633,1.0742 -0.640886,1.4318 -0.427261,0.3576 -0.975726,0.5363 -1.645396,0.5363"
         style="font-variant:normal;font-stretch:normal;fill:#4d4d4d;fill-opacity:1;font-family:Oxygen;-inkscape-font-specification:Oxygen"
         id="path4156"
         inkscape:connector-curvature="0" />
    </g>
    <g
       style="font-size:9.6020956px;font-style:normal;font-weight:normal;line-height:125%;letter-spacing:0px;word-spacing:0px;fill:#4d4d4d;fill-opacity:1;stroke:none;font-family:Sans"
       id="text4198">
      <path
         d="m 8.1913248,1039.2952 -1.2846554,3.4836 2.5739993,0 -1.2893439,-3.4836 m -0.5344917,-0.933 1.0736718,0 2.6677701,7 -0.98459,0 -0.6376394,-1.7957 -3.1553761,0 -0.6376392,1.7957 -0.9986554,0 2.6724582,-7"
         style="fill:#4d4d4d;fill-opacity:1"
         id="path4203"
         inkscape:connector-curvature="0" />
    </g>
  </g>
</svg>
