<?xml version="1.0" encoding="UTF-8" standalone="no"?>
<!-- Created with Inkscape (http://www.inkscape.org/) -->

<svg
   xmlns:dc="http://purl.org/dc/elements/1.1/"
   xmlns:cc="http://creativecommons.org/ns#"
   xmlns:rdf="http://www.w3.org/1999/02/22-rdf-syntax-ns#"
   xmlns:svg="http://www.w3.org/2000/svg"
   xmlns="http://www.w3.org/2000/svg"
   xmlns:sodipodi="http://sodipodi.sourceforge.net/DTD/sodipodi-0.dtd"
   xmlns:inkscape="http://www.inkscape.org/namespaces/inkscape"
   width="24"
   height="24"
   id="svg3760"
   version="1.1"
   inkscape:version="0.48.4 r9939"
   sodipodi:docname="lc_lineendstyle.svg">
  <defs
     id="defs3762" />
  <sodipodi:namedview
     id="base"
     pagecolor="#ffffff"
     bordercolor="#666666"
     borderopacity="1.0"
     inkscape:pageopacity="0.0"
     inkscape:pageshadow="2"
     inkscape:zoom="34.579357"
     inkscape:cx="12.13631"
     inkscape:cy="11.173086"
     inkscape:document-units="px"
     inkscape:current-layer="layer1"
     showgrid="true"
     fit-margin-top="0"
     fit-margin-left="0"
     fit-margin-right="0"
     fit-margin-bottom="0"
     inkscape:window-width="1167"
     inkscape:window-height="1053"
     inkscape:window-x="56"
     inkscape:window-y="0"
     inkscape:window-maximized="0"
     inkscape:showpageshadow="false"
     showguides="true"
     inkscape:object-paths="true"
     inkscape:snap-bbox="true">
    <inkscape:grid
       type="xygrid"
       id="grid4106"
       originx="1.8863594e-05px"
       originy="-1.7016406e-05px" />
    <sodipodi:guide
       position="3.0000144,20.999978"
       orientation="0,18"
       id="guide4229" />
    <sodipodi:guide
       position="21.000014,20.999978"
       orientation="18,0"
       id="guide4231" />
    <sodipodi:guide
       position="21.000014,2.9999782"
       orientation="0,-18"
       id="guide4233" />
    <sodipodi:guide
       position="3.0000144,2.9999782"
       orientation="-18,0"
       id="guide4235" />
    <sodipodi:guide
       position="20.000014,3.9999782"
       orientation="0,-16"
       id="guide4241" />
    <sodipodi:guide
       position="4,20"
       orientation="6,0"
       id="guide4155" />
    <sodipodi:guide
       position="20,14"
       orientation="-6,0"
       id="guide4167" />
    <sodipodi:guide
       position="20,20"
       orientation="0,-6"
       id="guide4169" />
  </sodipodi:namedview>
  <metadata
     id="metadata3765">
    <rdf:RDF>
      <cc:Work
         rdf:about="">
        <dc:format>image/svg+xml</dc:format>
        <dc:type
           rdf:resource="http://purl.org/dc/dcmitype/StillImage" />
        <dc:title></dc:title>
      </cc:Work>
    </rdf:RDF>
  </metadata>
  <g
     inkscape:label="Capa 1"
     inkscape:groupmode="layer"
     id="layer1"
     transform="translate(-550.28571,-606.64789)">
    <g
       transform="translate(551.28573,-422.71429)"
       id="layer1-2"
       inkscape:label="Capa 1">
      <path
         id="rect4108"
         transform="translate(0,1030.3622)"
         d="M 5.5,3 C 5.013545,4.7025 3.8218,6.1660906 3.296875,7.3378906 3.113175,7.6862906 3,8.0773 3,8.5 3,9.885 4.115,11 5.5,11 6.885,11 8,9.885 8,8.5 8,8.0773 7.886825,7.6862906 7.703125,7.3378906 7.1782,6.1660906 5.98645,4.7025 5.5,3 z m 11,0 C 16.013545,4.7025 14.8218,6.1660906 14.296875,7.3378906 14.113175,7.6862906 14,8.0773 14,8.5 14,9.885 15.115,11 16.5,11 17.885,11 19,9.885 19,8.5 19,8.0773 18.886825,7.6862906 18.703125,7.3378906 18.1782,6.1660906 16.98645,4.7025 16.5,3 z M 11,11 C 10.513545,12.7025 9.3218,14.166091 8.796875,15.337891 8.613175,15.686291 8.5,16.0773 8.5,16.5 c 0,1.385 1.115,2.5 2.5,2.5 1.385,0 2.5,-1.115 2.5,-2.5 0,-0.4227 -0.113175,-0.813709 -0.296875,-1.162109 C 12.6782,14.166091 11.48645,12.7025 11,11 z"
         style="fill:#4d4d4d;fill-opacity:1;stroke:none"
         inkscape:connector-curvature="0" />
    </g>
  </g>
</svg>
