<?xml version="1.0" encoding="UTF-8" standalone="no"?>
<!-- Created with Inkscape (http://www.inkscape.org/) -->

<svg
   xmlns:dc="http://purl.org/dc/elements/1.1/"
   xmlns:cc="http://creativecommons.org/ns#"
   xmlns:rdf="http://www.w3.org/1999/02/22-rdf-syntax-ns#"
   xmlns:svg="http://www.w3.org/2000/svg"
   xmlns="http://www.w3.org/2000/svg"
   xmlns:sodipodi="http://sodipodi.sourceforge.net/DTD/sodipodi-0.dtd"
   xmlns:inkscape="http://www.inkscape.org/namespaces/inkscape"
   width="31"
   height="31"
   id="svg2989"
   version="1.1"
   inkscape:version="0.48.4 r9939"
   sodipodi:docname="wr05.svg">
  <defs
     id="defs2991" />
  <sodipodi:namedview
     id="base"
     pagecolor="#ffffff"
     bordercolor="#666666"
     borderopacity="1.0"
     inkscape:pageopacity="0.0"
     inkscape:pageshadow="2"
     inkscape:zoom="22.4"
     inkscape:cx="15.557836"
     inkscape:cy="14.41217"
     inkscape:document-units="px"
     inkscape:current-layer="layer1"
     showgrid="true"
     inkscape:snap-bbox="true"
     showguides="true"
     inkscape:guide-bbox="true"
     inkscape:window-width="930"
     inkscape:window-height="1053"
     inkscape:window-x="52"
     inkscape:window-y="0"
     inkscape:window-maximized="0">
    <inkscape:grid
       type="xygrid"
       id="grid3018"
       empspacing="5"
       visible="true"
       enabled="true"
       snapvisiblegridlinesonly="true" />
    <sodipodi:guide
       orientation="0,1"
       position="2,27"
       id="guide3020" />
    <sodipodi:guide
       orientation="1,0"
       position="4,25"
       id="guide3022" />
    <sodipodi:guide
       orientation="1,0"
       position="27,24"
       id="guide3024" />
    <sodipodi:guide
       orientation="0,1"
       position="15,4"
       id="guide3026" />
  </sodipodi:namedview>
  <metadata
     id="metadata2994">
    <rdf:RDF>
      <cc:Work
         rdf:about="">
        <dc:format>image/svg+xml</dc:format>
        <dc:type
           rdf:resource="http://purl.org/dc/dcmitype/StillImage" />
        <dc:title></dc:title>
      </cc:Work>
    </rdf:RDF>
  </metadata>
  <g
     inkscape:label="Layer 1"
     inkscape:groupmode="layer"
     id="layer1"
     transform="translate(0,-1021.3622)">
    <path
       style="color:#000000;fill:#4d4d4d;fill-opacity:1;fill-rule:nonzero;stroke:none;stroke-width:2;marker:none;visibility:visible;display:inline;overflow:visible;enable-background:accumulate"
       d="M 4 4 L 4 5 L 27 5 L 27 4 L 4 4 z M 4 8 L 4 9 L 6 9 L 6 8 L 4 8 z M 25 8 L 25 9 L 27 9 L 27 8 L 25 8 z M 4 12 L 4 13 L 6 13 L 6 12 L 4 12 z M 25 12 L 25 13 L 27 13 L 27 12 L 25 12 z M 4 18 L 4 19 L 6 19 L 6 18 L 4 18 z M 25 18 L 25 19 L 27 19 L 27 18 L 25 18 z M 4 22 L 4 23 L 6 23 L 6 22 L 4 22 z M 25 22 L 25 23 L 27 23 L 27 22 L 25 22 z M 4 26 L 4 27 L 27 27 L 27 26 L 4 26 z "
       transform="translate(0,1021.3622)"
       id="rect3028" />
    <rect
       style="color:#000000;fill:#1d99f3;fill-opacity:1;fill-rule:nonzero;stroke:none;stroke-width:2;marker:none;visibility:visible;display:inline;overflow:visible;enable-background:accumulate"
       id="rect3841-5"
       width="15"
       height="15"
       x="-23"
       y="1029.3622"
       transform="scale(-1,1)" />
  </g>
</svg>
