<?xml version="1.0" encoding="UTF-8" standalone="no"?>
<!-- Created with Inkscape (http://www.inkscape.org/) -->

<svg
   xmlns:dc="http://purl.org/dc/elements/1.1/"
   xmlns:cc="http://creativecommons.org/ns#"
   xmlns:rdf="http://www.w3.org/1999/02/22-rdf-syntax-ns#"
   xmlns:svg="http://www.w3.org/2000/svg"
   xmlns="http://www.w3.org/2000/svg"
   xmlns:sodipodi="http://sodipodi.sourceforge.net/DTD/sodipodi-0.dtd"
   xmlns:inkscape="http://www.inkscape.org/namespaces/inkscape"
   width="16"
   height="16"
   id="svg3049"
   version="1.1"
   inkscape:version="0.48.4 r9939"
   sodipodi:docname="sc_insertcolumns.svg"
   inkscape:export-filename="/home/uri/.kde/share/icons/NITRUX-KDE/16x16/actions/view-right-new.png"
   inkscape:export-xdpi="30"
   inkscape:export-ydpi="30">
  <defs
     id="defs3051" />
  <sodipodi:namedview
     id="base"
     pagecolor="#ffffff"
     bordercolor="#666666"
     borderopacity="1.0"
     inkscape:pageopacity="0.0"
     inkscape:pageshadow="2"
     inkscape:zoom="24.411306"
     inkscape:cx="9.1459873"
     inkscape:cy="12.446661"
     inkscape:document-units="px"
     inkscape:current-layer="layer1"
     showgrid="true"
     fit-margin-top="0"
     fit-margin-left="0"
     fit-margin-right="0"
     fit-margin-bottom="0"
     inkscape:window-width="1407"
     inkscape:window-height="1053"
     inkscape:window-x="509"
     inkscape:window-y="0"
     inkscape:window-maximized="0"
     inkscape:showpageshadow="false"
     borderlayer="true"
     inkscape:snap-bbox="true"
     inkscape:snap-global="true">
    <inkscape:grid
       type="xygrid"
       id="grid4085" />
    <sodipodi:guide
       position="2,15"
       orientation="12,0"
       id="guide4075" />
    <sodipodi:guide
       position="17,2"
       orientation="0,12"
       id="guide4077" />
    <sodipodi:guide
       position="14,13"
       orientation="-12,0"
       id="guide4079" />
    <sodipodi:guide
       position="0,14"
       orientation="0,-12"
       id="guide4081" />
  </sodipodi:namedview>
  <metadata
     id="metadata3054">
    <rdf:RDF>
      <cc:Work
         rdf:about="">
        <dc:format>image/svg+xml</dc:format>
        <dc:type
           rdf:resource="http://purl.org/dc/dcmitype/StillImage" />
        <dc:title />
      </cc:Work>
    </rdf:RDF>
  </metadata>
  <g
     inkscape:label="Capa 1"
     inkscape:groupmode="layer"
     id="layer1"
     transform="translate(-421.71429,-531.79074)">
    <path
       sodipodi:nodetypes="ccccccccccccc"
       inkscape:connector-curvature="0"
       id="rect4112"
       d="m 433.71429,540.79074 0,2 2,0 0,1 -2,0 0,2 -1,0 0,-2 -2,0 0,-1 2,0 0,-2 z"
       style="fill:#4d4d4d;fill-opacity:1;stroke:none" />
    <g
       transform="matrix(-1,0,0,1,897.68858,-6.3485488)"
       id="layer1-0"
       inkscape:label="Capa 1" />
    <path
       style="fill:#1d99f3;fill-opacity:1;stroke:none"
       d="M 9 2 L 9 3.28125 L 9 4.71875 L 9 6 L 9 7.28125 L 9 8.71875 L 9 9 L 10.71875 9 L 10 8.28125 L 10 6 L 10 5.71875 L 10.28125 6 L 11.28125 7 L 13 8.71875 L 13 9 L 14 9 L 14 8.28125 L 14 7 L 14 6 L 14 4.28125 L 14 3 L 14 2 L 13 2 L 13 3 L 13 3.28125 L 12.71875 3 L 11.71875 2 L 10.28125 2 L 11.28125 3 L 13 4.71875 L 13 6 L 13 7 L 13 7.28125 L 12.71875 7 L 11.71875 6 L 10 4.28125 L 10 2 L 9 2 z "
       transform="translate(421.71429,531.79074)"
       id="rect4197-9-0-0" />
    <path
       style="color:#000000;fill:#4d4d4d;fill-opacity:1;fill-rule:nonzero;stroke:none;stroke-width:2;marker:none;visibility:visible;display:inline;overflow:visible;enable-background:accumulate"
       d="M 2 2 L 2 3 L 2 6 L 2 7 L 2 9 L 2 10 L 2 13 L 2 14 L 6 14 L 7 14 L 9 14 L 9 13 L 7 13 L 7 10 L 9 10 L 9 9 L 7 9 L 7 7 L 9 7 L 9 6 L 7 6 L 7 3 L 8 3 L 9 3 L 9 2 L 8 2 L 7 2 L 6 2 L 3 2 L 2 2 z M 3 3 L 6 3 L 6 6 L 3 6 L 3 3 z M 3 7 L 6 7 L 6 9 L 3 9 L 3 7 z M 3 10 L 6 10 L 6 13 L 3 13 L 3 10 z "
       transform="translate(421.71429,531.79074)"
       id="rect6826-6" />
  </g>
</svg>
