<?xml version="1.0" encoding="UTF-8" standalone="no"?>
<!-- Created with Inkscape (http://www.inkscape.org/) -->

<svg
   xmlns:dc="http://purl.org/dc/elements/1.1/"
   xmlns:cc="http://creativecommons.org/ns#"
   xmlns:rdf="http://www.w3.org/1999/02/22-rdf-syntax-ns#"
   xmlns:svg="http://www.w3.org/2000/svg"
   xmlns="http://www.w3.org/2000/svg"
   xmlns:sodipodi="http://sodipodi.sourceforge.net/DTD/sodipodi-0.dtd"
   xmlns:inkscape="http://www.inkscape.org/namespaces/inkscape"
   width="16"
   height="16"
   id="svg3049"
   version="1.1"
   inkscape:version="0.48.4 r9939"
   sodipodi:docname="dataeditor_icon06.svg"
   inkscape:export-filename="/home/uri/.kde/share/icons/NITRUX-KDE/16x16/actions/view-right-new.png"
   inkscape:export-xdpi="30"
   inkscape:export-ydpi="30">
  <defs
     id="defs3051" />
  <sodipodi:namedview
     id="base"
     pagecolor="#ffffff"
     bordercolor="#666666"
     borderopacity="1.0"
     inkscape:pageopacity="0.0"
     inkscape:pageshadow="2"
     inkscape:zoom="24.411306"
     inkscape:cx="8.120808"
     inkscape:cy="8.5041596"
     inkscape:document-units="px"
     inkscape:current-layer="layer1"
     showgrid="true"
     fit-margin-top="0"
     fit-margin-left="0"
     fit-margin-right="0"
     fit-margin-bottom="0"
     inkscape:window-width="1407"
     inkscape:window-height="1053"
     inkscape:window-x="509"
     inkscape:window-y="0"
     inkscape:window-maximized="0"
     inkscape:showpageshadow="false"
     borderlayer="true"
     inkscape:snap-bbox="true"
     inkscape:snap-global="true">
    <inkscape:grid
       type="xygrid"
       id="grid4085" />
    <sodipodi:guide
       position="2,15"
       orientation="12,0"
       id="guide4075" />
    <sodipodi:guide
       position="17,2"
       orientation="0,12"
       id="guide4077" />
    <sodipodi:guide
       position="14,13"
       orientation="-12,0"
       id="guide4079" />
    <sodipodi:guide
       position="0,14"
       orientation="0,-12"
       id="guide4081" />
  </sodipodi:namedview>
  <metadata
     id="metadata3054">
    <rdf:RDF>
      <cc:Work
         rdf:about="">
        <dc:format>image/svg+xml</dc:format>
        <dc:type
           rdf:resource="http://purl.org/dc/dcmitype/StillImage" />
        <dc:title></dc:title>
      </cc:Work>
    </rdf:RDF>
  </metadata>
  <g
     inkscape:label="Capa 1"
     inkscape:groupmode="layer"
     id="layer1"
     transform="translate(-421.71429,-531.79074)">
    <g
       transform="matrix(0,-1,1,0,-116.425,1023.765)"
       id="layer1-0"
       inkscape:label="Capa 1" />
    <rect
       style="fill:#4d4d4d;fill-opacity:1;stroke:none"
       id="rect4035"
       width="0"
       height="10.999983"
       x="537.79077"
       y="437.71426"
       transform="matrix(0,1,1,0,0,0)" />
    <rect
       style="fill:#4d4d4d;fill-opacity:1;stroke:none"
       id="rect4035-5"
       width="0"
       height="10.999983"
       x="555.83154"
       y="435.66293"
       transform="matrix(0,1,1,0,0,0)" />
    <rect
       style="fill:#4d4d4d;fill-opacity:1;stroke:none"
       id="rect4035-8"
       width="0"
       height="10.999983"
       x="537.79077"
       y="437.71426"
       transform="matrix(0,1,1,0,0,0)" />
    <rect
       style="fill:#4d4d4d;fill-opacity:1;stroke:none"
       id="rect4035-59"
       width="0"
       height="10.999983"
       x="537.79077"
       y="437.71426"
       transform="matrix(0,1,1,0,0,0)" />
    <text
       sodipodi:linespacing="125%"
       id="text3781"
       y="450.47153"
       x="553.22675"
       style="font-size:9px;font-style:normal;font-weight:normal;line-height:125%;letter-spacing:0px;word-spacing:0px;fill:#4d4d4d;fill-opacity:1;stroke:none;font-family:Sans"
       xml:space="preserve"
       transform="matrix(0,1,1,0,0,0)"><tspan
         id="tspan3783"
         sodipodi:role="line"
         x="553.22675"
         y="450.47153" /></text>
    <text
       sodipodi:linespacing="125%"
       id="text3781-8"
       y="444.60818"
       x="553.96344"
       style="font-size:9px;font-style:normal;font-weight:normal;line-height:125%;letter-spacing:0px;word-spacing:0px;fill:#4d4d4d;fill-opacity:1;stroke:none;font-family:Sans"
       xml:space="preserve"
       transform="matrix(0,1,1,0,0,0)"><tspan
         id="tspan3783-1"
         sodipodi:role="line"
         x="553.96344"
         y="444.60818" /></text>
    <text
       sodipodi:linespacing="125%"
       id="text3781-4"
       y="451.47153"
       x="547.22675"
       style="font-size:9px;font-style:normal;font-weight:normal;line-height:125%;letter-spacing:0px;word-spacing:0px;fill:#4d4d4d;fill-opacity:1;stroke:none;font-family:Sans"
       xml:space="preserve"
       transform="matrix(0,1,1,0,0,0)"><tspan
         id="tspan3783-13"
         sodipodi:role="line"
         x="547.22675"
         y="451.47153" /></text>
    <rect
       style="fill:#4d4d4d;fill-opacity:1;stroke:none"
       id="rect4035-9"
       width="0"
       height="10.999983"
       x="537.79077"
       y="437.71426"
       transform="matrix(0,1,1,0,0,0)" />
    <rect
       style="fill:#4d4d4d;fill-opacity:1;stroke:none"
       id="rect4035-5-7"
       width="0"
       height="10.999983"
       x="555.83154"
       y="435.66293"
       transform="matrix(0,1,1,0,0,0)" />
    <rect
       style="fill:#4d4d4d;fill-opacity:1;stroke:none"
       id="rect4035-9-0"
       width="0"
       height="10.999983"
       x="517.79077"
       y="437.71426"
       transform="matrix(0,1,1,0,0,0)" />
    <rect
       style="fill:#4d4d4d;fill-opacity:1;stroke:none"
       id="rect4035-5-7-5"
       width="0"
       height="10.999983"
       x="535.83154"
       y="435.66293"
       transform="matrix(0,1,1,0,0,0)" />
    <rect
       style="fill:#4d4d4d;fill-opacity:1;stroke:none"
       id="rect4035-3"
       width="0"
       height="10.999983"
       x="537.79077"
       y="437.71426"
       transform="matrix(0,1,1,0,0,0)" />
    <rect
       style="fill:#4d4d4d;fill-opacity:1;stroke:none"
       id="rect4035-5-4"
       width="0"
       height="10.999983"
       x="555.83154"
       y="435.66293"
       transform="matrix(0,1,1,0,0,0)" />
    <rect
       style="fill:#4d4d4d;fill-opacity:1;stroke:none"
       id="rect4035-8-7"
       width="0"
       height="10.999983"
       x="537.79077"
       y="437.71426"
       transform="matrix(0,1,1,0,0,0)" />
    <rect
       style="fill:#4d4d4d;fill-opacity:1;stroke:none"
       id="rect4035-59-1"
       width="0"
       height="10.999983"
       x="537.79077"
       y="437.71426"
       transform="matrix(0,1,1,0,0,0)" />
    <text
       sodipodi:linespacing="125%"
       id="text3781-1"
       y="450.47153"
       x="553.22675"
       style="font-size:9px;font-style:normal;font-weight:normal;line-height:125%;letter-spacing:0px;word-spacing:0px;fill:#4d4d4d;fill-opacity:1;stroke:none;font-family:Sans"
       xml:space="preserve"
       transform="matrix(0,1,1,0,0,0)"><tspan
         id="tspan3783-8"
         sodipodi:role="line"
         x="553.22675"
         y="450.47153" /></text>
    <text
       sodipodi:linespacing="125%"
       id="text3781-8-2"
       y="444.60818"
       x="553.96344"
       style="font-size:9px;font-style:normal;font-weight:normal;line-height:125%;letter-spacing:0px;word-spacing:0px;fill:#4d4d4d;fill-opacity:1;stroke:none;font-family:Sans"
       xml:space="preserve"
       transform="matrix(0,1,1,0,0,0)"><tspan
         id="tspan3783-1-6"
         sodipodi:role="line"
         x="553.96344"
         y="444.60818" /></text>
    <text
       sodipodi:linespacing="125%"
       id="text3781-4-7"
       y="451.47153"
       x="547.22675"
       style="font-size:9px;font-style:normal;font-weight:normal;line-height:125%;letter-spacing:0px;word-spacing:0px;fill:#4d4d4d;fill-opacity:1;stroke:none;font-family:Sans"
       xml:space="preserve"
       transform="matrix(0,1,1,0,0,0)"><tspan
         id="tspan3783-13-8"
         sodipodi:role="line"
         x="547.22675"
         y="451.47153" /></text>
    <rect
       style="fill:#4d4d4d;fill-opacity:1;stroke:none"
       id="rect4035-9-08"
       width="0"
       height="10.999983"
       x="537.79077"
       y="437.71426"
       transform="matrix(0,1,1,0,0,0)" />
    <rect
       style="fill:#4d4d4d;fill-opacity:1;stroke:none"
       id="rect4035-5-7-8"
       width="0"
       height="10.999983"
       x="555.83154"
       y="435.66293"
       transform="matrix(0,1,1,0,0,0)" />
    <rect
       style="fill:#4d4d4d;fill-opacity:1;stroke:none"
       id="rect4035-9-0-2"
       width="0"
       height="10.999983"
       x="517.79077"
       y="437.71426"
       transform="matrix(0,1,1,0,0,0)" />
    <rect
       style="fill:#4d4d4d;fill-opacity:1;stroke:none"
       id="rect4035-5-7-5-2"
       width="0"
       height="10.999983"
       x="535.83154"
       y="435.66293"
       transform="matrix(0,1,1,0,0,0)" />
    <path
       style="opacity:0.98692812;color:#000000;fill:#4d4d4d;fill-opacity:1;fill-rule:nonzero;stroke:none;stroke-width:4;marker:none;visibility:visible;display:inline;overflow:visible;enable-background:accumulate"
       d="m 430.71429,541.88449 2,2 0,-3.09375 1,0 0,3.09375 2,-2 0,1.40625 -2.28125,2.3125 -0.21875,0.1875 -0.21875,-0.1875 -2.28125,-2.3125 0,-1.40625 z"
       id="rect3016"
       inkscape:connector-curvature="0" />
    <rect
       style="fill:#4d4d4d;fill-opacity:1;stroke:none"
       id="rect4035-2"
       width="0"
       height="10.999983"
       x="533.5564"
       y="439.68924"
       transform="matrix(0,1,1,0,0,0)" />
    <rect
       style="fill:#4d4d4d;fill-opacity:1;stroke:none"
       id="rect4035-5-0"
       width="0"
       height="10.999983"
       x="551.59717"
       y="437.63791"
       transform="matrix(0,1,1,0,0,0)" />
    <rect
       style="fill:#4d4d4d;fill-opacity:1;stroke:none"
       id="rect4035-8-1"
       width="0"
       height="10.999983"
       x="533.5564"
       y="439.68924"
       transform="matrix(0,1,1,0,0,0)" />
    <rect
       style="fill:#4d4d4d;fill-opacity:1;stroke:none"
       id="rect4035-59-7"
       width="0"
       height="10.999983"
       x="533.5564"
       y="439.68924"
       transform="matrix(0,1,1,0,0,0)" />
    <text
       sodipodi:linespacing="125%"
       id="text3781-41"
       y="452.4465"
       x="548.99237"
       style="font-size:9px;font-style:normal;font-weight:normal;line-height:125%;letter-spacing:0px;word-spacing:0px;fill:#4d4d4d;fill-opacity:1;stroke:none;font-family:Sans"
       xml:space="preserve"
       transform="matrix(0,1,1,0,0,0)"><tspan
         id="tspan3783-9"
         sodipodi:role="line"
         x="548.99237"
         y="452.4465" /></text>
    <text
       sodipodi:linespacing="125%"
       id="text3781-8-7"
       y="446.58316"
       x="549.72906"
       style="font-size:9px;font-style:normal;font-weight:normal;line-height:125%;letter-spacing:0px;word-spacing:0px;fill:#4d4d4d;fill-opacity:1;stroke:none;font-family:Sans"
       xml:space="preserve"
       transform="matrix(0,1,1,0,0,0)"><tspan
         id="tspan3783-1-2"
         sodipodi:role="line"
         x="549.72906"
         y="446.58316" /></text>
    <text
       sodipodi:linespacing="125%"
       id="text3781-4-3"
       y="453.4465"
       x="542.99237"
       style="font-size:9px;font-style:normal;font-weight:normal;line-height:125%;letter-spacing:0px;word-spacing:0px;fill:#4d4d4d;fill-opacity:1;stroke:none;font-family:Sans"
       xml:space="preserve"
       transform="matrix(0,1,1,0,0,0)"><tspan
         id="tspan3783-13-6"
         sodipodi:role="line"
         x="542.99237"
         y="453.4465" /></text>
    <rect
       style="fill:#4d4d4d;fill-opacity:1;stroke:none"
       id="rect4035-9-9"
       width="0"
       height="10.999983"
       x="533.5564"
       y="439.68924"
       transform="matrix(0,1,1,0,0,0)" />
    <rect
       style="fill:#4d4d4d;fill-opacity:1;stroke:none"
       id="rect4035-5-7-9"
       width="0"
       height="10.999983"
       x="551.59717"
       y="437.63791"
       transform="matrix(0,1,1,0,0,0)" />
    <rect
       style="fill:#4d4d4d;fill-opacity:1;stroke:none"
       id="rect4035-9-0-5"
       width="0"
       height="10.999983"
       x="513.5564"
       y="439.68924"
       transform="matrix(0,1,1,0,0,0)" />
    <rect
       style="fill:#4d4d4d;fill-opacity:1;stroke:none"
       id="rect4035-5-7-5-3"
       width="0"
       height="10.999983"
       x="531.59717"
       y="437.63791"
       transform="matrix(0,1,1,0,0,0)" />
    <path
       style="color:#000000;fill:#4d4d4d;fill-opacity:1;fill-rule:nonzero;stroke:none;stroke-width:2;marker:none;visibility:visible;display:inline;overflow:visible;enable-background:accumulate"
       d="m 423.71429,533.79074 12,0 0,1 0,2 0,4 -1,0 0,-4 0,-2 -3,0 0,2 -1,0 0,-2 -2,0 0,2 -1,0 0,-2 -3,0 0,2 0,6 0,2 3,0 0,-2 1,0 0,2 2,0 0,1 -7,0 0,-1 0,-2 0,-6 0,-2 0,-1 z"
       id="rect6826-6-6"
       inkscape:connector-curvature="0" />
    <path
       inkscape:connector-curvature="0"
       style="fill:#1d99f3;fill-opacity:1;stroke:none"
       d="m 424.71429,536.79074 10,0 0,1.71875 -3.28125,3.28125 c -0.001,0.0181 -1,1 -1,1 l -4,0 -1.71875,0 0,-1 1.28125,0 4,-4 -2.5625,0 -2.71875,2.71875 0,-1.4375 1.28125,-1.28125 -1.28125,0 z m 2.71875,5 2.5625,0 4,-4 -2.5625,0 z"
       id="rect4197"
       sodipodi:nodetypes="ccccccccccccccccccccc" />
  </g>
</svg>
