<?xml version="1.0" encoding="UTF-8" standalone="no"?>
<!-- Created with Inkscape (http://www.inkscape.org/) -->

<svg
   xmlns:dc="http://purl.org/dc/elements/1.1/"
   xmlns:cc="http://creativecommons.org/ns#"
   xmlns:rdf="http://www.w3.org/1999/02/22-rdf-syntax-ns#"
   xmlns:svg="http://www.w3.org/2000/svg"
   xmlns="http://www.w3.org/2000/svg"
   xmlns:sodipodi="http://sodipodi.sourceforge.net/DTD/sodipodi-0.dtd"
   xmlns:inkscape="http://www.inkscape.org/namespaces/inkscape"
   width="16"
   height="16"
   id="svg3049"
   version="1.1"
   inkscape:version="0.48.4 r9939"
   sodipodi:docname="sx10728.svg"
   inkscape:export-filename="/home/uri/.kde/share/icons/NITRUX-KDE/16x16/actions/view-right-new.png"
   inkscape:export-xdpi="30"
   inkscape:export-ydpi="30">
  <defs
     id="defs3051" />
  <sodipodi:namedview
     id="base"
     pagecolor="#ffffff"
     bordercolor="#666666"
     borderopacity="1.0"
     inkscape:pageopacity="0.0"
     inkscape:pageshadow="2"
     inkscape:zoom="64"
     inkscape:cx="5.8333562"
     inkscape:cy="8.1488829"
     inkscape:document-units="px"
     inkscape:current-layer="layer1"
     showgrid="true"
     fit-margin-top="0"
     fit-margin-left="0"
     fit-margin-right="0"
     fit-margin-bottom="0"
     inkscape:window-width="1868"
     inkscape:window-height="1060"
     inkscape:window-x="50"
     inkscape:window-y="-3"
     inkscape:window-maximized="1"
     inkscape:showpageshadow="false"
     borderlayer="true"
     inkscape:snap-bbox="true"
     inkscape:snap-global="true">
    <inkscape:grid
       type="xygrid"
       id="grid4085" />
    <sodipodi:guide
       position="2.0000044,14.00003"
       orientation="12,0"
       id="guide4075" />
    <sodipodi:guide
       position="2.0000044,2.0000296"
       orientation="0,12"
       id="guide4077" />
    <sodipodi:guide
       position="14,9"
       orientation="-12,0"
       id="guide4079" />
    <sodipodi:guide
       position="14.000004,14.00003"
       orientation="0,-12"
       id="guide4081" />
  </sodipodi:namedview>
  <metadata
     id="metadata3054">
    <rdf:RDF>
      <cc:Work
         rdf:about="">
        <dc:format>image/svg+xml</dc:format>
        <dc:type
           rdf:resource="http://purl.org/dc/dcmitype/StillImage" />
        <dc:title />
      </cc:Work>
    </rdf:RDF>
  </metadata>
  <g
     inkscape:label="Capa 1"
     inkscape:groupmode="layer"
     id="layer1"
     transform="translate(-421.71429,-531.79074)">
    <path
       style="font-size:13px;font-style:normal;font-variant:normal;font-weight:normal;font-stretch:normal;line-height:125%;letter-spacing:0px;word-spacing:0px;fill:#4d4d4d;fill-opacity:1;stroke:none;font-family:Oxygen;-inkscape-font-specification:Oxygen"
       d="m 428.69092,533.79071 0,1.125 c -0.88228,0.0782 -1.57753,0.29086 -2.09346,0.6875 -0.56773,0.4322 -0.85046,1.07152 -0.85046,1.90625 0,1.16527 0.72962,1.92109 2.2243,2.28125 l 0.71962,0.1875 0,3.6875 c -0.92863,-0.0793 -1.79904,-0.27337 -2.61682,-0.65625 l -0.35981,0.90625 c 0.33262,0.19491 0.78672,0.3787 1.34113,0.53125 0.48654,0.12911 1.03466,0.18598 1.6355,0.21875 l 0,1.125 1.04674,0 0,-1.125 c 0.88951,-0.0684 1.60501,-0.32718 2.12617,-0.78125 0.55884,-0.48304 0.85045,-1.18273 0.85046,-2.09375 -1e-5,-0.73729 -0.20904,-1.2892 -0.62149,-1.6875 -0.4125,-0.40255 -1.03344,-0.69279 -1.83178,-0.875 l -0.52336,-0.125 0,-3.25 c 0.40357,0.0289 0.82387,0.0831 1.21027,0.1875 0.44353,0.11442 0.77617,0.26219 1.04674,0.40625 l 0.3271,-0.90625 c -0.67019,-0.39865 -1.52942,-0.63708 -2.58411,-0.6875 l 0,-1.0625 z m -0.22897,2.09375 c 0.0685,-0.011 0.15591,0.008 0.22897,0 l 0,2.96875 -0.29439,-0.0625 c -0.49232,-0.1144 -0.86378,-0.28389 -1.11214,-0.5 -0.24395,-0.22033 -0.35984,-0.51482 -0.35981,-0.875 -3e-5,-0.85645 0.50506,-1.36578 1.53737,-1.53125 z m 1.27571,4.3125 0.19626,0.0625 c 0.60318,0.14407 1.01677,0.33952 1.24298,0.59375 0.23064,0.25001 0.32709,0.59323 0.3271,1 -1e-5,1.13306 -0.58924,1.73476 -1.76634,1.84375 z"
       id="path2993"
       inkscape:connector-curvature="0"
       sodipodi:nodetypes="cccsccccccccccccccccccccccccccccccccccc" />
  </g>
</svg>
