<?xml version="1.0" encoding="UTF-8" standalone="no"?>
<!-- Created with Inkscape (http://www.inkscape.org/) -->

<svg
   xmlns:dc="http://purl.org/dc/elements/1.1/"
   xmlns:cc="http://creativecommons.org/ns#"
   xmlns:rdf="http://www.w3.org/1999/02/22-rdf-syntax-ns#"
   xmlns:svg="http://www.w3.org/2000/svg"
   xmlns="http://www.w3.org/2000/svg"
   xmlns:sodipodi="http://sodipodi.sourceforge.net/DTD/sodipodi-0.dtd"
   xmlns:inkscape="http://www.inkscape.org/namespaces/inkscape"
   width="32"
   height="32"
   id="svg3013"
   version="1.1"
   inkscape:version="0.91 r13725"
   sodipodi:docname="templates_32.svg">
  <defs
     id="defs3015" />
  <sodipodi:namedview
     id="base"
     pagecolor="#ffffff"
     bordercolor="#666666"
     borderopacity="1.0"
     inkscape:pageopacity="0.0"
     inkscape:pageshadow="2"
     inkscape:zoom="31.678384"
     inkscape:cx="16.098606"
     inkscape:cy="13.782999"
     inkscape:document-units="px"
     inkscape:current-layer="layer1"
     showgrid="true"
     inkscape:window-width="1920"
     inkscape:window-height="1021"
     inkscape:window-x="-4"
     inkscape:window-y="0"
     inkscape:window-maximized="1"
     inkscape:snap-bbox="true"
     inkscape:object-nodes="true">
    <inkscape:grid
       type="xygrid"
       id="grid3030"
       empspacing="5"
       visible="true"
       enabled="true"
       snapvisiblegridlinesonly="true" />
  </sodipodi:namedview>
  <metadata
     id="metadata3018">
    <rdf:RDF>
      <cc:Work
         rdf:about="">
        <dc:format>image/svg+xml</dc:format>
        <dc:type
           rdf:resource="http://purl.org/dc/dcmitype/StillImage" />
        <dc:title />
      </cc:Work>
    </rdf:RDF>
  </metadata>
  <g
     inkscape:label="Layer 1"
     inkscape:groupmode="layer"
     id="layer1"
     transform="translate(0,-1020.3622)">
    <rect
       style="fill:#22a7f0;fill-opacity:1;stroke:none"
       id="rect4035"
       width="0"
       height="14.666643"
       x="5.333333"
       y="1033.6956" />
    <path
       style="fill:#4d4d4d;fill-opacity:1;stroke:none"
       d="M 6 4 L 6 25 L 6 25.929688 L 6 26 L 6 27 L 6 28 L 17 28 L 18 28 L 18 26 L 17 26 L 8 26 L 8 25.943359 L 8 25 L 8 24 L 8 23.935547 L 7.9941406 23.935547 L 7.9941406 5.9941406 L 18.958984 5.9941406 L 18.958984 6 L 19 6 L 19 10.978516 L 23.943359 10.978516 L 23.943359 11 L 24 11 L 24 19 L 24 20 L 26 20 L 26 19 L 25.998047 19 L 26 12 L 26 9 L 21 4 L 20.080078 4.0136719 L 20.080078 4 L 18.708984 4 L 7.7441406 4 L 6 4 z "
       transform="translate(0,1020.3622)"
       id="rect4139" />
    <path
       style="fill:#4d4d4d;fill-opacity:1;stroke:none;stroke-width:1;stroke-linecap:round;stroke-miterlimit:4;stroke-dasharray:none;stroke-opacity:1"
       d="M 21 20 L 21 23 L 18 23 L 18 25 L 21 25 L 21 28 L 23 28 L 23 25 L 26 25 L 26 23 L 23 23 L 23 20 L 21 20 z "
       transform="translate(0,1020.3622)"
       id="rect4136" />
  </g>
</svg>
