<?xml version="1.0" encoding="UTF-8" standalone="no"?>
<!-- Created with Inkscape (http://www.inkscape.org/) -->

<svg
   xmlns:dc="http://purl.org/dc/elements/1.1/"
   xmlns:cc="http://creativecommons.org/ns#"
   xmlns:rdf="http://www.w3.org/1999/02/22-rdf-syntax-ns#"
   xmlns:svg="http://www.w3.org/2000/svg"
   xmlns="http://www.w3.org/2000/svg"
   xmlns:xlink="http://www.w3.org/1999/xlink"
   xmlns:sodipodi="http://sodipodi.sourceforge.net/DTD/sodipodi-0.dtd"
   xmlns:inkscape="http://www.inkscape.org/namespaces/inkscape"
   width="48"
   height="48"
   id="svg5453"
   version="1.1"
   inkscape:version="0.91 r"
   sodipodi:docname="skype.svg">
  <defs
     id="defs5455">
    <linearGradient
       id="linearGradient4143"
       inkscape:collect="always">
      <stop
         id="stop4145"
         offset="0"
         style="stop-color:#197cf1;stop-opacity:1" />
      <stop
         id="stop4147"
         offset="1"
         style="stop-color:#20bcfa;stop-opacity:1" />
    </linearGradient>
    <linearGradient
       gradientUnits="userSpaceOnUse"
       y2="517.79797"
       x2="400.57144"
       y1="545.79797"
       x1="400.57144"
       id="linearGradient4149"
       xlink:href="#linearGradient4143"
       inkscape:collect="always"
       gradientTransform="matrix(1.2857138,0,0,1.2857138,-491.02022,-659.74)" />
    <linearGradient
       inkscape:collect="always"
       id="linearGradient4290">
      <stop
         style="stop-color:#bddcfb;stop-opacity:1"
         offset="0"
         id="stop4292" />
      <stop
         style="stop-color:#dbf5ff;stop-opacity:1"
         offset="1"
         id="stop4294" />
    </linearGradient>
    <linearGradient
       inkscape:collect="always"
       xlink:href="#linearGradient4290"
       id="linearGradient4552"
       x1="25.23966"
       y1="38.004398"
       x2="24.711761"
       y2="9.9060526"
       gradientUnits="userSpaceOnUse"
       gradientTransform="translate(384.57143,499.798)" />
    <linearGradient
       inkscape:collect="always"
       id="linearGradient4227">
      <stop
         style="stop-color:#292c2f;stop-opacity:1"
         offset="0"
         id="stop4229" />
      <stop
         style="stop-color:#000000;stop-opacity:0;"
         offset="1"
         id="stop4231" />
    </linearGradient>
    <linearGradient
       inkscape:collect="always"
       xlink:href="#linearGradient4227"
       id="linearGradient4187"
       x1="12.745907"
       y1="12.154403"
       x2="40.419098"
       y2="40.934242"
       gradientUnits="userSpaceOnUse" />
    <linearGradient
       inkscape:collect="always"
       xlink:href="#linearGradient4227"
       id="linearGradient4196"
       x1="18.782812"
       y1="17.682087"
       x2="40.866657"
       y2="40.805935"
       gradientUnits="userSpaceOnUse" />
    <linearGradient
       inkscape:collect="always"
       xlink:href="#linearGradient4227-6"
       id="linearGradient4204"
       x1="407.69958"
       y1="531.8382"
       x2="408.03625"
       y2="516.05927"
       gradientUnits="userSpaceOnUse" />
    <linearGradient
       id="linearGradient4227-6">
      <stop
         offset="0"
         style="stop-color:#2e3436;stop-opacity:1"
         id="stop4229-1" />
      <stop
         offset="1"
         style="stop-color:#555753;stop-opacity:1"
         id="stop4231-7" />
    </linearGradient>
  </defs>
  <sodipodi:namedview
     id="base"
     pagecolor="#ffffff"
     bordercolor="#666666"
     borderopacity="1.0"
     inkscape:pageopacity="0"
     inkscape:pageshadow="2"
     inkscape:zoom="7.03"
     inkscape:cx="-19.851776"
     inkscape:cy="17.669692"
     inkscape:document-units="px"
     inkscape:current-layer="layer1"
     showgrid="false"
     fit-margin-top="0"
     fit-margin-left="0"
     fit-margin-right="0"
     fit-margin-bottom="0"
     inkscape:window-width="1600"
     inkscape:window-height="846"
     inkscape:window-x="0"
     inkscape:window-y="26"
     inkscape:window-maximized="1"
     inkscape:showpageshadow="false"
     borderlayer="true"
     showguides="false"
     inkscape:snap-bbox="true"
     inkscape:object-nodes="false"
     inkscape:snap-others="false"
     inkscape:snap-nodes="false">
    <inkscape:grid
       type="xygrid"
       id="grid4063" />
    <sodipodi:guide
       position="1.1650391e-05,47.999996"
       orientation="4,0"
       id="guide4146" />
    <sodipodi:guide
       position="1.1650391e-05,43.999996"
       orientation="0,48"
       id="guide4148" />
    <sodipodi:guide
       position="48.000012,43.999996"
       orientation="-4,0"
       id="guide4150" />
    <sodipodi:guide
       position="1.1650391e-05,4.0000264"
       orientation="4,0"
       id="guide4154" />
    <sodipodi:guide
       position="1.1650391e-05,2.6367188e-05"
       orientation="0,48"
       id="guide4156" />
    <sodipodi:guide
       position="48.000012,2.6367188e-05"
       orientation="-4,0"
       id="guide4158" />
    <sodipodi:guide
       position="48.000012,4.0000264"
       orientation="0,-48"
       id="guide4160" />
    <sodipodi:guide
       position="48.000012,48.000026"
       orientation="0,-4"
       id="guide4162" />
    <sodipodi:guide
       position="44.000012,48.000026"
       orientation="48,0"
       id="guide4164" />
    <sodipodi:guide
       position="44.000012,2.6367188e-05"
       orientation="0,4"
       id="guide4166" />
    <sodipodi:guide
       position="48.000012,2.6367188e-05"
       orientation="-48,0"
       id="guide4168" />
    <sodipodi:guide
       position="4.0000422,48.000026"
       orientation="0,-4"
       id="guide4170" />
    <sodipodi:guide
       position="4.2167969e-05,48.000026"
       orientation="48,0"
       id="guide4172" />
    <sodipodi:guide
       position="4.2167969e-05,2.6367188e-05"
       orientation="0,4"
       id="guide4174" />
    <sodipodi:guide
       position="4.0000422,2.6367188e-05"
       orientation="-48,0"
       id="guide4176" />
    <sodipodi:guide
       position="65,30"
       orientation="0,14"
       id="guide4890" />
    <sodipodi:guide
       position="24,29"
       orientation="-13.999969,0"
       id="guide4892" />
    <sodipodi:guide
       position="22.000012,43.999996"
       orientation="0,-14"
       id="guide4894" />
    <sodipodi:guide
       position="16.000012,25.000271"
       orientation="16,0"
       id="guide4499" />
    <sodipodi:guide
       position="16.000012,9.0002705"
       orientation="0,16"
       id="guide4501" />
    <sodipodi:guide
       position="32.000012,9.0002705"
       orientation="-16,0"
       id="guide4503" />
    <sodipodi:guide
       position="32.000012,25.000271"
       orientation="0,-16"
       id="guide4505" />
  </sodipodi:namedview>
  <metadata
     id="metadata5458">
    <rdf:RDF>
      <cc:Work
         rdf:about="">
        <dc:format>image/svg+xml</dc:format>
        <dc:type
           rdf:resource="http://purl.org/dc/dcmitype/StillImage" />
        <dc:title />
      </cc:Work>
    </rdf:RDF>
  </metadata>
  <g
     inkscape:label="Capa 1"
     inkscape:groupmode="layer"
     id="layer1"
     transform="translate(-384.57143,-499.798)">
    <path
       style="opacity:1;fill:url(#linearGradient4149);fill-opacity:1;stroke:none"
       d="M 14 4 C 8.46001 4 4 8.46001 4 14 C 4 15.996067 4.589282 17.843762 5.5898438 19.400391 A 19 19 0 0 0 5 24 A 19 19 0 0 0 24 43 A 19 19 0 0 0 28.603516 42.414062 C 30.159211 43.412836 32.005876 44 34 44 C 39.53999 44 44 39.53998 44 34 C 44 32.003933 43.410718 30.15624 42.410156 28.599609 A 19 19 0 0 0 43 24 A 19 19 0 0 0 24 5 A 19 19 0 0 0 19.394531 5.5859375 C 17.839121 4.58771 15.993534 4 14 4 z "
       transform="translate(384.57143,499.798)"
       id="rect4130" />
    <path
       inkscape:connector-curvature="0"
       id="path4453"
       d="M 408.32743,515.9635"
       style="fill:#ffffff;fill-opacity:1;fill-rule:nonzero;stroke:none" />
    <path
       style="opacity:0.2;fill:url(#linearGradient4187);fill-opacity:1;stroke:none;stroke-width:1;stroke-linecap:round;stroke-linejoin:round;stroke-miterlimit:4;stroke-dasharray:none;stroke-opacity:1"
       d="M 18.697266 12.404297 L 12.613281 22.730469 L 14.763672 33.236328 L 24.5 42.972656 A 19 19 0 0 0 28.603516 42.414062 C 30.159211 43.412836 32.005876 44 34 44 C 39.53999 44 44 39.53998 44 34 C 44 32.003933 43.410718 30.15624 42.410156 28.599609 A 19 19 0 0 0 42.982422 24.619141 L 32.982422 14.619141 L 18.697266 12.404297 z "
       transform="translate(384.57143,499.798)"
       id="rect4175" />
    <path
       style="opacity:1;fill:url(#linearGradient4552);fill-opacity:1;stroke:none;stroke-width:1;stroke-linecap:round;stroke-linejoin:round;stroke-miterlimit:4;stroke-dasharray:none;stroke-opacity:1"
       d="m 402.57143,509.798 a 8,8 0 0 0 -8,8 8,8 0 0 0 1.15234,4.12109 13,13 0 0 0 -0.15234,1.87891 13,13 0 0 0 13,13 13,13 0 0 0 1.88477,-0.15039 8,8 0 0 0 4.11523,1.15039 8,8 0 0 0 8,-8 8,8 0 0 0 -1.15234,-4.12109 13,13 0 0 0 0.15234,-1.87891 13,13 0 0 0 -13,-13 13,13 0 0 0 -1.88477,0.15039 8,8 0 0 0 -4.11523,-1.15039 z"
       id="path4208" />
    <path
       style="opacity:0.2;fill:url(#linearGradient4196);fill-opacity:1;stroke:none;stroke-width:1;stroke-linecap:round;stroke-linejoin:round;stroke-miterlimit:4;stroke-dasharray:none;stroke-opacity:1"
       d="M 21.03125 17.207031 C 21.0187 17.34352 19.023673 18.531846 19.613281 20.728516 L 18.347656 19.957031 L 18.251953 23.046875 L 25.111328 29.90625 C 24.49298 29.93119 23.936965 29.9244 23.666016 29.9375 C 22.458442 29.99591 18.660792 26.702294 18.878906 28.316406 L 18.318359 29.748047 L 32.445312 43.875 C 32.951949 43.954711 33.469819 44 34 44 C 39.53999 44 44 39.53998 44 34 C 44 33.566904 43.967729 33.142278 43.914062 32.724609 L 28.931641 17.742188 L 21.03125 17.207031 z "
       transform="translate(384.57143,499.798)"
       id="rect4178" />
    <path
       style="opacity:1;fill:url(#linearGradient4204);fill-opacity:1.0;stroke:none;stroke-width:1;stroke-linecap:round;stroke-linejoin:round;stroke-miterlimit:4;stroke-dasharray:none;stroke-opacity:1"
       d="m 408.32534,515.798 c 3.94706,0 5.98437,2.08481 5.98437,3.30859 0,1.22786 -0.58791,1.41211 -1.55664,1.41211 -1.88255,0 -1.11244,-2.26953 -4.63867,-2.26953 -1.16693,0 -2.625,0.53483 -2.625,1.89844 0,1.0962 1.29132,1.49816 3.57031,2.06055 3.43475,0.92064 6.01172,1.83831 6.01172,4.99218 0,3.062 -2.49434,4.59766 -6.44141,4.59766 -3.94707,0 -6.46679,-2.3602 -6.46679,-3.58398 0,-1.22378 0.46487,-1.53125 1.43359,-1.53125 1.8856,0 1.63002,2.57421 5.15625,2.57421 1.17101,0 2.90039,-0.53269 2.90039,-1.90039 0,-1.09211 -0.0922,-1.47182 -2.59375,-2.14648 -2.67238,-0.36234 -6.98828,-1.23094 -6.98828,-4.56445 0,-3.062 2.31074,-4.84375 6.25781,-4.84375 l -0.004,-0.004 z"
       id="path4172" />
  </g>
</svg>
