<?xml version="1.0" encoding="UTF-8" standalone="no"?>
<!-- Created with Inkscape (http://www.inkscape.org/) -->

<svg
   xmlns:dc="http://purl.org/dc/elements/1.1/"
   xmlns:cc="http://creativecommons.org/ns#"
   xmlns:rdf="http://www.w3.org/1999/02/22-rdf-syntax-ns#"
   xmlns:svg="http://www.w3.org/2000/svg"
   xmlns="http://www.w3.org/2000/svg"
   xmlns:xlink="http://www.w3.org/1999/xlink"
   xmlns:sodipodi="http://sodipodi.sourceforge.net/DTD/sodipodi-0.dtd"
   xmlns:inkscape="http://www.inkscape.org/namespaces/inkscape"
   width="48"
   height="48"
   id="svg5453"
   version="1.1"
   inkscape:version="0.91 r"
   sodipodi:docname="skype.svg">
  <defs
     id="defs5455">
    <linearGradient
       id="linearGradient4143"
       inkscape:collect="always">
      <stop
         id="stop4145"
         offset="0"
         style="stop-color:#197cf1;stop-opacity:1" />
      <stop
         id="stop4147"
         offset="1"
         style="stop-color:#20bcfa;stop-opacity:1" />
    </linearGradient>
    <linearGradient
       gradientUnits="userSpaceOnUse"
       y2="517.79797"
       x2="400.57144"
       y1="545.79797"
       x1="400.57144"
       id="linearGradient4149"
       xlink:href="#linearGradient4143"
       inkscape:collect="always"
       gradientTransform="matrix(1.2857138,0,0,1.2857138,-491.02022,-659.74)" />
    <linearGradient
       inkscape:collect="always"
       id="linearGradient4227">
      <stop
         style="stop-color:#292c2f;stop-opacity:1"
         offset="0"
         id="stop4229" />
      <stop
         style="stop-color:#000000;stop-opacity:0;"
         offset="1"
         id="stop4231" />
    </linearGradient>
    <linearGradient
       inkscape:collect="always"
       xlink:href="#linearGradient4290"
       id="linearGradient4204"
       x1="407.69958"
       y1="531.8382"
       x2="408.03625"
       y2="516.05927"
       gradientUnits="userSpaceOnUse"
       gradientTransform="matrix(1.5384616,0,0,1.4999916,-220.00001,-261.89451)" />
    <linearGradient
       inkscape:collect="always"
       id="linearGradient4290">
      <stop
         style="stop-color:#7cbaf8;stop-opacity:1"
         offset="0"
         id="stop4292" />
      <stop
         style="stop-color:#f4fcff;stop-opacity:1"
         offset="1"
         id="stop4294" />
    </linearGradient>
    <linearGradient
       inkscape:collect="always"
       xlink:href="#linearGradient4227"
       id="linearGradient4304"
       x1="16.064659"
       y1="13.77837"
       x2="40.53577"
       y2="41.261272"
       gradientUnits="userSpaceOnUse" />
  </defs>
  <sodipodi:namedview
     id="base"
     pagecolor="#ffffff"
     bordercolor="#666666"
     borderopacity="1.0"
     inkscape:pageopacity="0"
     inkscape:pageshadow="2"
     inkscape:zoom="4.04"
     inkscape:cx="33.578385"
     inkscape:cy="13.050717"
     inkscape:document-units="px"
     inkscape:current-layer="layer1"
     showgrid="false"
     fit-margin-top="0"
     fit-margin-left="0"
     fit-margin-right="0"
     fit-margin-bottom="0"
     inkscape:window-width="1600"
     inkscape:window-height="846"
     inkscape:window-x="0"
     inkscape:window-y="26"
     inkscape:window-maximized="1"
     inkscape:showpageshadow="false"
     borderlayer="true"
     showguides="false"
     inkscape:snap-bbox="true"
     inkscape:object-nodes="false"
     inkscape:snap-others="false"
     inkscape:snap-nodes="false">
    <inkscape:grid
       type="xygrid"
       id="grid4063" />
    <sodipodi:guide
       position="1.1650391e-05,47.999996"
       orientation="4,0"
       id="guide4146" />
    <sodipodi:guide
       position="1.1650391e-05,43.999996"
       orientation="0,48"
       id="guide4148" />
    <sodipodi:guide
       position="48.000012,43.999996"
       orientation="-4,0"
       id="guide4150" />
    <sodipodi:guide
       position="1.1650391e-05,4.0000264"
       orientation="4,0"
       id="guide4154" />
    <sodipodi:guide
       position="1.1650391e-05,2.6367188e-05"
       orientation="0,48"
       id="guide4156" />
    <sodipodi:guide
       position="48.000012,2.6367188e-05"
       orientation="-4,0"
       id="guide4158" />
    <sodipodi:guide
       position="48.000012,4.0000264"
       orientation="0,-48"
       id="guide4160" />
    <sodipodi:guide
       position="48.000012,48.000026"
       orientation="0,-4"
       id="guide4162" />
    <sodipodi:guide
       position="44.000012,48.000026"
       orientation="48,0"
       id="guide4164" />
    <sodipodi:guide
       position="44.000012,2.6367188e-05"
       orientation="0,4"
       id="guide4166" />
    <sodipodi:guide
       position="48.000012,2.6367188e-05"
       orientation="-48,0"
       id="guide4168" />
    <sodipodi:guide
       position="4.0000422,48.000026"
       orientation="0,-4"
       id="guide4170" />
    <sodipodi:guide
       position="4.2167969e-05,48.000026"
       orientation="48,0"
       id="guide4172" />
    <sodipodi:guide
       position="4.2167969e-05,2.6367188e-05"
       orientation="0,4"
       id="guide4174" />
    <sodipodi:guide
       position="4.0000422,2.6367188e-05"
       orientation="-48,0"
       id="guide4176" />
    <sodipodi:guide
       position="65,30"
       orientation="0,14"
       id="guide4890" />
    <sodipodi:guide
       position="24,29"
       orientation="-13.999969,0"
       id="guide4892" />
    <sodipodi:guide
       position="22.000012,43.999996"
       orientation="0,-14"
       id="guide4894" />
    <sodipodi:guide
       position="16.000012,25.000271"
       orientation="16,0"
       id="guide4499" />
    <sodipodi:guide
       position="16.000012,9.0002705"
       orientation="0,16"
       id="guide4501" />
    <sodipodi:guide
       position="32.000012,9.0002705"
       orientation="-16,0"
       id="guide4503" />
    <sodipodi:guide
       position="32.000012,25.000271"
       orientation="0,-16"
       id="guide4505" />
  </sodipodi:namedview>
  <metadata
     id="metadata5458">
    <rdf:RDF>
      <cc:Work
         rdf:about="">
        <dc:format>image/svg+xml</dc:format>
        <dc:type
           rdf:resource="http://purl.org/dc/dcmitype/StillImage" />
        <dc:title />
      </cc:Work>
    </rdf:RDF>
  </metadata>
  <g
     inkscape:label="Capa 1"
     inkscape:groupmode="layer"
     id="layer1"
     transform="translate(-384.57143,-499.798)">
    <path
       style="opacity:1;fill:url(#linearGradient4149);fill-opacity:1;stroke:none"
       d="M 14 4 C 8.46001 4 4 8.46001 4 14 C 4 15.996067 4.589282 17.843762 5.5898438 19.400391 A 19 19 0 0 0 5 24 A 19 19 0 0 0 24 43 A 19 19 0 0 0 28.603516 42.414062 C 30.159211 43.412836 32.005876 44 34 44 C 39.53999 44 44 39.53998 44 34 C 44 32.003933 43.410718 30.15624 42.410156 28.599609 A 19 19 0 0 0 43 24 A 19 19 0 0 0 24 5 A 19 19 0 0 0 19.394531 5.5859375 C 17.839121 4.58771 15.993534 4 14 4 z "
       transform="translate(384.57143,499.798)"
       id="rect4130" />
    <path
       inkscape:connector-curvature="0"
       id="path4453"
       d="M 408.32743,515.9635"
       style="fill:#ffffff;fill-opacity:1;fill-rule:nonzero;stroke:none" />
    <path
       style="opacity:0.2;fill:url(#linearGradient4304);fill-opacity:1;stroke:none;stroke-width:4;stroke-linecap:round;stroke-linejoin:round;stroke-miterlimit:4;stroke-dasharray:none;stroke-opacity:1"
       d="M 19.039062 13.580078 L 17.892578 19.943359 L 18.421875 20.287109 L 15.050781 18.865234 L 15.222656 22.5 L 25.867188 33.146484 L 24.025391 33.695312 L 15.025391 30.990234 L 15.037109 32.501953 L 25.455078 42.919922 A 19 19 0 0 0 28.603516 42.414062 C 30.159211 43.412836 32.005876 44 34 44 C 39.53999 44 44 39.53998 44 34 C 44 32.003933 43.410718 30.15624 42.410156 28.599609 A 19 19 0 0 0 42.863281 25.972656 L 31.40625 14.515625 L 19.039062 13.580078 z "
       transform="translate(384.57143,499.798)"
       id="rect4285" />
    <path
       style="opacity:1;fill:url(#linearGradient4204);fill-opacity:1.0;stroke:none;stroke-width:1;stroke-linecap:round;stroke-linejoin:round;stroke-miterlimit:4;stroke-dasharray:none;stroke-opacity:1"
       d="m 408.19283,511.79813 c 6.0724,0 9.20673,3.1272 9.20673,4.96286 0,1.84178 -0.90448,2.11816 -2.39484,2.11816 -2.89623,0 -1.71144,-3.40428 -7.13642,-3.40428 -1.79527,0 -4.03845,0.80224 -4.03845,2.84764 0,1.64429 1.98665,2.24723 5.49278,3.09081 5.28423,1.38095 9.2488,2.75745 9.2488,7.48823 0,4.59297 -3.83745,6.89645 -9.90986,6.89645 -6.07241,0 -9.94891,-3.54028 -9.94891,-5.37594 0,-1.83566 0.71519,-2.29686 2.20552,-2.29686 2.90094,0 2.50773,3.86129 7.93269,3.86129 1.80156,0 4.46214,-0.79903 4.46214,-2.85057 0,-1.63815 -0.14185,-2.20772 -3.99038,-3.2197 -4.11136,-0.54351 -10.7512,-1.8464 -10.7512,-6.84664 0,-4.59297 3.55498,-7.26558 9.6274,-7.26558 l -0.006,-0.006 z"
       id="path4172"
       inkscape:connector-curvature="0" />
  </g>
</svg>
