<?xml version="1.0" encoding="UTF-8" standalone="no"?>
<!-- Created with Inkscape (http://www.inkscape.org/) -->

<svg
   xmlns:dc="http://purl.org/dc/elements/1.1/"
   xmlns:cc="http://creativecommons.org/ns#"
   xmlns:rdf="http://www.w3.org/1999/02/22-rdf-syntax-ns#"
   xmlns:svg="http://www.w3.org/2000/svg"
   xmlns="http://www.w3.org/2000/svg"
   xmlns:xlink="http://www.w3.org/1999/xlink"
   xmlns:sodipodi="http://sodipodi.sourceforge.net/DTD/sodipodi-0.dtd"
   xmlns:inkscape="http://www.inkscape.org/namespaces/inkscape"
   width="48"
   height="48"
   id="svg5453"
   version="1.1"
   inkscape:version="0.91 r"
   sodipodi:docname="viber.svg">
  <defs
     id="defs5455">
    <linearGradient
       id="linearGradient4294"
       inkscape:collect="always">
      <stop
         id="stop4296"
         offset="0"
         style="stop-color:#e5c2e7;stop-opacity:1" />
      <stop
         id="stop4298"
         offset="1"
         style="stop-color:#f5e0f7;stop-opacity:1" />
    </linearGradient>
    <linearGradient
       inkscape:collect="always"
       xlink:href="#linearGradient4300-1"
       id="linearGradient4416"
       x1="26"
       y1="43.999973"
       x2="26"
       y2="4"
       gradientUnits="userSpaceOnUse"
       gradientTransform="translate(384.57143,499.798)" />
    <linearGradient
       inkscape:collect="always"
       id="linearGradient4300-1">
      <stop
         style="stop-color:#8e44ad;stop-opacity:1"
         offset="0"
         id="stop4302-0" />
      <stop
         style="stop-color:#9b59b6;stop-opacity:1"
         offset="1"
         id="stop4304-6" />
    </linearGradient>
    <linearGradient
       inkscape:collect="always"
       xlink:href="#linearGradient4294"
       id="linearGradient4292"
       x1="408.29895"
       y1="529.84167"
       x2="408.04187"
       y2="507.798"
       gradientUnits="userSpaceOnUse" />
    <linearGradient
       id="linearGradient4227"
       inkscape:collect="always">
      <stop
         id="stop4229"
         offset="0"
         style="stop-color:#292c2f;stop-opacity:1" />
      <stop
         id="stop4231"
         offset="1"
         style="stop-color:#000000;stop-opacity:0;" />
    </linearGradient>
    <linearGradient
       inkscape:collect="always"
       xlink:href="#linearGradient4227"
       id="linearGradient4326"
       x1="15.024096"
       y1="10.819396"
       x2="39.020618"
       y2="34.512878"
       gradientUnits="userSpaceOnUse"
       gradientTransform="translate(384.57143,499.798)" />
    <linearGradient
       inkscape:collect="always"
       xlink:href="#linearGradient4227"
       id="linearGradient4345"
       x1="24.918299"
       y1="8.8365154"
       x2="44"
       y2="28.608919"
       gradientUnits="userSpaceOnUse"
       gradientTransform="translate(384.57143,499.798)" />
  </defs>
  <sodipodi:namedview
     id="base"
     pagecolor="#ffffff"
     bordercolor="#666666"
     borderopacity="1.0"
     inkscape:pageopacity="0"
     inkscape:pageshadow="2"
     inkscape:zoom="4.64"
     inkscape:cx="24.93062"
     inkscape:cy="17.530902"
     inkscape:document-units="px"
     inkscape:current-layer="layer1"
     showgrid="false"
     fit-margin-top="0"
     fit-margin-left="0"
     fit-margin-right="0"
     fit-margin-bottom="0"
     inkscape:window-width="1600"
     inkscape:window-height="846"
     inkscape:window-x="0"
     inkscape:window-y="26"
     inkscape:window-maximized="1"
     inkscape:showpageshadow="false"
     borderlayer="true"
     showguides="false"
     inkscape:snap-to-guides="false"
     inkscape:snap-others="false"
     inkscape:snap-nodes="false"
     inkscape:snap-global="false">
    <inkscape:grid
       type="xygrid"
       id="grid4063" />
    <sodipodi:guide
       position="1.1650391e-05,47.999996"
       orientation="4,0"
       id="guide4146" />
    <sodipodi:guide
       position="1.1650391e-05,43.999996"
       orientation="0,48"
       id="guide4148" />
    <sodipodi:guide
       position="48.000012,43.999996"
       orientation="-4,0"
       id="guide4150" />
    <sodipodi:guide
       position="48.000012,47.999996"
       orientation="0,-48"
       id="guide4152" />
    <sodipodi:guide
       position="1.1650391e-05,4.0000264"
       orientation="4,0"
       id="guide4154" />
    <sodipodi:guide
       position="1.1650391e-05,2.6367188e-05"
       orientation="0,48"
       id="guide4156" />
    <sodipodi:guide
       position="48.000012,2.6367188e-05"
       orientation="-4,0"
       id="guide4158" />
    <sodipodi:guide
       position="48.000012,4.0000264"
       orientation="0,-48"
       id="guide4160" />
    <sodipodi:guide
       position="48.000012,48.000026"
       orientation="0,-4"
       id="guide4162" />
    <sodipodi:guide
       position="44.000012,48.000026"
       orientation="48,0"
       id="guide4164" />
    <sodipodi:guide
       position="44.000012,2.6367188e-05"
       orientation="0,4"
       id="guide4166" />
    <sodipodi:guide
       position="48.000012,2.6367188e-05"
       orientation="-48,0"
       id="guide4168" />
    <sodipodi:guide
       position="4.0000422,48.000026"
       orientation="0,-4"
       id="guide4170" />
    <sodipodi:guide
       position="4.2167969e-05,48.000026"
       orientation="48,0"
       id="guide4172" />
    <sodipodi:guide
       position="4.2167969e-05,2.6367188e-05"
       orientation="0,4"
       id="guide4174" />
    <sodipodi:guide
       position="4,7"
       orientation="-48,0"
       id="guide4176" />
    <sodipodi:guide
       position="4.0000422,43.999996"
       orientation="29.999969,0"
       id="guide4437" />
    <sodipodi:guide
       position="4.0000422,14.000026"
       orientation="0,39.999969"
       id="guide4439" />
    <sodipodi:guide
       position="44.000012,14.000026"
       orientation="-29.999969,0"
       id="guide4441" />
    <sodipodi:guide
       position="44.000012,43.999996"
       orientation="0,-39.999969"
       id="guide4443" />
  </sodipodi:namedview>
  <metadata
     id="metadata5458">
    <rdf:RDF>
      <cc:Work
         rdf:about="">
        <dc:format>image/svg+xml</dc:format>
        <dc:type
           rdf:resource="http://purl.org/dc/dcmitype/StillImage" />
        <dc:title></dc:title>
      </cc:Work>
    </rdf:RDF>
  </metadata>
  <g
     inkscape:label="Capa 1"
     inkscape:groupmode="layer"
     id="layer1"
     transform="translate(-384.57143,-499.798)">
    <g
       id="g4357">
      <path
         id="path4445"
         d="m 388.57143,503.798 0,30 20,0 11,10 0,-10 9,0 0,-30 -40,0 z"
         style="fill:url(#linearGradient4416);fill-opacity:1;fill-rule:evenodd;stroke:none;stroke-width:1px;stroke-linecap:butt;stroke-linejoin:miter;stroke-opacity:1"
         inkscape:connector-curvature="0" />
      <path
         id="rect4300"
         d="m 402.09291,510.09487 -2.29882,1.21485 -0.0352,5.83594 3.72851,6.50586 16.08399,16.08398 0,-5.9375 6.22656,0 -23.70508,-23.70313 z"
         style="opacity:0.2;fill:url(#linearGradient4326);fill-opacity:1;stroke:none;stroke-width:1;stroke-linecap:round;stroke-linejoin:round;stroke-miterlimit:4;stroke-dasharray:none;stroke-opacity:1"
         inkscape:connector-curvature="0" />
      <path
         id="rect4328"
         d="m 410.57729,508.45034 -0.71289,0.89844 5.25,5.25 -2.70508,-1.89844 -2.77734,0.36328 18.93945,18.94141 0,-10.04297 -11.68359,-11.68164 -2.33594,-1.06836 -3.97461,-0.76172 z"
         style="opacity:0.2;fill:url(#linearGradient4345);fill-opacity:1;stroke:none;stroke-width:1;stroke-linecap:round;stroke-linejoin:round;stroke-miterlimit:4;stroke-dasharray:none;stroke-opacity:1"
         inkscape:connector-curvature="0" />
      <path
         inkscape:connector-curvature="0"
         id="path4341"
         style="color:#000000;text-indent:0;text-decoration:none;text-decoration-line:none;text-decoration-style:solid;text-decoration-color:#000000;text-transform:none;block-progression:tb;white-space:normal;isolation:auto;mix-blend-mode:normal;solid-color:#000000;fill:url(#linearGradient4292);fill-opacity:1;color-rendering:auto;image-rendering:auto;shape-rendering:auto"
         d="m 410.45995,507.79816 c -0.48314,0 -0.88408,0.38589 -0.88867,0.85352 -0.003,0.46975 0.39819,0.86478 0.88477,0.86719 2.0999,0.0158 3.8265,0.67944 5.2188,1.9883 1.3759,1.2967 2.0931,3.0932 2.1113,5.4375 l 0,0.002 c 0.005,0.46636 0.40622,0.85152 0.89062,0.85152 5e-5,0 0.009,-0.002 0.01,-0.002 0.4855,-0.004 0.88869,-0.3959 0.88477,-0.86524 l 0,-0.002 c -0.0113,-1.3664 -0.23344,-2.6227 -0.668,-3.7284 -0.4398,-1.1171 -1.1083,-2.1056 -1.9805,-2.9277 -1.7225,-1.6199 -3.9228,-2.4567 -6.4551,-2.4746 l -0.008,0 z m -9.0195,2.0215 c -0.3388,-0.0576 -0.7058,0.005 -1.0723,0.18164 l -0.0293,0 -0.041,0.0234 c -0.67914,0.38604 -1.3158,0.90359 -1.9121,1.5527 l -0.0469,0.0508 0,0.0469 c -0.41259,0.51439 -0.6853,1.0321 -0.74805,1.5508 -0.02,0.0879 -0.0195,0.16714 -0.0195,0.25196 0,0.23596 0.0347,0.47576 0.10742,0.71094 l 0.0195,0.0664 0.041,0.0234 c 0.23553,0.80809 0.77,2.0657 1.9395,4.1953 0.77892,1.4115 1.5748,2.5906 2.3652,3.584 0.41639,0.5221 0.88808,1.0657 1.4355,1.6133 0.007,0.006 0.0296,0.0301 0.0547,0.0527 0.009,0.009 0.0209,0.0267 0.0508,0.0566 l 0.0547,0.0547 0.004,0 c 0.0193,0.0193 0.0323,0.0333 0.0352,0.0371 l 0.01,0.0117 0.01,0.01 c 0.54744,0.54148 1.0874,1.016 1.6152,1.4297 0.99189,0.79051 2.1707,1.5927 3.582,2.373 2.132,1.1762 3.4013,1.7078 4.2051,1.9395 l 0.0293,0.0352 0.0488,0.0176 c 0.2277,0.0759 0.46464,0.11096 0.69922,0.10742 0.0951,0.005 0.17939,-0.002 0.25976,-0.0195 0.55048,-0.0644 1.0955,-0.325 1.6348,-0.77734 l 0.006,-0.008 0.006,-0.004 c 0.008,-0.008 0.003,-0.004 0.008,-0.01 0.005,-0.004 0.007,-0.009 0.0117,-0.0137 0.63825,-0.58251 1.1534,-1.2161 1.541,-1.8945 l 0.0254,-0.043 0,-0.041 c 0.35599,-0.74129 0.21499,-1.4981 -0.36328,-1.9805 -0.0142,-0.0121 -0.29201,-0.2444 -0.63672,-0.52539 -0.35253,-0.28727 -0.77061,-0.62493 -1.0529,-0.83206 -0.53408,-0.39509 -1.3596,-0.90615 -1.8301,-1.168 l -0.002,0 c -0.90375,-0.50613 -1.8481,-0.21199 -2.2637,0.32617 l -0.72852,0.91211 c -0.29381,0.3702 -0.8809,0.33489 -0.89648,0.33398 -4.9414,-1.2713 -6.2699,-6.24 -6.2793,-6.2754 -8.8e-4,-0.0155 -0.0364,-0.60368 0.33398,-0.90234 l 0.9082,-0.72656 c 0.53945,-0.41319 0.84274,-1.3574 0.33398,-2.2637 -0.2654,-0.46852 -0.77867,-1.3002 -1.168,-1.8301 l -0.002,0 c -0.2087,-0.28127 -0.54533,-0.70183 -0.83203,-1.0547 -0.14335,-0.17643 -0.27386,-0.33792 -0.36914,-0.45312 -0.0476,-0.0576 -0.0859,-0.10414 -0.11328,-0.13672 -0.0137,-0.0163 -0.0252,-0.0277 -0.0332,-0.0371 -0.004,-0.005 -0.006,-0.008 -0.01,-0.0117 -0.25169,-0.29887 -0.57248,-0.48096 -0.92578,-0.54102 z m 9.0723,1.9805 c -0.47653,-0.0336 -0.90471,0.32346 -0.93945,0.7832 -0.0348,0.46025 0.3365,0.87074 0.8125,0.9043 1.1771,0.0832 1.9714,0.42925 2.5684,1.0605 l 0,0.002 c 0.60928,0.643 0.88651,1.3773 0.86328,2.3809 l 0,0.004 c -0.0104,0.46178 0.37701,0.85312 0.85547,0.86324 l 0.0215,0 c 0.47147,0 0.86451,-0.37219 0.875,-0.82812 0.0322,-1.3793 -0.41702,-2.6101 -1.3223,-3.5645 -0.90942,-0.95914 -2.1978,-1.4963 -3.7344,-1.6055 z" />
    </g>
  </g>
</svg>
