<?xml version="1.0" encoding="UTF-8" standalone="no"?>
<!-- Created with Inkscape (http://www.inkscape.org/) -->

<svg
   xmlns:dc="http://purl.org/dc/elements/1.1/"
   xmlns:cc="http://creativecommons.org/ns#"
   xmlns:rdf="http://www.w3.org/1999/02/22-rdf-syntax-ns#"
   xmlns:svg="http://www.w3.org/2000/svg"
   xmlns="http://www.w3.org/2000/svg"
   xmlns:sodipodi="http://sodipodi.sourceforge.net/DTD/sodipodi-0.dtd"
   xmlns:inkscape="http://www.inkscape.org/namespaces/inkscape"
   width="16"
   height="16"
   id="svg3049"
   version="1.1"
   inkscape:version="0.48.4 r9939"
   sodipodi:docname="sc_formattedfield.svg"
   inkscape:export-filename="/home/uri/.kde/share/icons/NITRUX-KDE/16x16/actions/view-right-new.png"
   inkscape:export-xdpi="30"
   inkscape:export-ydpi="30">
  <defs
     id="defs3051" />
  <sodipodi:namedview
     id="base"
     pagecolor="#ffffff"
     bordercolor="#666666"
     borderopacity="1.0"
     inkscape:pageopacity="0.0"
     inkscape:pageshadow="2"
     inkscape:zoom="22.627417"
     inkscape:cx="8.4130215"
     inkscape:cy="8.7390685"
     inkscape:document-units="px"
     inkscape:current-layer="layer1"
     showgrid="true"
     fit-margin-top="0"
     fit-margin-left="0"
     fit-margin-right="0"
     fit-margin-bottom="0"
     inkscape:window-width="1868"
     inkscape:window-height="1060"
     inkscape:window-x="50"
     inkscape:window-y="-3"
     inkscape:window-maximized="1"
     inkscape:showpageshadow="false"
     borderlayer="true"
     inkscape:snap-bbox="true"
     inkscape:snap-global="true">
    <inkscape:grid
       type="xygrid"
       id="grid4085" />
    <sodipodi:guide
       position="2.0000044,14.00003"
       orientation="12,0"
       id="guide4075" />
    <sodipodi:guide
       position="2.0000044,2.0000296"
       orientation="0,12"
       id="guide4077" />
    <sodipodi:guide
       position="14,9"
       orientation="-12,0"
       id="guide4079" />
    <sodipodi:guide
       position="14.000004,14.00003"
       orientation="0,-12"
       id="guide4081" />
  </sodipodi:namedview>
  <metadata
     id="metadata3054">
    <rdf:RDF>
      <cc:Work
         rdf:about="">
        <dc:format>image/svg+xml</dc:format>
        <dc:type
           rdf:resource="http://purl.org/dc/dcmitype/StillImage" />
        <dc:title></dc:title>
      </cc:Work>
    </rdf:RDF>
  </metadata>
  <g
     inkscape:label="Capa 1"
     inkscape:groupmode="layer"
     id="layer1"
     transform="translate(-421.71429,-531.79074)">
    <path
       style="font-size:13.49886227px;font-style:normal;font-variant:normal;font-weight:normal;font-stretch:normal;line-height:125%;letter-spacing:0px;word-spacing:0px;fill:#4d4d4d;fill-opacity:1;stroke:none;font-family:Oxygen;-inkscape-font-specification:Oxygen"
       d="M 7.5 2 L 7.5 3.03125 C 6.5197408 3.0970418 5.7275427 3.2929932 5.125 3.65625 C 4.3892 4.09555 4 4.7789 4 5.6875 C 3.9963063 7.4369045 5.3708977 8.2518487 7.5 8.84375 L 7.5 10.96875 C 6.4821912 10.919434 5.8228785 10.766874 4.8125 10.34375 L 4 12.21875 C 4.41104 12.43405 4.95597 12.62195 5.65625 12.78125 C 6.22045 12.905711 6.8296442 12.944047 7.5 12.96875 L 7.5 14 L 8.5 14 L 8.5 12.96875 C 9.4896363 12.908581 10.337347 12.670704 10.9375 12.25 C 11.64285 11.7547 11.99999 11.0359 12 10.0625 C 12.001796 8.363602 10.935634 7.9806294 8.5 7.1875 L 8.5 5.03125 C 9.1195731 5.0700682 9.9633282 5.2124995 11.125 5.78125 L 12 3.875 C 11.5991 3.6639 10.65621 3.3125 10.0625 3.1875 C 9.5709978 3.0846018 9.050607 3.0491675 8.5 3.03125 L 8.5 2 L 7.5 2 z M 7.5 5.03125 L 7.5 6.875 C 6.6132649 6.6535481 6.0059185 6.4294992 6 5.78125 C 6.0025088 5.3489779 6.4931888 5.0982895 7.5 5.03125 z M 8.5 9.15625 C 9.4863396 9.4842215 9.9843932 9.8407212 10 10.1875 C 9.9833037 10.807398 9.3508048 10.937766 8.5 10.96875 L 8.5 9.15625 z "
       transform="translate(421.71429,531.79074)"
       id="path3775" />
  </g>
</svg>
