<?xml version="1.0" encoding="UTF-8" standalone="no"?>
<!-- Created with Inkscape (http://www.inkscape.org/) -->

<svg
   xmlns:dc="http://purl.org/dc/elements/1.1/"
   xmlns:cc="http://creativecommons.org/ns#"
   xmlns:rdf="http://www.w3.org/1999/02/22-rdf-syntax-ns#"
   xmlns:svg="http://www.w3.org/2000/svg"
   xmlns="http://www.w3.org/2000/svg"
   xmlns:sodipodi="http://sodipodi.sourceforge.net/DTD/sodipodi-0.dtd"
   xmlns:inkscape="http://www.inkscape.org/namespaces/inkscape"
   width="16"
   height="16"
   id="svg3049"
   version="1.1"
   inkscape:version="0.48.4 r9939"
   sodipodi:docname="sc_navigator.svg"
   inkscape:export-filename="/home/uri/.kde/share/icons/NITRUX-KDE/16x16/actions/view-right-new.png"
   inkscape:export-xdpi="30"
   inkscape:export-ydpi="30">
  <defs
     id="defs3051" />
  <sodipodi:namedview
     id="base"
     pagecolor="#ffffff"
     bordercolor="#666666"
     borderopacity="1.0"
     inkscape:pageopacity="0.0"
     inkscape:pageshadow="2"
     inkscape:zoom="28.124999"
     inkscape:cx="-3.5860295"
     inkscape:cy="7.2059976"
     inkscape:document-units="px"
     inkscape:current-layer="layer1-6"
     showgrid="true"
     fit-margin-top="0"
     fit-margin-left="0"
     fit-margin-right="0"
     fit-margin-bottom="0"
     inkscape:window-width="1868"
     inkscape:window-height="1060"
     inkscape:window-x="50"
     inkscape:window-y="-3"
     inkscape:window-maximized="1"
     inkscape:showpageshadow="false"
     borderlayer="true"
     inkscape:snap-bbox="true"
     inkscape:snap-global="true">
    <inkscape:grid
       type="xygrid"
       id="grid4085" />
    <sodipodi:guide
       position="2.0000044,14.00003"
       orientation="12,0"
       id="guide4075" />
    <sodipodi:guide
       position="2.0000044,2.0000296"
       orientation="0,12"
       id="guide4077" />
    <sodipodi:guide
       position="14,9"
       orientation="-12,0"
       id="guide4079" />
    <sodipodi:guide
       position="14.000004,14.00003"
       orientation="0,-12"
       id="guide4081" />
  </sodipodi:namedview>
  <metadata
     id="metadata3054">
    <rdf:RDF>
      <cc:Work
         rdf:about="">
        <dc:format>image/svg+xml</dc:format>
        <dc:type
           rdf:resource="http://purl.org/dc/dcmitype/StillImage" />
        <dc:title />
      </cc:Work>
    </rdf:RDF>
  </metadata>
  <g
     inkscape:label="Capa 1"
     inkscape:groupmode="layer"
     id="layer1"
     transform="translate(-421.71429,-531.79074)">
    <g
       transform="matrix(0.75,0,0,0.74999813,421.46429,-241.22897)"
       id="layer1-0"
       inkscape:label="Capa 1">
      <g
         transform="translate(6.2937501e-7,-2.041003e-4)"
         id="layer1-6"
         inkscape:label="Capa 1">
        <path
           style="fill:#4d4d4d;fill-opacity:1;stroke:none"
           d="M 11 5 L 8 6 C 9.1045692 6 10 6.8954028 10 8 L 11 5 z M 7.625 7.09375 C 7.3857234 7.1949482 7.1949556 7.3857272 7.09375 7.625 C 7.199433 7.388399 7.3884071 7.1994388 7.625 7.09375 z M 8.375 7.09375 C 8.6115927 7.1994388 8.8005672 7.388399 8.90625 7.625 C 8.8050446 7.3857272 8.6142767 7.1949482 8.375 7.09375 z M 6 8 L 5 11 L 8 10 C 6.8954305 10 6 9.1045972 6 8 z M 7.09375 8.375 C 7.1949556 8.6142728 7.3857234 8.8050518 7.625 8.90625 C 7.3884156 8.8005635 7.1994405 8.6115799 7.09375 8.375 z M 8.90625 8.375 C 8.8005595 8.6115799 8.6115842 8.8005635 8.375 8.90625 C 8.6142767 8.8050518 8.8050446 8.6142728 8.90625 8.375 z "
           transform="matrix(1.3333333,0,0,1.3333367,0.3333327,1030.6957)"
           id="path4175" />
        <path
           style="color:#000000;fill:#4d4d4d;fill-opacity:1;fill-rule:nonzero;stroke:none;stroke-width:5;marker:none;visibility:visible;display:inline;overflow:visible;enable-background:accumulate"
           d="M 8 2 C 4.6862916 2 2 4.6862914 2 8 C 2 11.313709 4.6862916 14 8 14 C 11.313708 14 14 11.313709 14 8 C 14 4.6862914 11.313708 2 8 2 z M 8 3 C 10.761424 3 13 5.2385762 13 8 C 13 10.761424 10.761424 13 8 13 C 5.2385763 13 3 10.761424 3 8 C 3 5.2385762 5.2385763 3 8 3 z "
           transform="matrix(1.3333333,0,0,1.3333367,0.3333327,1030.6957)"
           id="path8714" />
        <path
           style="fill:#4d4d4d;fill-opacity:1;stroke:none"
           d="M 11 5 L 8 6 C 9.1045692 6 10 6.8954028 10 8 L 11 5 z M 7.625 7.09375 C 7.3857234 7.1949482 7.1949556 7.3857272 7.09375 7.625 C 7.1994329 7.3884079 7.3884072 7.1994299 7.625 7.09375 z M 8.375 7.09375 C 8.6115927 7.1994299 8.8005671 7.3884079 8.90625 7.625 C 8.8050446 7.3857272 8.6142767 7.1949482 8.375 7.09375 z M 8.90625 8.375 C 8.8005595 8.611585 8.6115843 8.8005584 8.375 8.90625 C 8.6142767 8.8050518 8.8050446 8.6142728 8.90625 8.375 z "
           transform="matrix(1.3333333,0,0,1.3333367,0.3333327,1030.6957)"
           id="path4175-9" />
        <path
           style="color:#000000;fill:#4d4d4d;fill-opacity:1;fill-rule:nonzero;stroke:none;stroke-width:2;marker:none;visibility:visible;display:inline;overflow:visible;enable-background:accumulate"
           d="M 8 6 C 6.8954305 6 6 6.8954305 6 8 C 6 9.1045695 6.8954305 10 8 10 C 9.1045695 10 10 9.1045695 10 8 C 10 6.8954305 9.1045695 6 8 6 z M 8 7 C 8.5522847 7 9 7.4477152 9 8 C 9 8.5522848 8.5522847 9 8 9 C 7.4477153 9 7 8.5522848 7 8 C 7 7.4477152 7.4477153 7 8 7 z "
           transform="matrix(1.3333333,0,0,1.3333367,0.3333327,1030.6957)"
           id="path3780" />
      </g>
    </g>
  </g>
</svg>
