<?xml version="1.0" encoding="UTF-8" standalone="no"?>
<!-- Created with Inkscape (http://www.inkscape.org/) -->

<svg
   xmlns:dc="http://purl.org/dc/elements/1.1/"
   xmlns:cc="http://creativecommons.org/ns#"
   xmlns:rdf="http://www.w3.org/1999/02/22-rdf-syntax-ns#"
   xmlns:svg="http://www.w3.org/2000/svg"
   xmlns="http://www.w3.org/2000/svg"
   xmlns:sodipodi="http://sodipodi.sourceforge.net/DTD/sodipodi-0.dtd"
   xmlns:inkscape="http://www.inkscape.org/namespaces/inkscape"
   id="svg7384"
   height="24"
   width="24"
   version="1.1"
   inkscape:version="0.48.4 r9939"
   sodipodi:docname="lc_navigator.svg"
   inkscape:export-filename="/home/uri/Descargas/NITRUX-KDE/NITRUX-KDE/16x16/actions/view-preview.png"
   inkscape:export-xdpi="30"
   inkscape:export-ydpi="30">
  <defs
     id="defs9" />
  <sodipodi:namedview
     pagecolor="#ffffff"
     bordercolor="#666666"
     borderopacity="1"
     objecttolerance="10"
     gridtolerance="10"
     guidetolerance="10"
     inkscape:pageopacity="0"
     inkscape:pageshadow="2"
     inkscape:window-width="1868"
     inkscape:window-height="1060"
     id="namedview7"
     showgrid="true"
     inkscape:zoom="33"
     inkscape:cx="8.4059814"
     inkscape:cy="12.057657"
     inkscape:window-x="50"
     inkscape:window-y="-3"
     inkscape:window-maximized="1"
     inkscape:current-layer="svg7384"
     inkscape:showpageshadow="false"
     borderlayer="true"
     fit-margin-top="0"
     fit-margin-left="0"
     fit-margin-right="0"
     fit-margin-bottom="0"
     inkscape:snap-bbox="true">
    <sodipodi:guide
       position="3,21"
       orientation="18,0"
       id="guide4064" />
    <sodipodi:guide
       position="3,3"
       orientation="0,18"
       id="guide4066" />
    <sodipodi:guide
       position="21,3"
       orientation="-18,0"
       id="guide4068" />
    <sodipodi:guide
       position="21,21"
       orientation="0,-18"
       id="guide4070" />
    <sodipodi:guide
       position="4,20"
       orientation="16,0"
       id="guide4072" />
    <sodipodi:guide
       position="4,4"
       orientation="0,16"
       id="guide4074" />
    <sodipodi:guide
       position="20,4"
       orientation="-16,0"
       id="guide4076" />
    <sodipodi:guide
       position="22,20"
       orientation="0,-16"
       id="guide4078" />
    <inkscape:grid
       type="xygrid"
       id="grid4080"
       originx="1px"
       originy="1px" />
  </sodipodi:namedview>
  <metadata
     id="metadata90">
    <rdf:RDF>
      <cc:Work
         rdf:about="">
        <dc:format>image/svg+xml</dc:format>
        <dc:type
           rdf:resource="http://purl.org/dc/dcmitype/StillImage" />
        <dc:title>Gnome Symbolic Icon Theme</dc:title>
      </cc:Work>
    </rdf:RDF>
  </metadata>
  <title
     id="title9167">Gnome Symbolic Icon Theme</title>
  <path
     style="color:#000000;fill:#4d4d4d;fill-opacity:1;fill-rule:nonzero;stroke:none;stroke-width:2;marker:none;visibility:visible;display:inline;overflow:visible;enable-background:accumulate"
     d="m 12,4 c -4.418278,0 -8,3.581722 -8,8 0,4.418278 3.581722,8 8,8 4.418278,0 8,-3.581722 8,-8 0,-4.418278 -3.581722,-8 -8,-8 z m 0,1 c 3.865993,0 7,3.1340068 7,7 0,3.865993 -3.134007,7 -7,7 C 8.134007,19 5,15.865993 5,12 5,8.1340068 8.134007,5 12,5 z"
     id="path3016"
     inkscape:connector-curvature="0" />
  <path
     style="fill:#4d4d4d;fill-opacity:1;stroke:none"
     d="m 10,12 -2,4 4,-2 c -1.115594,-0.06054 -2,-0.934679 -2,-2 z"
     id="path4175-0-8"
     inkscape:connector-curvature="0"
     sodipodi:nodetypes="cccc" />
  <path
     inkscape:connector-curvature="0"
     style="fill:#4d4d4d;fill-opacity:1;stroke:none"
     d="m 16,8 -4,2 c 1.104569,0 2,0.895431 2,2 l 2,-4 z"
     id="path4175-0-85" />
  <path
     inkscape:connector-curvature="0"
     style="color:#000000;fill:#4d4d4d;fill-opacity:1;fill-rule:nonzero;stroke:none;stroke-width:2;marker:none;visibility:visible;display:inline;overflow:visible;enable-background:accumulate"
     d="M 12.0625,10 C 10.921639,10 10,10.895431 10,12 c 0,1.104569 0.921639,2 2.0625,2 1.140861,0 2.0625,-0.895431 2.0625,-2 0,-1.104569 -0.921639,-2 -2.0625,-2 z M 12,11 c 0.552285,0 1,0.447715 1,1 0,0.552285 -0.447715,1 -1,1 -0.552285,0 -1,-0.447715 -1,-1 0,-0.552285 0.447715,-1 1,-1 z"
     id="path3877" />
</svg>
