<?xml version="1.0" encoding="UTF-8" standalone="no"?>
<svg
   xmlns:dc="http://purl.org/dc/elements/1.1/"
   xmlns:cc="http://creativecommons.org/ns#"
   xmlns:rdf="http://www.w3.org/1999/02/22-rdf-syntax-ns#"
   xmlns:svg="http://www.w3.org/2000/svg"
   xmlns="http://www.w3.org/2000/svg"
   xmlns:xlink="http://www.w3.org/1999/xlink"
   xmlns:sodipodi="http://sodipodi.sourceforge.net/DTD/sodipodi-0.dtd"
   xmlns:inkscape="http://www.inkscape.org/namespaces/inkscape"
   viewBox="0 0 64 64"
   id="svg2"
   version="1.1"
   inkscape:version="0.91pre2 r"
   sodipodi:docname="vector.svg"
   width="64"
   height="64">
  <metadata
     id="metadata84">
    <rdf:RDF>
      <cc:Work
         rdf:about="">
        <dc:format>image/svg+xml</dc:format>
        <dc:type
           rdf:resource="http://purl.org/dc/dcmitype/StillImage" />
        <dc:title />
      </cc:Work>
    </rdf:RDF>
  </metadata>
  <sodipodi:namedview
     pagecolor="#ffffff"
     bordercolor="#666666"
     borderopacity="1"
     objecttolerance="10"
     gridtolerance="10"
     guidetolerance="10"
     inkscape:pageopacity="0"
     inkscape:pageshadow="2"
     inkscape:window-width="1366"
     inkscape:window-height="673"
     id="namedview82"
     showgrid="true"
     inkscape:showpageshadow="false"
     inkscape:zoom="8"
     inkscape:cx="36.486354"
     inkscape:cy="27.72716"
     inkscape:window-x="-4"
     inkscape:window-y="24"
     inkscape:window-maximized="1"
     inkscape:current-layer="svg2">
    <inkscape:grid
       type="xygrid"
       id="grid3413" />
    <sodipodi:guide
       position="0,64"
       orientation="64,0"
       id="guide3482" />
    <sodipodi:guide
       position="0,0"
       orientation="0,64"
       id="guide3484" />
    <sodipodi:guide
       position="64,0"
       orientation="-64,0"
       id="guide3486" />
    <sodipodi:guide
       position="64,64"
       orientation="0,-64"
       id="guide3488" />
    <sodipodi:guide
       position="10,61"
       orientation="58,0"
       id="guide3492" />
    <sodipodi:guide
       position="10,3"
       orientation="0,44"
       id="guide3494" />
    <sodipodi:guide
       position="54,3"
       orientation="-58,0"
       id="guide3496" />
    <sodipodi:guide
       position="54,61"
       orientation="0,-44"
       id="guide3498" />
    <sodipodi:guide
       position="40,61"
       orientation="14,0"
       id="guide4306" />
    <sodipodi:guide
       position="40,47"
       orientation="0,14"
       id="guide4308" />
    <sodipodi:guide
       position="54,47"
       orientation="-14,0"
       id="guide4310" />
    <sodipodi:guide
       position="54,61"
       orientation="0,-14"
       id="guide4312" />
    <sodipodi:guide
       position="32,25"
       orientation="20,0"
       id="guide4514" />
    <sodipodi:guide
       position="32,5"
       orientation="0,20"
       id="guide4516" />
    <sodipodi:guide
       position="52,5"
       orientation="-20,0"
       id="guide4518" />
    <sodipodi:guide
       position="52,25"
       orientation="0,-20"
       id="guide4520" />
    <sodipodi:guide
       position="32,25"
       orientation="1,0"
       id="guide4540" />
    <sodipodi:guide
       position="40,25"
       orientation="0,-8"
       id="guide4546" />
    <sodipodi:guide
       position="44,17"
       orientation="1,0"
       id="guide4548" />
  </sodipodi:namedview>
  <defs
     id="defs4">
    <linearGradient
       inkscape:collect="always"
       id="linearGradient4159">
      <stop
         style="stop-color:#1d1e1e;stop-opacity:1"
         offset="0"
         id="stop4161" />
      <stop
         style="stop-color:#44484c;stop-opacity:1"
         offset="1"
         id="stop4163" />
    </linearGradient>
    <linearGradient
       inkscape:collect="always"
       id="linearGradient4410">
      <stop
         style="stop-color:#383e51;stop-opacity:1"
         offset="0"
         id="stop4412" />
      <stop
         style="stop-color:#655c6f;stop-opacity:0"
         offset="1"
         id="stop4414" />
    </linearGradient>
    <linearGradient
       inkscape:collect="always"
       xlink:href="#linearGradient4410"
       id="linearGradient4427"
       x1="40"
       y1="17"
       x2="54"
       y2="31"
       gradientUnits="userSpaceOnUse" />
    <linearGradient
       inkscape:collect="always"
       xlink:href="#linearGradient4159"
       id="linearGradient4435"
       x1="54"
       y1="17"
       x2="40"
       y2="3"
       gradientUnits="userSpaceOnUse" />
    <linearGradient
       id="linearGradient4356"
       inkscape:collect="always">
      <stop
         id="stop4358"
         offset="0"
         style="stop-color:#50ab7b;stop-opacity:1" />
      <stop
         id="stop4360"
         offset="1"
         style="stop-color:#5eb085;stop-opacity:1" />
    </linearGradient>
    <linearGradient
       inkscape:collect="always"
       xlink:href="#linearGradient4356"
       id="linearGradient4508"
       x1="35"
       y1="61"
       x2="35"
       y2="3"
       gradientUnits="userSpaceOnUse" />
  </defs>
  <path
     style="fill:url(#linearGradient4508);fill-opacity:1;stroke:none"
     d="M 10 3 L 10 61 L 54 61 L 54 17 L 40 3 L 10 3 z "
     id="rect3500" />
  <path
     style="fill:url(#linearGradient4435);fill-rule:evenodd;stroke:none;stroke-width:1px;stroke-linecap:butt;stroke-linejoin:miter;stroke-opacity:1;fill-opacity:1"
     d="M 54,17 40,3 40,17 Z"
     id="path4314"
     inkscape:connector-curvature="0" />
  <path
     inkscape:connector-curvature="0"
     id="path4320"
     d="M 40,17 54,31 54,17 Z"
     style="fill:url(#linearGradient4427);fill-rule:evenodd;stroke:none;stroke-width:1px;stroke-linecap:butt;stroke-linejoin:miter;stroke-opacity:1;fill-opacity:1;opacity:0.2" />
  <rect
     style="opacity:1;fill:#2e3132;fill-opacity:0.15686275;stroke:none"
     id="rect4169"
     width="44"
     height="1"
     x="10"
     y="60" />
  <path
     style="opacity:1;fill:#ffffff;fill-opacity:1;stroke:none"
     d="M 49.5 39 C 48.28614 39 47.280978 39.855928 47.050781 41 L 35 41 L 35 40 L 32 40 L 32 43 L 35 43 L 35 42.294922 C 36.838907 43.940518 38 46.326725 38 49 C 38 51.108156 37.269645 53.031875 36.0625 54.560547 C 35.633955 54.215325 35.095625 54 34.5 54 C 33.115 54 32 55.115 32 56.5 C 32 57.885 33.115 59 34.5 59 C 35.71386 59 36.719022 58.144072 36.949219 57 L 47 57 L 47 59 L 52 59 L 52 54 L 47 54 L 47 56 L 36.949219 56 C 36.902914 55.769867 36.817384 55.557698 36.712891 55.355469 C 38.138584 53.631042 39 51.422811 39 49 C 39 46.260211 37.893861 43.800617 36.119141 42 L 47.050781 42 C 47.280978 43.144072 48.28614 44 49.5 44 C 50.885 44 52 42.885 52 41.5 C 52 40.115 50.885 39 49.5 39 z M 49.5 40 C 50.331 40 51 40.669 51 41.5 C 51 42.331 50.331 43 49.5 43 C 48.669 43 48 42.331 48 41.5 C 48 40.669 48.669 40 49.5 40 z M 33 41 L 34 41 L 34 42 L 33 42 L 33 41 z M 34.5 55 C 35.331 55 36 55.669 36 56.5 C 36 57.331 35.331 58 34.5 58 C 33.669 58 33 57.331 33 56.5 C 33 55.669 33.669 55 34.5 55 z M 48 55 L 51 55 L 51 58 L 48 58 L 48 57 L 48 56 L 48 55 z "
     id="rect4170" />
</svg>
