<?xml version="1.0" encoding="UTF-8" standalone="no"?>
<!-- Created with Inkscape (http://www.inkscape.org/) -->

<svg
   xmlns:dc="http://purl.org/dc/elements/1.1/"
   xmlns:cc="http://creativecommons.org/ns#"
   xmlns:rdf="http://www.w3.org/1999/02/22-rdf-syntax-ns#"
   xmlns:svg="http://www.w3.org/2000/svg"
   xmlns="http://www.w3.org/2000/svg"
   xmlns:sodipodi="http://sodipodi.sourceforge.net/DTD/sodipodi-0.dtd"
   xmlns:inkscape="http://www.inkscape.org/namespaces/inkscape"
   width="24"
   height="24"
   id="svg3760"
   version="1.1"
   inkscape:version="0.91 r13725"
   sodipodi:docname="lc_changecasetoupper.svg">
  <defs
     id="defs3762">
    <inkscape:perspective
       sodipodi:type="inkscape:persp3d"
       inkscape:vp_x="0 : 12 : 1"
       inkscape:vp_y="0 : 1000 : 0"
       inkscape:vp_z="24 : 12 : 1"
       inkscape:persp3d-origin="12 : 8 : 1"
       id="perspective4090" />
  </defs>
  <sodipodi:namedview
     id="base"
     pagecolor="#ffffff"
     bordercolor="#666666"
     borderopacity="1.0"
     inkscape:pageopacity="0.0"
     inkscape:pageshadow="2"
     inkscape:zoom="34.574202"
     inkscape:cx="13.511188"
     inkscape:cy="13.912937"
     inkscape:document-units="px"
     inkscape:current-layer="layer1"
     showgrid="true"
     fit-margin-top="0"
     fit-margin-left="0"
     fit-margin-right="0"
     fit-margin-bottom="0"
     inkscape:window-width="1920"
     inkscape:window-height="1021"
     inkscape:window-x="-4"
     inkscape:window-y="0"
     inkscape:window-maximized="1"
     inkscape:showpageshadow="false"
     showguides="true"
     inkscape:snap-bbox="true"
     inkscape:snap-global="true"
     inkscape:object-nodes="true">
    <sodipodi:guide
       position="1,23"
       orientation="22,0"
       id="guide4116" />
    <sodipodi:guide
       position="1,1"
       orientation="0,22"
       id="guide4118" />
    <sodipodi:guide
       position="23,1"
       orientation="-22,0"
       id="guide4120" />
    <sodipodi:guide
       position="23,23"
       orientation="0,-22"
       id="guide4122" />
    <sodipodi:guide
       position="3,21"
       orientation="18,0"
       id="guide4124" />
    <sodipodi:guide
       position="21,3"
       orientation="-18,0"
       id="guide4128" />
    <sodipodi:guide
       position="21,21"
       orientation="0,-18"
       id="guide4130" />
    <sodipodi:guide
       position="4,20"
       orientation="16,0"
       id="guide4132" />
    <sodipodi:guide
       position="4,4"
       orientation="0,16"
       id="guide4134" />
    <sodipodi:guide
       position="20,4"
       orientation="-1,-1.0449993e-06"
       id="guide4136" />
    <sodipodi:guide
       position="20,20"
       orientation="0,-16"
       id="guide4138" />
    <inkscape:grid
       type="xygrid"
       id="grid4140"
       originx="0.99999582px"
       originy="1.0000027px" />
  </sodipodi:namedview>
  <metadata
     id="metadata3765">
    <rdf:RDF>
      <cc:Work
         rdf:about="">
        <dc:format>image/svg+xml</dc:format>
        <dc:type
           rdf:resource="http://purl.org/dc/dcmitype/StillImage" />
        <dc:title />
      </cc:Work>
    </rdf:RDF>
  </metadata>
  <g
     inkscape:label="Capa 1"
     inkscape:groupmode="layer"
     id="layer1"
     transform="translate(-552.72253,-582.11926)">
    <rect
       style="fill:#4d4d4d;fill-opacity:1;stroke:none"
       id="rect4035"
       width="0"
       height="10.999983"
       x="530.81628"
       y="593.71295" />
    <rect
       style="fill:#4d4d4d;fill-opacity:1;stroke:none"
       id="rect4035-2"
       width="0"
       height="10.999983"
       x="524.67603"
       y="593.97894" />
    <rect
       style="fill:#4d4d4d;fill-opacity:1;stroke:none"
       id="rect4035-5"
       width="0"
       height="10.999983"
       x="542.7168"
       y="591.92761" />
    <rect
       style="fill:#4d4d4d;fill-opacity:1;stroke:none"
       id="rect4035-8"
       width="0"
       height="10.999983"
       x="524.67603"
       y="593.97894" />
    <rect
       style="fill:#4d4d4d;fill-opacity:1;stroke:none"
       id="rect4035-59"
       width="0"
       height="10.999983"
       x="524.67603"
       y="593.97894" />
    <text
       sodipodi:linespacing="125%"
       id="text3781"
       y="606.73621"
       x="540.112"
       style="font-style:normal;font-weight:normal;font-size:9px;line-height:125%;font-family:Sans;letter-spacing:0px;word-spacing:0px;fill:#4d4d4d;fill-opacity:1;stroke:none"
       xml:space="preserve"><tspan
         id="tspan3783"
         sodipodi:role="line"
         x="540.112"
         y="606.73621" /></text>
    <text
       sodipodi:linespacing="125%"
       id="text3781-8"
       y="600.87286"
       x="540.84869"
       style="font-style:normal;font-weight:normal;font-size:9px;line-height:125%;font-family:Sans;letter-spacing:0px;word-spacing:0px;fill:#4d4d4d;fill-opacity:1;stroke:none"
       xml:space="preserve"><tspan
         id="tspan3783-1"
         sodipodi:role="line"
         x="540.84869"
         y="600.87286" /></text>
    <text
       sodipodi:linespacing="125%"
       id="text3781-4"
       y="607.73621"
       x="534.112"
       style="font-style:normal;font-weight:normal;font-size:9px;line-height:125%;font-family:Sans;letter-spacing:0px;word-spacing:0px;fill:#4d4d4d;fill-opacity:1;stroke:none"
       xml:space="preserve"><tspan
         id="tspan3783-13"
         sodipodi:role="line"
         x="534.112"
         y="607.73621" /></text>
    <rect
       style="fill:#4d4d4d;fill-opacity:1;stroke:none"
       id="rect4035-9"
       width="0"
       height="10.999983"
       x="524.67603"
       y="593.97894" />
    <rect
       style="fill:#4d4d4d;fill-opacity:1;stroke:none"
       id="rect4035-5-7"
       width="0"
       height="10.999983"
       x="542.7168"
       y="591.92761" />
    <rect
       style="fill:#4d4d4d;fill-opacity:1;stroke:none"
       id="rect4035-9-0"
       width="0"
       height="10.999983"
       x="504.67603"
       y="593.97894" />
    <rect
       style="fill:#4d4d4d;fill-opacity:1;stroke:none"
       id="rect4035-5-7-5"
       width="0"
       height="10.999983"
       x="522.7168"
       y="591.92761" />
    <rect
       style="fill:#4d4d4d;fill-opacity:1;stroke:none"
       id="rect4035-90"
       width="0"
       height="10.999983"
       x="522.81628"
       y="571.71295" />
    <path
       style="fill:#4d4d4d;fill-opacity:1;stroke:none"
       d="m 559.86322,591.11996 c -1.17486,0.0259 -1.83941,0.20076 -2.49515,0.48132 l 0.41227,0.92092 c 0.82342,-0.24465 1.51223,-0.46277 2.31178,-0.43757 0.96994,0.0371 1.34506,0.41594 1.3741,1.19315 l 0.0223,0.59857 c -4.13359,0.16744 -4.72163,0.8498 -4.76599,2.36173 0,1.17306 0.92486,1.88118 2.25,1.88118 0.91529,0 1.96419,-0.34664 2.57893,-0.83118 l 0.1711,0.83118 1,0 -3e-5,-4.85597 c -10e-6,-1.44102 -1.07941,-2.14403 -2.71875,-2.14403 l -0.14062,0 z m 1.60047,4.79241 c -0.37937,0.66626 -1.32597,1.19714 -2.01423,1.22871 -0.791,0.0364 -1.43499,-0.28728 -1.44762,-0.91532 0.0255,-1.20925 1.58529,-1.31775 3.46532,-1.49968 0.004,0.009 -0.004,1.18629 -0.004,1.18629 z"
       id="rect4071-2"
       inkscape:connector-curvature="0"
       sodipodi:nodetypes="ccccsccscccsscccscccc" />
    <path
       style="fill:#1d99f3;fill-opacity:1;stroke:none;stroke-width:1px;stroke-linecap:butt;stroke-linejoin:miter;stroke-opacity:1"
       d="m 565.72253,590.11926 3,-4 3,4 z"
       id="path2997"
       inkscape:connector-curvature="0" />
    <rect
       style="fill:#4d4d4d;fill-opacity:1;stroke:none"
       id="rect4035-1"
       width="0"
       height="15.230745"
       x="548.79944"
       y="590.0423" />
    <rect
       style="fill:#4d4d4d;fill-opacity:1;stroke:none"
       id="rect4035-2-1"
       width="0"
       height="15.230745"
       x="540.29755"
       y="590.41058" />
    <rect
       style="fill:#4d4d4d;fill-opacity:1;stroke:none"
       id="rect4035-5-2"
       width="0"
       height="15.230745"
       x="565.2771"
       y="587.57031" />
    <rect
       style="fill:#4d4d4d;fill-opacity:1;stroke:none"
       id="rect4035-8-7"
       width="0"
       height="15.230745"
       x="540.29755"
       y="590.41058" />
    <rect
       style="fill:#4d4d4d;fill-opacity:1;stroke:none"
       id="rect4035-59-4"
       width="0"
       height="15.230745"
       x="540.29755"
       y="590.41058" />
    <text
       sodipodi:linespacing="125%"
       id="text3781-9"
       y="608.07452"
       x="561.67047"
       style="font-style:normal;font-weight:normal;font-size:12.46153831px;line-height:125%;font-family:Sans;letter-spacing:0px;word-spacing:0px;fill:#4d4d4d;fill-opacity:1;stroke:none"
       xml:space="preserve"><tspan
         id="tspan3783-5"
         sodipodi:role="line"
         x="561.67047"
         y="608.07452" /></text>
    <text
       sodipodi:linespacing="125%"
       id="text3781-8-6"
       y="599.95605"
       x="562.69049"
       style="font-style:normal;font-weight:normal;font-size:12.46153831px;line-height:125%;font-family:Sans;letter-spacing:0px;word-spacing:0px;fill:#4d4d4d;fill-opacity:1;stroke:none"
       xml:space="preserve"><tspan
         id="tspan3783-1-4"
         sodipodi:role="line"
         x="562.69049"
         y="599.95605" /></text>
    <text
       sodipodi:linespacing="125%"
       id="text3781-4-1"
       y="609.45911"
       x="553.36279"
       style="font-style:normal;font-weight:normal;font-size:12.46153831px;line-height:125%;font-family:Sans;letter-spacing:0px;word-spacing:0px;fill:#4d4d4d;fill-opacity:1;stroke:none"
       xml:space="preserve"><tspan
         id="tspan3783-13-1"
         sodipodi:role="line"
         x="553.36279"
         y="609.45911" /></text>
    <rect
       style="fill:#4d4d4d;fill-opacity:1;stroke:none"
       id="rect4035-9-6"
       width="0"
       height="15.230745"
       x="540.29755"
       y="590.41058" />
    <rect
       style="fill:#4d4d4d;fill-opacity:1;stroke:none"
       id="rect4035-5-7-8"
       width="0"
       height="15.230745"
       x="565.2771"
       y="587.57031" />
    <rect
       style="fill:#4d4d4d;fill-opacity:1;stroke:none"
       id="rect4035-9-0-4"
       width="0"
       height="15.230745"
       x="512.60529"
       y="590.41058" />
    <rect
       style="fill:#4d4d4d;fill-opacity:1;stroke:none"
       id="rect4035-5-7-5-8"
       width="0"
       height="15.230745"
       x="537.58478"
       y="587.57031" />
    <rect
       style="fill:#4d4d4d;fill-opacity:1;stroke:none"
       id="rect4035-90-8"
       width="0"
       height="15.230745"
       x="537.72253"
       y="559.58075" />
    <path
       style="fill:#4d4d4d;fill-opacity:1;stroke:none"
       d="m 563.72253,591.11926 0,7 0.5,0 0.5,0 2.5,0 a 2,2 0 0 0 2,-2 2,2 0 0 0 -1.3418,-1.88477 2,2 0 0 0 0.3418,-1.11523 2,2 0 0 0 -2,-2 l -1.5,0 -0.5,0 -0.5,0 z m 1,1 1.5,0 a 1,1 0 0 1 1,1 1,1 0 0 1 -1,1 l -1.5,0 0,-2 z m 0,3 2.5,0 a 1,1 0 0 1 1,1 1,1 0 0 1 -1,1 l -2.5,0 0,-2 z"
       id="rect4388"
       inkscape:connector-curvature="0" />
    <path
       style="fill:#4d4d4d;fill-opacity:1;stroke:none"
       d="M 20 9 A 3 3 0 0 0 17 12 L 17 13 A 3 3 0 0 0 20 16 L 21 16 L 21 15 L 20 15 A 2 2 0 0 1 18 13 L 18 12 A 2 2 0 0 1 20 10 L 21 10 L 21 9 L 20 9 z "
       id="rect4434"
       transform="translate(552.72253,582.11926)" />
  </g>
</svg>
