<?xml version="1.0" encoding="UTF-8" standalone="no"?>
<!-- Created with Inkscape (http://www.inkscape.org/) -->

<svg
   xmlns:dc="http://purl.org/dc/elements/1.1/"
   xmlns:cc="http://creativecommons.org/ns#"
   xmlns:rdf="http://www.w3.org/1999/02/22-rdf-syntax-ns#"
   xmlns:svg="http://www.w3.org/2000/svg"
   xmlns="http://www.w3.org/2000/svg"
   xmlns:sodipodi="http://sodipodi.sourceforge.net/DTD/sodipodi-0.dtd"
   xmlns:inkscape="http://www.inkscape.org/namespaces/inkscape"
   id="svg7384"
   height="24"
   width="24"
   version="1.1"
   inkscape:version="0.48.4 r9939"
   sodipodi:docname="lc_designerdialog.svg"
   inkscape:export-filename="/home/uri/Descargas/NITRUX-KDE/NITRUX-KDE/16x16/actions/view-preview.png"
   inkscape:export-xdpi="30"
   inkscape:export-ydpi="30">
  <defs
     id="defs9" />
  <sodipodi:namedview
     pagecolor="#ffffff"
     bordercolor="#666666"
     borderopacity="1"
     objecttolerance="10"
     gridtolerance="10000"
     guidetolerance="10"
     inkscape:pageopacity="0"
     inkscape:pageshadow="2"
     inkscape:window-width="1868"
     inkscape:window-height="1060"
     id="namedview7"
     showgrid="true"
     inkscape:zoom="33"
     inkscape:cx="11.766892"
     inkscape:cy="12.820259"
     inkscape:window-x="50"
     inkscape:window-y="-3"
     inkscape:window-maximized="1"
     inkscape:current-layer="svg7384"
     inkscape:showpageshadow="false"
     borderlayer="true"
     fit-margin-top="0"
     fit-margin-left="0"
     fit-margin-right="0"
     fit-margin-bottom="0"
     inkscape:snap-bbox="true">
    <sodipodi:guide
       position="3,21"
       orientation="18,0"
       id="guide4064" />
    <sodipodi:guide
       position="3,3"
       orientation="0,18"
       id="guide4066" />
    <sodipodi:guide
       position="21,3"
       orientation="-18,0"
       id="guide4068" />
    <sodipodi:guide
       position="21,21"
       orientation="0,-18"
       id="guide4070" />
    <sodipodi:guide
       position="4,20"
       orientation="16,0"
       id="guide4072" />
    <sodipodi:guide
       position="4,4"
       orientation="0,16"
       id="guide4074" />
    <sodipodi:guide
       position="20,4"
       orientation="-16,0"
       id="guide4076" />
    <sodipodi:guide
       position="20,20"
       orientation="0,-16"
       id="guide4078" />
    <inkscape:grid
       type="xygrid"
       id="grid4080"
       originx="1px"
       originy="1px" />
  </sodipodi:namedview>
  <metadata
     id="metadata90">
    <rdf:RDF>
      <cc:Work
         rdf:about="">
        <dc:format>image/svg+xml</dc:format>
        <dc:type
           rdf:resource="http://purl.org/dc/dcmitype/StillImage" />
        <dc:title>Gnome Symbolic Icon Theme</dc:title>
      </cc:Work>
    </rdf:RDF>
  </metadata>
  <title
     id="title9167">Gnome Symbolic Icon Theme</title>
  <path
     style="fill:#4d4d4d;fill-rule:evenodd;stroke:none;stroke-width:1px;stroke-linecap:butt;stroke-linejoin:miter;stroke-opacity:1"
     d="M 4 11 L 4 20 L 20 20 L 4 11 z M 5 12.8125 L 16.09375 19 L 5 19 L 5 12.8125 z "
     id="path4163" />
  <path
     style="fill:#4d4d4d;fill-opacity:1;stroke:none"
     d="M 5 4 L 5 10 L 6 10 L 6 5 L 16 5 L 16 4 L 5 4 z "
     id="rect4139-4" />
  <path
     style="fill:#4d4d4d;fill-opacity:1;stroke:none"
     d="m 11,7 0,1 2,0 0,4 1,0 0,-4 2,0 0,-1 -5,0 z"
     id="rect4232"
     inkscape:connector-curvature="0" />
  <path
     inkscape:connector-curvature="0"
     style="color:#000000;fill:#f47750;fill-opacity:1;fill-rule:nonzero;stroke:none;stroke-width:2;marker:none;visibility:visible;display:inline;overflow:visible;enable-background:accumulate"
     d="m 19,5 c 0,-0.552285 -0.447715,-1 -1,-1 -0.552285,0 -1,0.447715 -1,1 0,0.552285 0.447715,1 1,1 0.552285,0 1,-0.447715 1,-1 z m 0,4 c 0,-0.552285 -0.447715,-1 -1,-1 -0.552285,0 -1,0.447715 -1,1 0,0.552285 0.447715,1 1,1 0.552285,0 1,-0.447715 1,-1 z m 0,4 c 0,-0.552285 -0.447715,-1 -1,-1 -0.552285,0 -1,0.447715 -1,1 0,0.552285 0.447715,1 1,1 0.552285,0 1,-0.447715 1,-1 z"
     id="path3021"
     inkscape:transform-center-x="1"
     inkscape:transform-center-y="1" />
</svg>
