<?xml version="1.0" encoding="UTF-8" standalone="no"?>
<!-- Created with Inkscape (http://www.inkscape.org/) -->

<svg
   xmlns:dc="http://purl.org/dc/elements/1.1/"
   xmlns:cc="http://creativecommons.org/ns#"
   xmlns:rdf="http://www.w3.org/1999/02/22-rdf-syntax-ns#"
   xmlns:svg="http://www.w3.org/2000/svg"
   xmlns="http://www.w3.org/2000/svg"
   xmlns:sodipodi="http://sodipodi.sourceforge.net/DTD/sodipodi-0.dtd"
   xmlns:inkscape="http://www.inkscape.org/namespaces/inkscape"
   width="24"
   height="24"
   id="svg3760"
   version="1.1"
   inkscape:version="0.48.4 r9939"
   sodipodi:docname="lc_inserttable.svg">
  <defs
     id="defs3762">
    <inkscape:perspective
       sodipodi:type="inkscape:persp3d"
       inkscape:vp_x="0 : 12 : 1"
       inkscape:vp_y="0 : 1000 : 0"
       inkscape:vp_z="24 : 12 : 1"
       inkscape:persp3d-origin="12 : 8 : 1"
       id="perspective4146-9" />
    <inkscape:perspective
       sodipodi:type="inkscape:persp3d"
       inkscape:vp_x="0 : 12 : 1"
       inkscape:vp_y="0 : 1000 : 0"
       inkscape:vp_z="24 : 12 : 1"
       inkscape:persp3d-origin="12 : 8 : 1"
       id="perspective4146" />
  </defs>
  <sodipodi:namedview
     id="base"
     pagecolor="#ffffff"
     bordercolor="#666666"
     borderopacity="1.0"
     inkscape:pageopacity="0.0"
     inkscape:pageshadow="2"
     inkscape:zoom="17.287101"
     inkscape:cx="11.616778"
     inkscape:cy="13.621276"
     inkscape:document-units="px"
     inkscape:current-layer="layer1"
     showgrid="true"
     fit-margin-top="0"
     fit-margin-left="0"
     fit-margin-right="0"
     fit-margin-bottom="0"
     inkscape:window-width="1868"
     inkscape:window-height="1060"
     inkscape:window-x="50"
     inkscape:window-y="-3"
     inkscape:window-maximized="1"
     inkscape:showpageshadow="false"
     inkscape:snap-bbox="true">
    <sodipodi:guide
       position="1,23"
       orientation="22,0"
       id="guide4116" />
    <sodipodi:guide
       position="1,1"
       orientation="0,22"
       id="guide4118" />
    <sodipodi:guide
       position="23,1"
       orientation="-22,0"
       id="guide4120" />
    <sodipodi:guide
       position="23,23"
       orientation="0,-22"
       id="guide4122" />
    <sodipodi:guide
       position="3,21"
       orientation="18,0"
       id="guide4124" />
    <sodipodi:guide
       position="21,3"
       orientation="-18,0"
       id="guide4128" />
    <sodipodi:guide
       position="21,21"
       orientation="0,-18"
       id="guide4130" />
    <sodipodi:guide
       position="4,20"
       orientation="16,0"
       id="guide4132" />
    <sodipodi:guide
       position="4,4"
       orientation="0,16"
       id="guide4134" />
    <sodipodi:guide
       position="20,4"
       orientation="-16,0"
       id="guide4136" />
    <sodipodi:guide
       position="20,20"
       orientation="0,-16"
       id="guide4138" />
    <inkscape:grid
       type="xygrid"
       id="grid4140"
       originx="0.99999582px"
       originy="1.0000027px" />
  </sodipodi:namedview>
  <metadata
     id="metadata3765">
    <rdf:RDF>
      <cc:Work
         rdf:about="">
        <dc:format>image/svg+xml</dc:format>
        <dc:type
           rdf:resource="http://purl.org/dc/dcmitype/StillImage" />
        <dc:title />
      </cc:Work>
    </rdf:RDF>
  </metadata>
  <g
     inkscape:label="Capa 1"
     inkscape:groupmode="layer"
     id="layer1"
     transform="translate(-552.72253,-582.11926)">
    <path
       sodipodi:nodetypes="ccccccccccccccccccccccccccccccccccccccc"
       inkscape:connector-curvature="0"
       id="rect4108-9"
       d="m 561.72253,592.11926 0,4 0,1 0,4 0,1 2,0 8,0 1,0 0,-5 0,-1 0,-4 -1,0 0,4 -2,0 0,-4 -1,0 0,4 -3,0 0,-4 -1,0 0,4 -2,0 0,-4 z m 1,5 2,0 0,4 -2,0 z m 3,0 3,0 0,4 -3,0 z m 4,0 2,0 0,4 -2,0 z"
       style="fill:#4d4d4d;fill-opacity:1;stroke:none" />
    <path
       style="opacity:0.98999999;fill:#2ecc71;fill-opacity:1;stroke:none"
       d="M 4 4 L 4 5 L 4 8 L 4 9 L 4 9.28125 L 4 10 L 4 12 L 4 13.28125 L 4 16 L 4 17.28125 L 4 20 L 5 20 L 5 17.71875 L 6.71875 16 L 9 14 L 9 16 L 9 16.28125 L 5.28125 20 L 6.71875 20 L 9 17.71875 L 9 20 L 10 20 L 10 16 L 10 12 L 10 10 L 12 10 L 16 10 L 20 10 L 20 9 L 17.71875 9 L 20 6.71875 L 20 5.28125 L 16.28125 9 L 16 9 L 13.71875 9 L 16 6.71875 L 17.71875 5 L 20 5 L 20 4 L 17.28125 4 L 16 4 L 12 4 L 10 4 L 9.28125 4 L 9 4 L 8 4 L 5 4 L 4 4 z M 5 5 L 8 5 L 8.28125 5 L 5 8.28125 L 5 8 L 5 5 z M 9.71875 5 L 10 5 L 12 5 L 12.28125 5 L 12 5.28125 L 9 8.28125 L 8.28125 9 L 5.28125 12 L 5 12.28125 L 5 12 L 5 10 L 5 9.71875 L 5.71875 9 L 9 5.71875 L 9.71875 5 z M 13.71875 5 L 16 5 L 16.28125 5 L 16 5.28125 L 12.28125 9 L 12 9 L 10 9 L 9.71875 9 L 12 6.71875 L 13.71875 5 z M 9 9.71875 L 9 10 L 9 12 L 9 12.28125 L 5.28125 16 L 5 16.28125 L 5 16 L 5 13.71875 L 6.71875 12 L 9 9.71875 z "
       transform="translate(552.72253,582.11926)"
       id="rect4197-8" />
    <g
       transform="translate(570.64583,-440.33344)"
       id="layer1-8"
       inkscape:label="Capa 1" />
  </g>
</svg>
