<?xml version="1.0" encoding="UTF-8" standalone="no"?>
<!-- Created with Inkscape (http://www.inkscape.org/) -->

<svg
   xmlns:dc="http://purl.org/dc/elements/1.1/"
   xmlns:cc="http://creativecommons.org/ns#"
   xmlns:rdf="http://www.w3.org/1999/02/22-rdf-syntax-ns#"
   xmlns:svg="http://www.w3.org/2000/svg"
   xmlns="http://www.w3.org/2000/svg"
   xmlns:sodipodi="http://sodipodi.sourceforge.net/DTD/sodipodi-0.dtd"
   xmlns:inkscape="http://www.inkscape.org/namespaces/inkscape"
   width="24"
   height="24"
   id="svg3815"
   version="1.1"
   inkscape:version="0.48.4 r9939"
   sodipodi:docname="lc_insertcolumns.svg">
  <defs
     id="defs3817" />
  <sodipodi:namedview
     id="base"
     pagecolor="#ffffff"
     bordercolor="#666666"
     borderopacity="1.0"
     inkscape:pageopacity="0.0"
     inkscape:pageshadow="2"
     inkscape:zoom="37.387049"
     inkscape:cx="14.295173"
     inkscape:cy="13.811111"
     inkscape:document-units="px"
     inkscape:current-layer="layer1"
     showgrid="true"
     fit-margin-top="0"
     fit-margin-left="0"
     fit-margin-right="0"
     fit-margin-bottom="0"
     inkscape:window-width="1868"
     inkscape:window-height="1060"
     inkscape:window-x="50"
     inkscape:window-y="-3"
     inkscape:window-maximized="1"
     inkscape:showpageshadow="false"
     borderlayer="false"
     inkscape:snap-bbox="true">
    <sodipodi:guide
       position="3,21"
       orientation="18,0"
       id="guide3338" />
    <sodipodi:guide
       position="3,3"
       orientation="0,18"
       id="guide3340" />
    <sodipodi:guide
       position="21,3"
       orientation="-18,0"
       id="guide3342" />
    <sodipodi:guide
       position="21,21"
       orientation="0,-18"
       id="guide3344" />
    <sodipodi:guide
       position="4,20"
       orientation="16,0"
       id="guide3346" />
    <sodipodi:guide
       position="4,4"
       orientation="0,16"
       id="guide3348" />
    <sodipodi:guide
       position="20,4"
       orientation="-16,0"
       id="guide3350" />
    <sodipodi:guide
       position="17.999996,20.000021"
       orientation="0,-16"
       id="guide3352" />
    <inkscape:grid
       type="xygrid"
       id="grid3354"
       originx="0.99999557px"
       originy="1.0000215px" />
  </sodipodi:namedview>
  <metadata
     id="metadata3820">
    <rdf:RDF>
      <cc:Work
         rdf:about="">
        <dc:format>image/svg+xml</dc:format>
        <dc:type
           rdf:resource="http://purl.org/dc/dcmitype/StillImage" />
        <dc:title />
      </cc:Work>
    </rdf:RDF>
  </metadata>
  <g
     inkscape:label="Capa 1"
     inkscape:groupmode="layer"
     id="layer1"
     transform="translate(-460.71429,-524.79077)">
    <path
       style="opacity:1;fill:#4d4d4d;fill-opacity:1;stroke:none"
       d="M 10 4 L 10 5 L 14 5 L 14 7 L 13 7 L 10 7 L 10 8 L 13 8 L 14 8 L 14 10 L 10 10 L 10 11 L 14 11 L 14 13 L 10 13 L 10 14 L 14 14 L 20 14 L 20 13 L 20 8 L 20 7 L 20 4 L 14 4 L 10 4 z M 15 5 L 19 5 L 19 7 L 15 7 L 15 5 z M 15 8 L 19 8 L 19 10 L 15 10 L 15 8 z M 15 11 L 19 11 L 19 13 L 15 13 L 15 11 z M 10 16 L 10 17 L 14 17 L 14 16 L 10 16 z M 10 19 L 10 20 L 14 20 L 14 19 L 10 19 z "
       transform="translate(460.71429,524.79077)"
       id="rect4108-9" />
    <path
       style="fill:#1d99f3;fill-opacity:1;stroke:none"
       d="M 4 4 L 4 8 L 4 9.28125 L 4 12 L 4 13.28125 L 4 16 L 4 17.28125 L 4 20 L 5 20 L 5 17.71875 L 6.71875 16 L 9 13.71875 L 9 16 L 9 16.28125 L 5.28125 20 L 6.71875 20 L 9 17.71875 L 9 20 L 10 20 L 10 16 L 10 12 L 10 8 L 10 4 L 9 4 L 9 4.28125 L 5 8.28125 L 5 8 L 5 4 L 4 4 z M 9 5.71875 L 9 8 L 9 8.28125 L 5.28125 12 L 5 12.28125 L 5 12 L 5 9.71875 L 9 5.71875 z M 9 9.71875 L 9 12 L 9 12.28125 L 5.28125 16 L 5 16.28125 L 5 16 L 5 13.71875 L 6.71875 12 L 9 9.71875 z "
       transform="translate(460.71429,524.79077)"
       id="rect4197" />
    <path
       inkscape:connector-curvature="0"
       id="rect4139"
       d="m 478.71429,539.79075 0,2 2,0 0,1 -2,0 0,2 -1,0 0,-2 -2,0 0,-1 2,0 0,-2 1,0 z"
       style="fill:#4d4d4d;fill-opacity:1;stroke:none" />
  </g>
</svg>
