<svg xmlns="http://www.w3.org/2000/svg" width="32" height="32" viewBox="0 0 32 32"><g fill="#4d4d4d"><path d="M16 11a6 6 0 0 0-6 6 6 6 0 0 0 6 6 6 6 0 0 0 6-6 6 6 0 0 0-6-6zm0 1a5 5 0 0 1 5 5 5 5 0 0 1-5 5 5 5 0 0 1-5-5 5 5 0 0 1 5-5z"/><path d="M16 14a3 3 0 0 0-3 3 3 3 0 0 0 3 3 3 3 0 0 0 3-3 3 3 0 0 0-.396-1.486A1.5 1.5 0 0 1 17.5 16a1.5 1.5 0 0 1-1.5-1.5 1.5 1.5 0 0 1 .086-.496A3 3 0 0 0 16 14z"/><path d="M16 10a14 9 0 0 0-13.607 6.928l.847.564A13 8 0 0 1 16 11a13 8 0 0 1 12.758 6.494l.85-.566A14 9 0 0 0 16 10z"/></g></svg>