<svg xmlns="http://www.w3.org/2000/svg" width="32" height="32" viewBox="0 0 32 32"><path d="M22 17v5h-5v1h5v5h1v-5h5v-1h-5v-5h-1z" fill="#1d99f3"/><path style="isolation:auto;mix-blend-mode:normal" d="M4 4v24h13v-1H5V5h22v12h1V4H4z" color="#000" overflow="visible" solid-color="#000000" fill="#4d4d4d" fill-rule="evenodd"/><path style="isolation:auto;mix-blend-mode:normal" d="M16 12a4 4 0 0 0-4 4 4 4 0 0 0 4 4 4 4 0 0 0 4-4 4 4 0 0 0-4-4zm0 2a2 2 0 0 1 2 2 2 2 0 0 1-2 2 2 2 0 0 1-2-2 2 2 0 0 1 2-2z" color="#000" overflow="visible" solid-color="#000000" fill="#1d99f3" fill-rule="evenodd"/></svg>