<?xml version="1.0" encoding="UTF-8" standalone="no"?>
<!-- Created with Inkscape (http://www.inkscape.org/) -->

<svg
   xmlns:dc="http://purl.org/dc/elements/1.1/"
   xmlns:cc="http://creativecommons.org/ns#"
   xmlns:rdf="http://www.w3.org/1999/02/22-rdf-syntax-ns#"
   xmlns:svg="http://www.w3.org/2000/svg"
   xmlns="http://www.w3.org/2000/svg"
   xmlns:sodipodi="http://sodipodi.sourceforge.net/DTD/sodipodi-0.dtd"
   xmlns:inkscape="http://www.inkscape.org/namespaces/inkscape"
   width="32"
   height="32"
   id="svg5453"
   version="1.1"
   inkscape:version="0.91 r13725"
   sodipodi:docname="numberformatstandard.svg"
   viewBox="0 0 32 32">
  <defs
     id="defs5455" />
  <sodipodi:namedview
     id="base"
     pagecolor="#ffffff"
     bordercolor="#666666"
     borderopacity="1.0"
     inkscape:pageopacity="0"
     inkscape:pageshadow="2"
     inkscape:zoom="11.313709"
     inkscape:cx="25.49085"
     inkscape:cy="9.5514828"
     inkscape:document-units="px"
     inkscape:current-layer="layer1"
     showgrid="true"
     fit-margin-top="0"
     fit-margin-left="0"
     fit-margin-right="0"
     fit-margin-bottom="0"
     inkscape:window-width="1920"
     inkscape:window-height="957"
     inkscape:window-x="-4"
     inkscape:window-y="0"
     inkscape:window-maximized="1"
     inkscape:showpageshadow="false"
     borderlayer="true"
     showguides="true"
     inkscape:guide-bbox="true"
     inkscape:object-nodes="true"
     inkscape:snap-bbox="true"
     inkscape:snap-global="true">
    <inkscape:grid
       type="xygrid"
       id="grid4063" />
    <sodipodi:guide
       position="13,4"
       orientation="0,28"
       id="guide4282" />
    <sodipodi:guide
       position="28,25"
       orientation="-28,0"
       id="guide4284" />
    <sodipodi:guide
       position="15,28"
       orientation="0,-28"
       id="guide4286" />
    <sodipodi:guide
       position="4,17"
       orientation="1,0"
       id="guide4574" />
  </sodipodi:namedview>
  <metadata
     id="metadata5458">
    <rdf:RDF>
      <cc:Work
         rdf:about="">
        <dc:format>image/svg+xml</dc:format>
        <dc:type
           rdf:resource="http://purl.org/dc/dcmitype/StillImage" />
        <dc:title></dc:title>
      </cc:Work>
    </rdf:RDF>
  </metadata>
  <g
     inkscape:label="Capa 1"
     inkscape:groupmode="layer"
     id="layer1"
     transform="translate(-384.57143,-515.798)">
    <g
       id="layer1-6"
       inkscape:label="Capa 1"
       transform="matrix(1.5,0,0,1.5,363.17115,-1036.6062)" />
    <rect
       style="fill:#4d4d4d;fill-opacity:1;stroke:none;stroke-width:2;stroke-linecap:square;stroke-linejoin:round;stroke-miterlimit:4;stroke-dasharray:none"
       id="rect4930"
       width="2"
       height="2"
       x="397.07144"
       y="541.79797" />
    <path
       style="fill:#4d4d4d;fill-opacity:1;stroke:none;stroke-width:2;stroke-linecap:square;stroke-linejoin:round;stroke-miterlimit:4;stroke-dasharray:none"
       d="M 21.5,5 C 18.462434,5 16,7.4624339 16,10.5 c 8.7e-4,0.166966 0.0093,0.333805 0.02539,0.5 l 1.007812,0 C 17.012859,10.834079 17.001772,10.667154 17,10.5 17,8.0147186 19.014719,6 21.5,6 c 2.485281,0 4.5,2.0147186 4.5,4.5 -0.02098,0.816672 -0.267164,1.792206 -0.496094,2.164062 -3.132386,4.057698 -6.355528,8.233121 -9.173826,11.900392 -0.0375,0.04411 -0.07737,0.110897 -0.117187,0.167969 C 16.074047,24.964419 16.00049,25.22963 16,25.5 c 0,0.828427 0.671573,1.5 1.5,1.5 l 9.5,0 0,-1 -9.5,0 C 17.223858,26 17,25.776142 17,25.5 c 0.0011,-0.08166 0.007,-0.15132 0.03906,-0.216797 3.238278,-4.20509 6.357943,-8.329156 9.184994,-12.00134 0.158486,-0.217041 0.257701,-0.486372 0.357975,-0.684209 l 0.0039,-0.0059 -0.002,0 0,-0.002 C 26.85767,11.927185 26.998888,11.217073 27,10.5 27,7.4624339 24.537566,5 21.5,5 Z"
       transform="translate(384.57143,515.798)"
       id="rect4171"
       inkscape:connector-curvature="0"
       sodipodi:nodetypes="sccccscccccsccsccccccccs" />
    <path
       style="fill:#4d4d4d;fill-opacity:1;stroke:none;stroke-width:2;stroke-linecap:square;stroke-linejoin:round;stroke-miterlimit:4;stroke-dasharray:none"
       d="m 394.55219,520.798 -0.25481,0 -4.72595,3.12304 0.56536,0.95704 4.4154,-2.8125 0,20.73242 1.01924,0 0,-21.39845 0,-0.60155 -0.91971,0 z"
       id="rect4247"
       inkscape:connector-curvature="0"
       sodipodi:nodetypes="ccccccccccc" />
  </g>
</svg>
