<?xml version="1.0" encoding="UTF-8" standalone="no"?>
<!-- Created with Inkscape (http://www.inkscape.org/) -->

<svg
   xmlns:dc="http://purl.org/dc/elements/1.1/"
   xmlns:cc="http://creativecommons.org/ns#"
   xmlns:rdf="http://www.w3.org/1999/02/22-rdf-syntax-ns#"
   xmlns:svg="http://www.w3.org/2000/svg"
   xmlns="http://www.w3.org/2000/svg"
   xmlns:sodipodi="http://sodipodi.sourceforge.net/DTD/sodipodi-0.dtd"
   xmlns:inkscape="http://www.inkscape.org/namespaces/inkscape"
   width="22"
   height="22"
   id="svg3109"
   version="1.1"
   inkscape:version="0.48+devel r"
   sodipodi:docname="application-menu.svg">
  <defs
     id="defs3111" />
  <sodipodi:namedview
     id="base"
     pagecolor="#ffffff"
     bordercolor="#666666"
     borderopacity="1.0"
     inkscape:pageopacity="0.0"
     inkscape:pageshadow="2"
     inkscape:zoom="16.068746"
     inkscape:cx="9.8217727"
     inkscape:cy="19.521461"
     inkscape:document-units="px"
     inkscape:current-layer="layer1"
     showgrid="true"
     fit-margin-top="0"
     fit-margin-left="0"
     fit-margin-right="0"
     fit-margin-bottom="0"
     inkscape:window-width="1366"
     inkscape:window-height="669"
     inkscape:window-x="-4"
     inkscape:window-y="25"
     inkscape:window-maximized="1"
     inkscape:showpageshadow="false">
    <inkscape:grid
       type="xygrid"
       id="grid4108"
       originx="-1.0000233px"
       originy="-1.0000029px" />
    <sodipodi:guide
       position="2,20"
       orientation="18,0"
       id="guide4114" />
    <sodipodi:guide
       position="2,2"
       orientation="0,18"
       id="guide4116" />
    <sodipodi:guide
       position="20,2"
       orientation="-18,0"
       id="guide4118" />
    <sodipodi:guide
       position="20,20"
       orientation="0,-18"
       id="guide4120" />
    <sodipodi:guide
       position="3,19"
       orientation="16,0"
       id="guide4122" />
    <sodipodi:guide
       position="3,3"
       orientation="0,16"
       id="guide4124" />
    <sodipodi:guide
       position="19,3"
       orientation="-16,0"
       id="guide4126" />
    <sodipodi:guide
       position="19,19"
       orientation="0,-16"
       id="guide4128" />
  </sodipodi:namedview>
  <metadata
     id="metadata3114">
    <rdf:RDF>
      <cc:Work
         rdf:about="">
        <dc:format>image/svg+xml</dc:format>
        <dc:type
           rdf:resource="http://purl.org/dc/dcmitype/StillImage" />
        <dc:title></dc:title>
      </cc:Work>
    </rdf:RDF>
  </metadata>
  <g
     inkscape:label="Capa 1"
     inkscape:groupmode="layer"
     id="layer1"
     transform="translate(-534.14288,-579.07648)">
    <path
       style="opacity:1;fill:#4d4d4d;fill-opacity:1;stroke:none;stroke-width:0.1;stroke-miterlimit:4;stroke-dasharray:none;stroke-opacity:1"
       d="M 16 3 L 13 6 L 3 6 L 3 7 L 3 18 L 3 19 L 19 19 L 19 18 L 19 7 L 19 6 L 16 3 z M 4 7 L 18 7 L 18 18 L 4 18 L 4 7 z M 5 9 L 5 10 L 17 10 L 17 9 L 5 9 z M 5 12 L 5 13 L 17 13 L 17 12 L 5 12 z M 5 15 L 5 16 L 11 16 L 11 15 L 5 15 z M 12 15 L 12 16 L 13 16 L 13 15 L 12 15 z M 14 15 L 14 16 L 15 16 L 15 15 L 14 15 z M 16 15 L 16 16 L 17 16 L 17 15 L 16 15 z "
       transform="translate(534.14288,579.07648)"
       id="rect4179" />
  </g>
</svg>
