<?xml version="1.0" encoding="UTF-8" standalone="no"?>
<!-- Created with Inkscape (http://www.inkscape.org/) -->

<svg
   xmlns:dc="http://purl.org/dc/elements/1.1/"
   xmlns:cc="http://creativecommons.org/ns#"
   xmlns:rdf="http://www.w3.org/1999/02/22-rdf-syntax-ns#"
   xmlns:svg="http://www.w3.org/2000/svg"
   xmlns="http://www.w3.org/2000/svg"
   xmlns:sodipodi="http://sodipodi.sourceforge.net/DTD/sodipodi-0.dtd"
   xmlns:inkscape="http://www.inkscape.org/namespaces/inkscape"
   width="24"
   height="24"
   id="svg3760"
   version="1.1"
   inkscape:version="0.91+devel r"
   sodipodi:docname="lc_insertsymbol.svg">
  <defs
     id="defs3762" />
  <sodipodi:namedview
     id="base"
     pagecolor="#ffffff"
     bordercolor="#666666"
     borderopacity="1.0"
     inkscape:pageopacity="0.0"
     inkscape:pageshadow="2"
     inkscape:zoom="17.023683"
     inkscape:cx="10.333471"
     inkscape:cy="12.202473"
     inkscape:document-units="px"
     inkscape:current-layer="layer1"
     showgrid="true"
     fit-margin-top="0"
     fit-margin-left="0"
     fit-margin-right="0"
     fit-margin-bottom="0"
     inkscape:window-width="1366"
     inkscape:window-height="670"
     inkscape:window-x="-4"
     inkscape:window-y="29"
     inkscape:window-maximized="1"
     inkscape:showpageshadow="false"
     showguides="true">
    <inkscape:grid
       type="xygrid"
       id="grid4106"
       originx="1.8863594e-05px"
       originy="-1.7016406e-05px" />
    <sodipodi:guide
       position="3.0000144,20.999978"
       orientation="0,18"
       id="guide4229" />
    <sodipodi:guide
       position="21.000014,20.999978"
       orientation="18,0"
       id="guide4231" />
    <sodipodi:guide
       position="21.000014,2.9999782"
       orientation="0,-18"
       id="guide4233" />
    <sodipodi:guide
       position="3.0000144,2.9999782"
       orientation="-18,0"
       id="guide4235" />
    <sodipodi:guide
       position="4.0000144,19.999978"
       orientation="0,16"
       id="guide4237" />
    <sodipodi:guide
       position="20.000014,19.999978"
       orientation="16,0"
       id="guide4239" />
    <sodipodi:guide
       position="20.000014,3.9999782"
       orientation="0,-16"
       id="guide4241" />
    <sodipodi:guide
       position="4.0000144,3.9999782"
       orientation="-16,0"
       id="guide4243" />
  </sodipodi:namedview>
  <metadata
     id="metadata3765">
    <rdf:RDF>
      <cc:Work
         rdf:about="">
        <dc:format>image/svg+xml</dc:format>
        <dc:type
           rdf:resource="http://purl.org/dc/dcmitype/StillImage" />
        <dc:title />
      </cc:Work>
    </rdf:RDF>
  </metadata>
  <g
     inkscape:label="Capa 1"
     inkscape:groupmode="layer"
     id="layer1"
     transform="translate(-550.28571,-606.64789)">
    <path
       style="opacity:1;fill:#4d4d4d;fill-opacity:1;stroke:none;stroke-width:2.79999995;stroke-miterlimit:4;stroke-dasharray:none;stroke-opacity:0.55026455"
       d="M 7 4 A 2.9999976 2.9999976 0 0 0 4 7 A 2.9999976 2.9999976 0 0 0 7 10 L 9 10 L 9 12 L 9 14 L 7 14 A 2.9999976 2.9999976 0 0 0 4 17 A 2.9999976 2.9999976 0 0 0 7 20 A 2.9999976 2.9999976 0 0 0 10 17 L 10 15 L 11 15 L 13 15 L 14 15 L 14 14 L 13 14 L 11 14 L 10 14 L 10 12 L 10 10 L 11 10 L 13 10 L 14 10 L 14 12 L 14 14 L 15 14 L 15 12 L 15 10 L 17 10 A 2.9999976 2.9999976 0 0 0 20 7 A 2.9999976 2.9999976 0 0 0 17 4 A 2.9999976 2.9999976 0 0 0 14 7 L 14 9 L 13 9 L 11 9 L 10 9 L 10 7 A 2.9999976 2.9999976 0 0 0 7 4 z M 7 5 A 1.9999976 1.9999976 0 0 1 9 7 L 9 9 L 7 9 A 1.9999976 1.9999976 0 0 1 5 7 A 1.9999976 1.9999976 0 0 1 7 5 z M 17 5 A 1.9999976 1.9999976 0 0 1 19 7 A 1.9999976 1.9999976 0 0 1 17 9 L 15 9 L 15 7 A 1.9999976 1.9999976 0 0 1 17 5 z M 7 15 L 9 15 L 9 17 A 1.9999976 1.9999976 0 0 1 7 19 A 1.9999976 1.9999976 0 0 1 5 17 A 1.9999976 1.9999976 0 0 1 7 15 z M 17 15 L 17 17 L 15 17 L 15 18 L 17 18 L 17 20 L 18 20 L 18 18 L 20 18 L 20 17 L 18 17 L 18 15 L 17 15 z "
       transform="translate(550.28571,606.64789)"
       id="rect4147" />
  </g>
</svg>
