<?xml version="1.0" encoding="UTF-8" standalone="no"?>
<!-- Created with Inkscape (http://www.inkscape.org/) -->

<svg
   xmlns:dc="http://purl.org/dc/elements/1.1/"
   xmlns:cc="http://creativecommons.org/ns#"
   xmlns:rdf="http://www.w3.org/1999/02/22-rdf-syntax-ns#"
   xmlns:svg="http://www.w3.org/2000/svg"
   xmlns="http://www.w3.org/2000/svg"
   xmlns:xlink="http://www.w3.org/1999/xlink"
   xmlns:sodipodi="http://sodipodi.sourceforge.net/DTD/sodipodi-0.dtd"
   xmlns:inkscape="http://www.inkscape.org/namespaces/inkscape"
   width="48"
   height="48"
   id="svg5453"
   version="1.1"
   inkscape:version="0.91 r13725"
   sodipodi:docname="akregator.svg">
  <defs
     id="defs5455">
    <linearGradient
       id="linearGradient4227"
       inkscape:collect="always">
      <stop
         id="stop4229"
         offset="0"
         style="stop-color:#292c2f;stop-opacity:1" />
      <stop
         id="stop4231"
         offset="1"
         style="stop-color:#000000;stop-opacity:0;" />
    </linearGradient>
    <linearGradient
       inkscape:collect="always"
       id="linearGradient4300-8-4">
      <stop
         style="stop-color:#f27935;stop-opacity:1"
         offset="0"
         id="stop4302-5-4" />
      <stop
         style="stop-color:#f2784b;stop-opacity:1"
         offset="1"
         id="stop4304-7-6" />
    </linearGradient>
    <linearGradient
       inkscape:collect="always"
       xlink:href="#linearGradient4300-8-4"
       id="linearGradient4188"
       x1="43"
       y1="40"
       x2="13"
       y2="4"
       gradientUnits="userSpaceOnUse" />
    <linearGradient
       inkscape:collect="always"
       xlink:href="#linearGradient4227"
       id="linearGradient4319"
       x1="24.131727"
       y1="27.131727"
       x2="38"
       y2="41"
       gradientUnits="userSpaceOnUse" />
  </defs>
  <sodipodi:namedview
     id="base"
     pagecolor="#ffffff"
     bordercolor="#666666"
     borderopacity="1.0"
     inkscape:pageopacity="0"
     inkscape:pageshadow="2"
     inkscape:zoom="1"
     inkscape:cx="27.479701"
     inkscape:cy="8.5004875"
     inkscape:document-units="px"
     inkscape:current-layer="layer1"
     showgrid="false"
     fit-margin-top="0"
     fit-margin-left="0"
     fit-margin-right="0"
     fit-margin-bottom="0"
     inkscape:window-width="1561"
     inkscape:window-height="1165"
     inkscape:window-x="694"
     inkscape:window-y="61"
     inkscape:window-maximized="0"
     inkscape:showpageshadow="false"
     borderlayer="true"
     showguides="false"
     inkscape:snap-bbox="true"
     inkscape:bbox-paths="false"
     inkscape:bbox-nodes="true"
     inkscape:object-nodes="true"
     inkscape:snap-center="true">
    <inkscape:grid
       type="xygrid"
       id="grid4063" />
    <sodipodi:guide
       position="1.1650391e-05,47.999996"
       orientation="4,0"
       id="guide4146" />
    <sodipodi:guide
       position="1.1650391e-05,43.999996"
       orientation="0,48"
       id="guide4148" />
    <sodipodi:guide
       position="48.000012,43.999996"
       orientation="-4,0"
       id="guide4150" />
    <sodipodi:guide
       position="48.000012,47.999996"
       orientation="0,-48"
       id="guide4152" />
    <sodipodi:guide
       position="1.1650391e-05,4.0000264"
       orientation="4,0"
       id="guide4154" />
    <sodipodi:guide
       position="1.1650391e-05,2.6367188e-05"
       orientation="0,48"
       id="guide4156" />
    <sodipodi:guide
       position="48.000012,2.6367188e-05"
       orientation="-4,0"
       id="guide4158" />
    <sodipodi:guide
       position="48.000012,4.0000264"
       orientation="0,-48"
       id="guide4160" />
    <sodipodi:guide
       position="48.000012,48.000026"
       orientation="0,-4"
       id="guide4162" />
    <sodipodi:guide
       position="44.000012,48.000026"
       orientation="48,0"
       id="guide4164" />
    <sodipodi:guide
       position="44.000012,2.6367188e-05"
       orientation="0,4"
       id="guide4166" />
    <sodipodi:guide
       position="48.000012,2.6367188e-05"
       orientation="-48,0"
       id="guide4168" />
    <sodipodi:guide
       position="4.0000422,48.000026"
       orientation="0,-4"
       id="guide4170" />
    <sodipodi:guide
       position="4.2167969e-05,48.000026"
       orientation="48,0"
       id="guide4172" />
    <sodipodi:guide
       position="4.2167969e-05,2.6367188e-05"
       orientation="0,4"
       id="guide4174" />
    <sodipodi:guide
       position="4.0000422,43.999996"
       orientation="39.999969,0"
       id="guide4175" />
    <sodipodi:guide
       position="4.0000422,4.0000264"
       orientation="0,20"
       id="guide4177" />
    <sodipodi:guide
       position="24.000042,4.0000264"
       orientation="-39.999969,0"
       id="guide4179" />
    <sodipodi:guide
       position="24.000042,43.999996"
       orientation="0,-20"
       id="guide4181" />
    <sodipodi:guide
       position="4.0000422,23.999843"
       orientation="20,0"
       id="guide4185" />
    <sodipodi:guide
       position="44.000012,3.9998433"
       orientation="-20,0"
       id="guide4189" />
    <sodipodi:guide
       position="44.000012,23.999843"
       orientation="0,-39.999969"
       id="guide4191" />
  </sodipodi:namedview>
  <metadata
     id="metadata5458">
    <rdf:RDF>
      <cc:Work
         rdf:about="">
        <dc:format>image/svg+xml</dc:format>
        <dc:type
           rdf:resource="http://purl.org/dc/dcmitype/StillImage" />
        <dc:title />
      </cc:Work>
    </rdf:RDF>
  </metadata>
  <g
     inkscape:label="Capa 1"
     inkscape:groupmode="layer"
     id="layer1"
     transform="translate(-384.57143,-499.798)">
    <path
       style="opacity:1;fill:url(#linearGradient4188);fill-opacity:1;stroke:none;stroke-width:6;stroke-linecap:round;stroke-linejoin:round;stroke-miterlimit:4;stroke-dasharray:none;stroke-opacity:1"
       d="M 11 4 C 9.3380022 4 8 5.3380022 8 7 L 8 29.083984 A 7.9999943 7.9999943 0 0 0 4 36 A 7.9999943 7.9999943 0 0 0 12 44 A 7.9999943 7.9999943 0 0 0 18.919922 40 L 41 40 C 42.661998 40 44 38.661998 44 37 L 44 7 C 44 5.3380022 42.661998 4 41 4 L 11 4 z "
       transform="translate(384.57143,499.798)"
       id="path4177" />
    <path
       style="opacity:0.2;fill:url(#linearGradient4319);fill-opacity:1;stroke:none;stroke-width:6;stroke-linecap:round;stroke-linejoin:round;stroke-miterlimit:4;stroke-dasharray:none;stroke-opacity:1"
       d="M 15 10 L 12 12 L 19 19 L 12 20 L 18 26 L 12 28 L 24 40 L 41 40 C 42.662 40 44 38.662 44 37 L 44 28.402344 L 31.798828 16.201172 L 29.808594 18.191406 L 23 12 L 15 10 z M 14.828125 33.171875 L 9.171875 38.828125 L 14.060547 43.71875 A 7.9999943 7.9999943 0 0 0 18.919922 40 L 21.658203 40 L 14.828125 33.171875 z "
       transform="translate(384.57143,499.798)"
       id="rect4307" />
    <path
       style="opacity:1;fill:#b86333;fill-opacity:1;stroke:none;stroke-width:6;stroke-linecap:round;stroke-linejoin:round;stroke-miterlimit:4;stroke-dasharray:none;stroke-opacity:1"
       d="M 4.0234375 35.488281 A 7.9999943 7.9999943 0 0 0 4 36 A 7.9999943 7.9999943 0 0 0 12 44 A 7.9999943 7.9999943 0 0 0 18.919922 40 L 41 40 C 42.661998 40 44 38.661998 44 37 L 44 36 C 44 37.662 42.662 39 41 39 L 18.919922 39 A 7.9999943 7.9999943 0 0 1 12 43 A 7.9999943 7.9999943 0 0 1 4.0234375 35.488281 z "
       transform="translate(384.57143,499.798)"
       id="path4279" />
    <path
       style="opacity:1;fill:#ffffff;fill-opacity:1;stroke:none;stroke-width:6;stroke-linecap:round;stroke-linejoin:round;stroke-miterlimit:4;stroke-dasharray:none;stroke-opacity:1"
       d="M 12 8 L 12 12 A 24 24 0 0 1 36 36 L 40 36 A 28 28 0 0 0 12 8 z M 12 16 L 12 20 A 16 16 0 0 1 28 36 L 32 36 A 20 20 0 0 0 12 16 z M 12 24 L 12 28 A 8 8 0 0 1 20 36 L 24 36 A 12 12 0 0 0 12 24 z M 12 32 A 4 4 0 0 0 8 36 A 4 4 0 0 0 12 40 A 4 4 0 0 0 16 36 A 4 4 0 0 0 12 32 z "
       transform="translate(384.57143,499.798)"
       id="path4190" />
    <path
       style="fill:#3a3a3a;fill-opacity:1;fill-rule:evenodd;stroke:none;stroke-width:1px;stroke-linecap:butt;stroke-linejoin:miter;stroke-opacity:1"
       d="m 402.29822,518.6838 c -5.33509,-3.08022 -10.281,-4.78104 -11.67017,-4.42838 -1.38919,0.35266 -2,3.4641 -1.33246,8.46831 0.66754,5.00421 8.55935,11.86995 13.7269,9.07993 5.16754,-2.79002 5.16754,-2.79002 6.05672,-2.27665 0.88918,0.51337 0.88918,0.51337 1.05672,6.3836 0.16755,5.87024 10.05936,9.27188 14.7269,7.34788 4.66754,-1.924 7.05673,-4.0087 6.66754,-5.3881 -0.38917,-1.37939 -4.33508,-4.81226 -9.67017,-7.89247 -5.33508,-3.08022 -9.11345,-0.64286 -11.78099,-2.18296 -2.66754,-1.54011 -2.44591,-6.03095 -7.78099,-9.11116 z m -1.89301,0.31888 c 1.58206,0.93083 2.77778,1.96684 3.59061,2.86914 2.16754,2.40613 3.08806,4.44513 2.79183,5.46388 -0.29625,1.01874 0.0308,1.7211 -4.65808,3.5961 -3.94313,1.57679 -8.94423,-2.80494 -10.6118,-6.07707 -1.66755,-3.27216 -2.00057,-6.62181 1.2778,-8.19314 1.63918,-0.78567 3.43276,0.33501 5.89944,1.45297 0.61353,0.27813 1.18286,0.57785 1.71017,0.88818 z m 22.12534,12.77407 c 0.53236,0.30158 1.07664,0.64469 1.62426,1.03695 2.20152,1.57724 4.06886,2.57018 4.20804,4.38259 0.27836,3.62481 -2.78907,5.01121 -6.45658,5.20317 -3.66754,0.19194 -9.96277,-1.94828 -10.56879,-6.15155 -0.72064,-4.99821 0.0511,-5.06614 0.78528,-5.83206 0.73415,-0.76593 2.96024,-0.98822 6.12778,-0.31414 1.18782,0.25278 2.68289,0.77028 4.28004,1.67498 z"
       id="path4426"
       inkscape:connector-curvature="0" />
  </g>
</svg>
