<?xml version="1.0" encoding="UTF-8" standalone="no"?>
<!-- Created with Inkscape (http://www.inkscape.org/) -->

<svg
   xmlns:dc="http://purl.org/dc/elements/1.1/"
   xmlns:cc="http://creativecommons.org/ns#"
   xmlns:rdf="http://www.w3.org/1999/02/22-rdf-syntax-ns#"
   xmlns:svg="http://www.w3.org/2000/svg"
   xmlns="http://www.w3.org/2000/svg"
   xmlns:xlink="http://www.w3.org/1999/xlink"
   xmlns:sodipodi="http://sodipodi.sourceforge.net/DTD/sodipodi-0.dtd"
   xmlns:inkscape="http://www.inkscape.org/namespaces/inkscape"
   width="48px"
   height="48px"
   id="svg2985"
   version="1.1"
   inkscape:version="0.91 r13725"
   sodipodi:docname="amarok.svg">
  <defs
     id="defs2987">
    <linearGradient
       inkscape:collect="always"
       id="linearGradient4779">
      <stop
         style="stop-color:#34495e;stop-opacity:1;"
         offset="0"
         id="stop4781" />
      <stop
         style="stop-color:#34495e;stop-opacity:0;"
         offset="1"
         id="stop4783" />
    </linearGradient>
    <linearGradient
       inkscape:collect="always"
       id="linearGradient4676">
      <stop
         style="stop-color:#3dddfd;stop-opacity:1"
         offset="0"
         id="stop4678" />
      <stop
         style="stop-color:#3daefd;stop-opacity:0;"
         offset="1"
         id="stop4680" />
    </linearGradient>
    <linearGradient
       inkscape:collect="always"
       id="linearGradient4470">
      <stop
         style="stop-color:#000000;stop-opacity:1;"
         offset="0"
         id="stop4472" />
      <stop
         style="stop-color:#000000;stop-opacity:0;"
         offset="1"
         id="stop4474" />
    </linearGradient>
    <linearGradient
       inkscape:collect="always"
       id="linearGradient4392">
      <stop
         style="stop-color:#0fb914;stop-opacity:1"
         offset="0"
         id="stop4394" />
      <stop
         style="stop-color:#b1ea1f;stop-opacity:1"
         offset="1"
         id="stop4396" />
    </linearGradient>
    <linearGradient
       inkscape:collect="always"
       id="linearGradient4352">
      <stop
         style="stop-color:#2980b9;stop-opacity:1"
         offset="0"
         id="stop4354" />
      <stop
         style="stop-color:#34495e;stop-opacity:1"
         offset="1"
         id="stop4356" />
    </linearGradient>
    <linearGradient
       inkscape:collect="always"
       id="linearGradient4334">
      <stop
         style="stop-color:#faf8f8;stop-opacity:1"
         offset="0"
         id="stop4336" />
      <stop
         style="stop-color:#bfd2d2;stop-opacity:1"
         offset="1"
         id="stop4338" />
    </linearGradient>
    <linearGradient
       inkscape:collect="always"
       id="linearGradient4271">
      <stop
         style="stop-color:#2980b9;stop-opacity:1;"
         offset="0"
         id="stop4273" />
      <stop
         style="stop-color:#1d99f3;stop-opacity:1"
         offset="1"
         id="stop4275" />
    </linearGradient>
    <linearGradient
       id="linearGradient4501">
      <stop
         id="stop4503"
         offset="0"
         style="stop-color:#f67400;stop-opacity:1;" />
      <stop
         id="stop4505"
         offset="1"
         style="stop-color:#ed1515;stop-opacity:1;" />
    </linearGradient>
    <linearGradient
       id="linearGradient4491">
      <stop
         style="stop-color:#212329;stop-opacity:1;"
         offset="0"
         id="stop4493" />
      <stop
         style="stop-color:#31363b;stop-opacity:1;"
         offset="1"
         id="stop4495" />
    </linearGradient>
    <linearGradient
       y2="561.69012"
       x2="414.09818"
       y1="539.0874"
       x1="390.87805"
       gradientTransform="matrix(1.1713132,0,0,1.1713132,-442.46606,-613.17725)"
       gradientUnits="userSpaceOnUse"
       id="linearGradient3097"
       xlink:href="#linearGradient4227-4"
       inkscape:collect="always" />
    <linearGradient
       id="linearGradient4227-4"
       inkscape:collect="always">
      <stop
         id="stop4229-6"
         offset="0"
         style="stop-color:#292c2f;stop-opacity:1" />
      <stop
         id="stop4231-9"
         offset="1"
         style="stop-color:#000000;stop-opacity:0;" />
    </linearGradient>
    <linearGradient
       inkscape:collect="always"
       xlink:href="#linearGradient4271"
       id="linearGradient4269"
       x1="4"
       y1="24"
       x2="44"
       y2="24"
       gradientUnits="userSpaceOnUse" />
    <linearGradient
       inkscape:collect="always"
       xlink:href="#linearGradient4271"
       id="linearGradient4277"
       x1="13.744388"
       y1="35.113716"
       x2="41.851883"
       y2="17.436045"
       gradientUnits="userSpaceOnUse" />
    <linearGradient
       inkscape:collect="always"
       xlink:href="#linearGradient4271"
       id="linearGradient4317"
       gradientUnits="userSpaceOnUse"
       x1="13.744388"
       y1="35.113716"
       x2="41.851883"
       y2="17.436045" />
    <linearGradient
       inkscape:collect="always"
       xlink:href="#linearGradient4334"
       id="linearGradient4340"
       x1="8.7400389"
       y1="8.8578644"
       x2="38.608311"
       y2="39.617008"
       gradientUnits="userSpaceOnUse" />
    <linearGradient
       inkscape:collect="always"
       xlink:href="#linearGradient4352"
       id="linearGradient4350"
       x1="3.7831216"
       y1="23.644142"
       x2="19.573605"
       y2="22.495094"
       gradientUnits="userSpaceOnUse" />
    <linearGradient
       inkscape:collect="always"
       xlink:href="#linearGradient4392"
       id="linearGradient4398"
       x1="29.03688"
       y1="47.083157"
       x2="4.9513278"
       y2="15.694253"
       gradientUnits="userSpaceOnUse" />
    <linearGradient
       inkscape:collect="always"
       xlink:href="#linearGradient4470"
       id="linearGradient4524"
       x1="13.0625"
       y1="6.4111328"
       x2="23.636116"
       y2="16.984749"
       gradientUnits="userSpaceOnUse" />
    <radialGradient
       inkscape:collect="always"
       xlink:href="#linearGradient4676"
       id="radialGradient4682"
       cx="23.726028"
       cy="17.797644"
       fx="23.726028"
       fy="17.797644"
       r="17.43457"
       gradientTransform="matrix(0.27823594,0.48338486,-0.54684901,0.31476585,29.315873,0.67057)"
       gradientUnits="userSpaceOnUse" />
    <linearGradient
       inkscape:collect="always"
       xlink:href="#linearGradient4779"
       id="linearGradient4785"
       x1="27.462757"
       y1="32.933868"
       x2="28.681623"
       y2="39.474606"
       gradientUnits="userSpaceOnUse" />
    <linearGradient
       inkscape:collect="always"
       xlink:href="#linearGradient4470"
       id="linearGradient4795"
       x1="15"
       y1="28"
       x2="21"
       y2="34"
       gradientUnits="userSpaceOnUse" />
  </defs>
  <sodipodi:namedview
     id="base"
     pagecolor="#ffffff"
     bordercolor="#666666"
     borderopacity="1.0"
     inkscape:pageopacity="0.0"
     inkscape:pageshadow="2"
     inkscape:zoom="1"
     inkscape:cx="20.594278"
     inkscape:cy="29.545465"
     inkscape:current-layer="layer1"
     showgrid="false"
     inkscape:grid-bbox="true"
     inkscape:document-units="px"
     inkscape:snap-global="true"
     inkscape:window-width="1440"
     inkscape:window-height="826"
     inkscape:window-x="1920"
     inkscape:window-y="0"
     inkscape:window-maximized="1"
     inkscape:snap-bbox="true"
     inkscape:bbox-nodes="true">
    <inkscape:grid
       type="xygrid"
       id="grid2993" />
  </sodipodi:namedview>
  <metadata
     id="metadata2990">
    <rdf:RDF>
      <cc:Work
         rdf:about="">
        <dc:format>image/svg+xml</dc:format>
        <dc:type
           rdf:resource="http://purl.org/dc/dcmitype/StillImage" />
        <dc:title />
      </cc:Work>
    </rdf:RDF>
  </metadata>
  <g
     id="layer1"
     inkscape:label="Layer 1"
     inkscape:groupmode="layer">
    <path
       style="color:#000000;display:inline;overflow:visible;visibility:visible;opacity:1;fill:url(#linearGradient4269);fill-opacity:1.0;fill-rule:nonzero;stroke:none;stroke-width:3;stroke-linecap:round;stroke-linejoin:round;stroke-miterlimit:4;stroke-dasharray:none;stroke-opacity:1;marker:none;enable-background:accumulate"
       d="M 24 4 A 20 20 0 0 0 4 24 A 20 20 0 0 0 24 44 A 20 20 0 0 0 44 24 A 20 20 0 0 0 24 4 z M 24 6 A 18 18 0 0 1 42 24 A 18 18 0 0 1 24 42 A 18 18 0 0 1 6 24 A 18 18 0 0 1 24 6 z "
       id="path4187" />
    <path
       style="color:#000000;display:inline;overflow:visible;visibility:visible;opacity:1;fill:#34495e;fill-opacity:1;fill-rule:nonzero;stroke:none;stroke-width:3;stroke-linecap:round;stroke-linejoin:round;stroke-miterlimit:4;stroke-dasharray:none;stroke-opacity:1;marker:none;enable-background:accumulate"
       d="M 4.0117188 23.5 C 4.0076161 23.666684 4 23.832329 4 24 C 4 35.045695 12.954305 44 24 44 C 35.045695 44 44 35.045695 44 24 C 44 23.832329 43.992384 23.666684 43.988281 23.5 C 43.722116 34.313936 34.878024 43 24 43 C 13.121976 43 4.277884 34.313936 4.0117188 23.5 z "
       id="path4187-3" />
    <circle
       style="color:#000000;display:inline;overflow:visible;visibility:visible;opacity:1;fill:url(#linearGradient4340);fill-opacity:1;fill-rule:nonzero;stroke:none;stroke-width:3;stroke-linecap:round;stroke-linejoin:round;stroke-miterlimit:4;stroke-dasharray:none;stroke-opacity:1;marker:none;enable-background:accumulate"
       id="path4332"
       cx="24.823223"
       cy="23.353554"
       r="19" />
    <path
       style="fill:url(#linearGradient4524);fill-rule:evenodd;stroke:none;stroke-width:1px;stroke-linecap:butt;stroke-linejoin:miter;stroke-opacity:1;fill-opacity:1;opacity:0.2"
       d="M 15.697266 5.8222656 C 15.062516 6.1127136 14.44855 6.4362355 13.851562 6.7890625 L 11.5625 9.8125 L 5.25 18.375 L 4.1875 24.75 L 6 30.5 L 10.0625 30.3125 L 27.21875 17.34375 L 15.697266 5.8222656 z "
       id="path4478" />
    <path
       style="fill:#2980b9;fill-opacity:1;fill-rule:evenodd;stroke:none;stroke-width:1px;stroke-linecap:butt;stroke-linejoin:miter;stroke-opacity:1"
       d="m 12.0625,26.0625 c -1.25,0.625 -3.75,1.8125 -3.75,1.8125 l 0.25,0.4375 c 0,0 -1.625,1.0625 -2.4375,1.1875 -0.8125,0.125 1.625,4.0625 1.625,4.0625 l 3.875,4.625 1.5,0.6875 2.5625,-2.6875 z"
       id="path4261"
       inkscape:connector-curvature="0"
       sodipodi:nodetypes="cccsccccc" />
    <path
       style="fill:#34495e;fill-rule:evenodd;stroke:none;stroke-width:1px;stroke-linecap:butt;stroke-linejoin:miter;stroke-opacity:1;opacity:0.2"
       d="m 6.9375,33.4375 c 0,0 3.0625,-0.125 3.125,-0.6875 0.0625,-0.5625 -0.25,-0.9375 -0.25,-0.9375 l 3.375,-1.75 L 14.875,39.75 12.125,39.5625 9.3125,37.25 Z"
       id="path4750"
       inkscape:connector-curvature="0" />
    <g
       id="g4254">
      <path
         sodipodi:nodetypes="csscssscsccsccccsccsccscsscccc"
         inkscape:connector-curvature="0"
         id="path4211"
         d="m 37.722678,20.726373 c 0,0 3.303379,-4.89437 3.89843,-5.461312 0.631071,-0.601261 0.937881,-1.338769 0.937881,-2.045876 0,-0.707107 -0.618718,-1.811961 -0.618718,-1.811961 0,0 -0.883883,-0.265165 -2.607456,0 -1.723573,0.265165 -5.61266,1.59099 -6.850097,1.900349 -1.237437,0.30936 -1.811961,0.530331 -3.800699,0.397748 -1.988738,-0.132582 -4.728777,-0.397748 -4.728777,-0.397748 0,0 0.353554,0.176777 0.265165,0.353554 -0.08839,0.176777 -0.751301,0.397747 -0.751301,0.397747 l -0.265165,0.397748 c 0,0 -2.298097,1.237437 -3.889087,1.414214 -1.59099,0.176776 -7.247845,9.501747 -7.247845,9.501747 l 3.005204,12.020815 8.220116,5.634757 8.04334,-1.524698 c 0,0 -1.686171,-0.475743 -1.988737,-1.546797 -0.372641,-1.319107 -0.441942,-1.370019 -0.441942,-1.370019 l 0.353553,-0.530331 c 0,0 0.08286,-1.528758 0.795496,-3.756504 0.630817,-1.971974 2.209708,-4.065864 2.209708,-4.065864 l 0.176777,0.441942 c 0,0 1.104854,-2.386486 1.635184,-2.916816 0.53033,-0.53033 0.839689,-0.132582 0.839689,-0.132582 0,0 0.08839,-1.149049 0.83969,-1.767767 0.751301,-0.618719 4.331029,-1.502602 5.08233,-1.679379 0.751301,-0.176776 1.458407,-1.370019 1.502602,-1.723573 0.04419,-0.353553 -0.220971,-1.016466 -0.220971,-1.016466 L 40.12831,20.99736 Z"
         style="fill:url(#linearGradient4277);fill-rule:evenodd;stroke:none;stroke-width:1px;stroke-linecap:butt;stroke-linejoin:miter;stroke-opacity:1;fill-opacity:1.0" />
    </g>
    <path
       style="fill:url(#linearGradient4795);fill-rule:evenodd;stroke:none;stroke-width:1px;stroke-linecap:butt;stroke-linejoin:miter;stroke-opacity:1;fill-opacity:1;opacity:0.2"
       d="m 15,27 7,7 -8,0 z"
       id="path4787"
       inkscape:connector-curvature="0" />
    <path
       style="fill:url(#linearGradient4398);fill-opacity:1;fill-rule:evenodd;stroke:none;stroke-width:1px;stroke-linecap:butt;stroke-linejoin:miter;stroke-opacity:1"
       d="m 15,5 -3,1 c 0,0 -1.242188,2.8222656 -2.2421875,3.8222656 -1.5811388,1.5811384 -6,6.0000004 -6,14.0000004 C 3.7578125,29.822266 6,35 11,39 7,34 6,30 6,24 c 0,-8 6,-9 6,-9 l 0,22.775391 c 0,2.224609 2.462547,5.773876 5.884766,7.195312 4.337807,1.797202 8.882761,0.771374 10.15039,-2.291015 1.267172,-3.061238 -1.220403,-6.998514 -5.55664,-8.794922 C 19.887499,32.8112 17.089338,32.708891 15,33.611328 Z"
       id="path4206"
       inkscape:connector-curvature="0"
       sodipodi:nodetypes="ccsscscscsccc" />
    <path
       style="fill:url(#linearGradient4317);fill-opacity:1;fill-rule:evenodd;stroke:none;stroke-width:1px;stroke-linecap:butt;stroke-linejoin:miter;stroke-opacity:1"
       d="m 19.3125,15.871094 c -1.59099,0.176776 -2.917395,-0.30913 -3.712891,0.132812 -0.795495,0.441942 -3.314072,1.54611 -4.595703,1.855469 -1.2816306,0.30936 -3.2265622,0.972656 -3.2265622,0.972656 l 0.4433593,0.265625 -0.53125,0.132813 c 0,0 0.4150134,1.496038 1.0175781,2.738281 0.6963841,1.43566 2.2348278,3.112585 4.2109378,3.736328 1.29493,0.408734 2.08184,1.310586 2.08184,1.310586 l 4.082222,1.007774 c 0,0 0.409423,-12.172228 0.230469,-12.152344 z"
       id="path4211-50"
       inkscape:connector-curvature="0"
       sodipodi:nodetypes="ssscccssccs" />
    <path
       style="opacity:0.72699998;fill:url(#radialGradient4682);fill-opacity:1;fill-rule:evenodd;stroke:none;stroke-width:1px;stroke-linecap:butt;stroke-linejoin:miter;stroke-opacity:1"
       d="m 41.625,10.5 c 0,0 -0.59375,0.09375 -0.9375,0.15625 -0.34375,0.0625 -1.34375,0.625 -1.34375,0.625 0,0 0.122866,0.06789 0.189453,0.105469 -0.07308,0.0097 -0.12479,0.0078 -0.201172,0.01953 -1.723573,0.265165 -5.612172,1.591032 -6.849609,1.900391 -1.237437,0.30936 -1.812043,0.53102 -3.800781,0.398437 -1.988738,-0.132582 -4.728516,-0.398437 -4.728516,-0.398437 0,0 0.354014,0.176738 0.265625,0.353515 -0.08839,0.176777 -0.751953,0.398438 -0.751953,0.398438 l -0.265625,0.398437 c 0,0 -2.297682,1.237286 -3.888672,1.414063 -1.59099,0.176776 -2.917395,-0.30913 -3.712891,0.132812 -0.795495,0.441942 -3.314072,1.54611 -4.595703,1.855469 -1.28163,0.30936 -3.2265622,0.972656 -3.2265622,0.972656 l 0.4433593,0.265625 -0.53125,0.132813 c 0,0 0.4150134,1.496038 1.0175781,2.738281 0.595061,1.226773 1.7773298,2.735563 3.3671878,3.443359 l 2.058593,0.730469 0.841797,0.81836 0.02539,0 0,6.65039 c 2.089337,-0.902437 4.887499,-0.800128 7.478516,0.273438 3.122134,1.293432 5.275615,3.696939 5.769531,6.083984 0.709039,0.134602 1.145626,0.15809 1.097656,-0.01172 -0.372641,-1.319107 -0.443359,-1.371093 -0.443359,-1.371093 l 0.353515,-0.529297 c 0,0 0.08424,-1.528114 0.796875,-3.75586 0.630817,-1.971974 2.208985,-4.066406 2.208985,-4.066406 l 0.177734,0.441406 c 0,0 1.104436,-2.385685 1.634766,-2.916015 0.53033,-0.53033 0.839843,-0.132813 0.839843,-0.132813 0,0 0.08854,-1.14886 0.839844,-1.767578 0.751301,-0.618719 4.330731,-1.502911 5.082032,-1.679687 0.7513,-0.176778 1.457758,-1.371056 1.501953,-1.72461 0.04419,-0.353553 -0.220704,-1.015625 -0.220703,-1.015625 l -1.064454,-0.236328 c -0.0084,-0.006 -0.01998,-0.01162 -0.0293,-0.01758 0.03381,-0.16971 -0.368429,-0.762147 -0.517579,-0.708985 -0.08216,0.02928 -0.159217,0.212965 -0.21875,0.392579 C 39.902045,20.724484 39.55181,20.558403 39.53125,20.25 39.5,19.78125 40.5,17.0625 40.78125,16.625 c 0.28125,-0.4375 1.125,-1.65625 1.125,-1.65625 0,0 -0.04546,0.02474 -0.05078,0.02734 0.462678,-0.546171 0.703125,-1.170691 0.703125,-1.777344 0,-0.394657 -0.175375,-0.862926 -0.345703,-1.244141 C 42.217886,11.978899 42.25,12 42.25,12 c 0,0 0,-0.3125 -0.1875,-0.75 C 41.875,10.8125 41.625,10.5 41.625,10.5 Z"
       id="path4211-3"
       inkscape:connector-curvature="0" />
    <path
       style="fill:url(#linearGradient4350);fill-rule:evenodd;stroke:none;stroke-width:1px;stroke-linecap:butt;stroke-linejoin:miter;stroke-opacity:1;fill-opacity:1"
       d="m 10.90625,24 c 2.0625,1.4375 2.90625,1.09375 3.4375,1.5 0.53125,0.40625 1.25,0.90625 2.5,0.71875 1.25,-0.1875 3.125,-1.09375 2.65625,-2.46875 -0.46875,-1.375 -1.75,-1.65625 -3.625,-1.375 -1.875,0.28125 -2.75,-0.15625 -3.0625,-0.03125 -0.3125,0.125 -0.53125,0.53125 -0.53125,0.53125 0,0 -0.3125,-0.4375 -0.15625,-0.59375 C 12.28125,22.125 11.9375,21.5 11.9375,21.5 c 0,0 0.21875,0.125 0.375,0.09375 0.15625,-0.03125 0.96875,-0.5625 0.8125,-1.21875 -0.15625,-0.65625 -0.78125,-1.28125 -1.15625,-1.0625 -0.375,0.21875 -0.3125,0.5625 -0.3125,0.5625 0,0 -0.34375,-0.1875 -0.3125,-0.40625 C 11.375,19.25 11.65625,18.90625 11.15625,18.75 10.65625,18.59375 8.84375,19.4375 8.625,19.65625 8.40625,19.875 8.59375,22.125 10.90625,24 Z"
       id="path4342"
       inkscape:connector-curvature="0" />
    <path
       style="fill:#1c7e46;fill-opacity:1;fill-rule:evenodd;stroke:none;stroke-width:1px;stroke-linecap:butt;stroke-linejoin:miter;stroke-opacity:1"
       d="M 12 14 C 12 14 6 15 6 23 C 6 23.23103 6.0125456 23.440745 6.015625 23.666016 C 6.1868864 15.985131 12 15 12 15 L 12 14 z M 3.7714844 23.408203 C 3.7687447 23.547846 3.7578125 23.680374 3.7578125 23.822266 C 3.7578125 29.822266 6 35 11 39 C 10.240992 38.05124 9.6210907 37.143339 9.0644531 36.246094 C 5.5609446 32.670982 3.8937108 28.32487 3.7714844 23.408203 z M 12 36.775391 L 12 37.775391 C 12 40 14.462548 43.549267 17.884766 44.970703 C 22.222573 46.767905 26.767527 45.742076 28.035156 42.679688 C 28.319357 41.993114 28.406018 41.262154 28.333984 40.521484 C 28.287877 40.916785 28.190216 41.305094 28.035156 41.679688 C 26.767527 44.742076 22.222573 45.767905 17.884766 43.970703 C 14.462548 42.549267 12 39 12 36.775391 z "
       id="path4206-1" />
    <path
       style="fill:url(#linearGradient4785);fill-opacity:1;fill-rule:evenodd;stroke:none;stroke-width:1px;stroke-linecap:butt;stroke-linejoin:miter;stroke-opacity:1;opacity:0.2"
       d="M 41.898438 10.941406 L 41.365234 11.230469 C 41.365234 11.230469 41.276958 13.617113 40.304688 14.324219 C 39.332416 15.031326 32.967906 17.41686 31.730469 18.654297 C 30.493032 19.891733 29.787336 27.935894 27.666016 29.261719 C 25.544696 30.587544 21.83268 29.173368 20.330078 28.908203 C 19.282382 28.723316 16.579091 29.51415 15 30.017578 L 15 33.611328 C 17.089337 32.708891 19.887499 32.8112 22.478516 33.884766 C 25.60065 35.178198 27.754131 37.581705 28.248047 39.96875 C 28.957086 40.103352 29.393673 40.126841 29.345703 39.957031 C 28.973062 38.637924 28.902344 38.585938 28.902344 38.585938 L 29.255859 38.056641 C 29.255859 38.056641 29.340099 36.528527 30.052734 34.300781 C 30.683551 32.328807 32.261719 30.234375 32.261719 30.234375 L 32.439453 30.675781 C 32.439453 30.675781 33.543889 28.290096 34.074219 27.759766 C 34.604549 27.229436 34.914062 27.626953 34.914062 27.626953 C 34.914062 27.626953 35.002602 26.478093 35.753906 25.859375 C 36.505207 25.240656 40.084637 24.356464 40.835938 24.179688 C 41.587238 24.00291 42.293696 22.808632 42.337891 22.455078 C 42.382081 22.101525 42.117187 21.439453 42.117188 21.439453 L 41.052734 21.203125 C 41.044334 21.197125 41.032758 21.191507 41.023438 21.185547 C 41.057248 21.015837 40.655009 20.4234 40.505859 20.476562 C 40.423699 20.505842 40.346642 20.689527 40.287109 20.869141 C 39.90205 20.724488 39.55181 20.558403 39.53125 20.25 C 39.5 19.78125 40.5 17.0625 40.78125 16.625 C 41.0625 16.1875 41.90625 14.96875 41.90625 14.96875 C 41.90625 14.96875 41.860789 14.993494 41.855469 14.996094 C 42.318147 14.449923 42.558594 13.825403 42.558594 13.21875 C 42.558594 12.824093 42.383219 12.355824 42.212891 11.974609 C 42.217891 11.978909 42.25 12 42.25 12 C 42.25 12 42.25 11.6875 42.0625 11.25 C 42.008933 11.125014 41.954919 11.041617 41.898438 10.941406 z "
       id="path4211-3-1" />
    <g
       id="g4742">
      <path
         style="fill:#192629;fill-opacity:1;fill-rule:evenodd;stroke:none;stroke-width:1px;stroke-linecap:butt;stroke-linejoin:miter;stroke-opacity:1"
         d="m 42.25,12 c 0,0 -0.3125,-0.28125 -0.65625,-0.3125 -0.34375,-0.03125 -1.0625,0.09375 -1.28125,0.0625 -0.21875,-0.03125 -0.96875,-0.46875 -0.96875,-0.46875 0,0 1,-0.5625 1.34375,-0.625 C 41.03125,10.59375 41.625,10.5 41.625,10.5 c 0,0 0.25,0.3125 0.4375,0.75 C 42.25,11.6875 42.25,12 42.25,12 Z"
         id="path4213"
         inkscape:connector-curvature="0" />
      <path
         inkscape:connector-curvature="0"
         id="path4358-2"
         d="m 40.986748,21.228528 c -0.675106,0.09022 -0.804934,0.01504 -0.804934,0.01504 0,0 0.155794,-0.706755 0.32457,-0.766904 0.168777,-0.06016 0.662124,0.70675 0.480364,0.751862 z"
         style="fill:#fcfcfc;fill-rule:evenodd;stroke:none;stroke-width:1px;stroke-linecap:butt;stroke-linejoin:miter;stroke-opacity:1" />
      <path
         style="fill:#192629;fill-opacity:1;fill-rule:evenodd;stroke:none;stroke-width:1px;stroke-linecap:butt;stroke-linejoin:miter;stroke-opacity:1"
         d="m 41.90625,14.96875 c 0,0 -2.21875,1.0625 -3.28125,2.71875 -1.0625,1.65625 -1.8125,3.34375 -1.8125,3.34375 0,0 0.75,0.15625 1.4375,0.40625 0.6875,0.25 1.9375,0.3125 2.46875,0.21875 C 41.25,21.5625 41.40625,21.3125 40.875,21.09375 40.34375,20.875 39.5625,20.71875 39.53125,20.25 39.5,19.78125 40.5,17.0625 40.78125,16.625 c 0.28125,-0.4375 1.125,-1.65625 1.125,-1.65625 z"
         id="path4215"
         inkscape:connector-curvature="0" />
      <path
         style="fill:#192629;fill-rule:evenodd;stroke:none;stroke-width:1px;stroke-linecap:butt;stroke-linejoin:miter;stroke-opacity:1"
         d="m 22.578914,20.545615 c 0,0 1.757854,-1.235249 2.660536,-1.401533 0.902681,-0.166283 3.206895,-1.425287 3.515707,-1.781608 0.308812,-0.356321 1.045211,-1.116475 0.950191,-1.235249 -0.09502,-0.118774 -2.898082,-0.02376 -2.898082,-0.02376 0,0 -2.161686,0.261303 -3.064368,1.615325 -0.902681,1.354023 -1.163984,2.82682 -1.163984,2.82682 z"
         id="path4217"
         inkscape:connector-curvature="0" />
      <path
         style="fill:#fcfcfc;fill-rule:evenodd;stroke:none;stroke-width:1px;stroke-linecap:butt;stroke-linejoin:miter;stroke-opacity:1"
         d="m 23.467106,19.141204 c 0,0 2.740039,-0.552427 3.756505,-1.303728 1.016466,-0.751301 1.436311,-1.149048 1.303728,-1.414213 -0.132582,-0.265165 -1.126951,-0.662913 -2.364388,-0.353554 -1.237437,0.30936 -2.12132,1.193243 -2.364388,1.74567 -0.243068,0.552427 -0.486136,1.149049 -0.331457,1.325825 z"
         id="path4219"
         inkscape:connector-curvature="0" />
      <path
         inkscape:connector-curvature="0"
         id="path4358"
         d="m 38.955829,21.676465 c 1.006805,0.11617 1.200421,0.01937 1.200421,0.01937 0,0 -0.232339,-0.909996 -0.484041,-0.987443 -0.251701,-0.07745 -0.987442,0.90999 -0.71638,0.968075 z"
         style="fill:#fcfcfc;fill-rule:evenodd;stroke:none;stroke-width:1px;stroke-linecap:butt;stroke-linejoin:miter;stroke-opacity:1" />
    </g>
  </g>
</svg>
