<?xml version="1.0" encoding="UTF-8" standalone="no"?>
<!-- Created with Inkscape (http://www.inkscape.org/) -->

<svg
   xmlns:dc="http://purl.org/dc/elements/1.1/"
   xmlns:cc="http://creativecommons.org/ns#"
   xmlns:rdf="http://www.w3.org/1999/02/22-rdf-syntax-ns#"
   xmlns:svg="http://www.w3.org/2000/svg"
   xmlns="http://www.w3.org/2000/svg"
   xmlns:xlink="http://www.w3.org/1999/xlink"
   xmlns:sodipodi="http://sodipodi.sourceforge.net/DTD/sodipodi-0.dtd"
   xmlns:inkscape="http://www.inkscape.org/namespaces/inkscape"
   width="48px"
   height="48px"
   id="svg2985"
   version="1.1"
   inkscape:version="0.91 r13725"
   sodipodi:docname="braindump.svg">
  <defs
     id="defs2987">
    <linearGradient
       inkscape:collect="always"
       xlink:href="#linearGradient4903"
       id="linearGradient4371-1"
       x1="29.061705"
       y1="13.634429"
       x2="29.010033"
       y2="1.4991969"
       gradientUnits="userSpaceOnUse"
       gradientTransform="matrix(-0.7950082,-0.01269411,0.0033851,2.9666228,43.058139,3.020705)" />
    <linearGradient
       inkscape:collect="always"
       xlink:href="#linearGradient4303"
       id="linearGradient4371-1-70"
       x1="29.061705"
       y1="13.634429"
       x2="29.010033"
       y2="1.4991969"
       gradientUnits="userSpaceOnUse"
       gradientTransform="matrix(-0.99376025,-0.01410457,0.00423137,3.2962476,47.822674,-1.53255)" />
    <linearGradient
       inkscape:collect="always"
       xlink:href="#linearGradient4279"
       id="linearGradient4285"
       x1="10"
       y1="20"
       x2="46"
       y2="56"
       gradientUnits="userSpaceOnUse" />
    <linearGradient
       inkscape:collect="always"
       id="linearGradient4279">
      <stop
         style="stop-color:#000000;stop-opacity:1;"
         offset="0"
         id="stop4281" />
      <stop
         style="stop-color:#000000;stop-opacity:0;"
         offset="1"
         id="stop4283" />
    </linearGradient>
    <linearGradient
       inkscape:collect="always"
       id="linearGradient4903">
      <stop
         style="stop-color:#eef1f2;stop-opacity:1"
         offset="0"
         id="stop4905" />
      <stop
         style="stop-color:#f9fafb;stop-opacity:1"
         offset="1"
         id="stop4907" />
    </linearGradient>
    <linearGradient
       id="linearGradient4303"
       inkscape:collect="always">
      <stop
         id="stop4305"
         offset="0"
         style="stop-color:#c6cdd1;stop-opacity:1" />
      <stop
         id="stop4307"
         offset="1"
         style="stop-color:#e0e5e7;stop-opacity:1" />
    </linearGradient>
  </defs>
  <sodipodi:namedview
     id="base"
     pagecolor="#ffffff"
     bordercolor="#666666"
     borderopacity="1.0"
     inkscape:pageopacity="0.0"
     inkscape:pageshadow="2"
     inkscape:zoom="1"
     inkscape:cx="13.995451"
     inkscape:cy="58.857096"
     inkscape:current-layer="layer1"
     showgrid="false"
     inkscape:grid-bbox="true"
     inkscape:document-units="px"
     inkscape:snap-global="true"
     inkscape:window-width="1523"
     inkscape:window-height="1250"
     inkscape:window-x="1009"
     inkscape:window-y="82"
     inkscape:window-maximized="0"
     inkscape:snap-bbox="true"
     inkscape:bbox-nodes="true"
     inkscape:object-nodes="true"
     inkscape:snap-nodes="true"
     inkscape:snap-others="false"
     showguides="false"
     inkscape:snap-smooth-nodes="true">
    <inkscape:grid
       type="xygrid"
       id="grid2993" />
  </sodipodi:namedview>
  <metadata
     id="metadata2990">
    <rdf:RDF>
      <cc:Work
         rdf:about="">
        <dc:format>image/svg+xml</dc:format>
        <dc:type
           rdf:resource="http://purl.org/dc/dcmitype/StillImage" />
        <dc:title />
      </cc:Work>
    </rdf:RDF>
  </metadata>
  <g
     id="layer1"
     inkscape:label="Layer 1"
     inkscape:groupmode="layer">
    <path
       sodipodi:nodetypes="ccccc"
       inkscape:connector-curvature="0"
       id="rect4174-4-7-4"
       d="M 4,4 44,4 44,44 4.0000001,44 Z"
       style="opacity:1;fill:url(#linearGradient4371-1-70);fill-opacity:1.0;stroke:none;stroke-width:2;stroke-linecap:round;stroke-linejoin:bevel;stroke-miterlimit:4;stroke-dasharray:none;stroke-opacity:1" />
    <path
       style="opacity:0.2;fill:url(#linearGradient4285);fill-opacity:1;fill-rule:evenodd;stroke:none;stroke-width:1px;stroke-linecap:butt;stroke-linejoin:miter;stroke-opacity:1"
       d="m 40,44 0,-36 4,4 0,32 z"
       id="path4277"
       inkscape:connector-curvature="0"
       sodipodi:nodetypes="ccccc" />
    <path
       sodipodi:nodetypes="ccccc"
       inkscape:connector-curvature="0"
       id="rect4174-4-7"
       d="M 8,8 40,8 40,44 8.0000001,44 Z"
       style="opacity:1;fill:url(#linearGradient4371-1);fill-opacity:1.0;stroke:none;stroke-width:2;stroke-linecap:round;stroke-linejoin:bevel;stroke-miterlimit:4;stroke-dasharray:none;stroke-opacity:1" />
    <path
       style="opacity:1;fill:#abb9be;fill-opacity:1;stroke:none;stroke-width:2;stroke-linecap:round;stroke-linejoin:bevel;stroke-miterlimit:4;stroke-dasharray:none;stroke-opacity:1"
       d="M 26 12 A 4 4 0 0 0 22 16 A 4 4 0 0 0 25.066406 19.884766 L 24.585938 24.199219 L 18.824219 20.998047 A 3 3 0 0 0 19 20 A 3 3 0 0 0 16 17 A 3 3 0 0 0 13 20 A 3 3 0 0 0 16 23 A 3 3 0 0 0 18.341797 21.873047 L 24.015625 25.025391 L 20.951172 26.941406 A 5 5 0 0 0 17 25 A 5 5 0 0 0 12 30 A 5 5 0 0 0 17 35 A 5 5 0 0 0 22 30 A 5 5 0 0 0 21.480469 27.789062 L 24.601562 25.839844 L 25.503906 33.0625 L 26.496094 32.9375 L 25.599609 25.759766 L 30.056641 27.431641 A 3 3 0 0 0 30 28 A 3 3 0 0 0 33 31 A 3 3 0 0 0 36 28 A 3 3 0 0 0 33 25 A 3 3 0 0 0 30.408203 26.494141 L 26.189453 24.912109 L 32.550781 21.376953 A 2 2 0 0 0 34 22 A 2 2 0 0 0 36 20 A 2 2 0 0 0 34 18 A 2 2 0 0 0 32 20 A 2 2 0 0 0 32.064453 20.503906 L 25.603516 24.09375 L 26.058594 19.998047 A 4 4 0 0 0 30 16 A 4 4 0 0 0 26 12 z "
       id="path4597-1-6" />
    <rect
       y="42.999973"
       x="4.0000114"
       height="0.99999309"
       width="39.999989"
       id="rect4169-4-5"
       style="fill:#2e3132;fill-opacity:0.29411765;stroke:none" />
    <path
       style="fill:#31363b;fill-opacity:1;fill-rule:evenodd;stroke:none;stroke-width:1px;stroke-linecap:butt;stroke-linejoin:miter;stroke-opacity:1"
       d="m 31,27 c -5,0 -10,2 -10,5 0,3 1,3 2.019531,3 L 26.5,35 c 0.277,0 0.5,0.223 0.5,0.5 0,0.277 -0.223,0.5 -0.5,0.5 l -1.5,0 0,1 c 0,1.5 2.076172,2 2.076172,2 L 36,39 c 0,0 3,-1.615385 3,-5 0,-3.384615 -1.230769,-7 -8,-7 z"
       id="path4569"
       inkscape:connector-curvature="0"
       sodipodi:nodetypes="szcssscsccss" />
    <rect
       style="opacity:1;fill:#31363b;fill-opacity:1;stroke:none;stroke-width:2;stroke-linecap:round;stroke-linejoin:bevel;stroke-miterlimit:4;stroke-dasharray:none;stroke-opacity:1"
       id="rect4575"
       width="2"
       height="5"
       x="32"
       y="39" />
    <path
       style="fill:#31363b;fill-opacity:1;fill-rule:evenodd;stroke:none;stroke-width:1px;stroke-linecap:butt;stroke-linejoin:miter;stroke-opacity:1"
       d="m 33.9375,39 2,0 c 0,0 0.0625,2 -2,2 z"
       id="path4571-3"
       inkscape:connector-curvature="0"
       sodipodi:nodetypes="cccc" />
  </g>
</svg>
