<?xml version="1.0" encoding="UTF-8" standalone="no"?>
<!-- Created with Inkscape (http://www.inkscape.org/) -->

<svg
   xmlns:dc="http://purl.org/dc/elements/1.1/"
   xmlns:cc="http://creativecommons.org/ns#"
   xmlns:rdf="http://www.w3.org/1999/02/22-rdf-syntax-ns#"
   xmlns:svg="http://www.w3.org/2000/svg"
   xmlns="http://www.w3.org/2000/svg"
   xmlns:xlink="http://www.w3.org/1999/xlink"
   xmlns:sodipodi="http://sodipodi.sourceforge.net/DTD/sodipodi-0.dtd"
   xmlns:inkscape="http://www.inkscape.org/namespaces/inkscape"
   width="48"
   height="48"
   id="svg5453"
   version="1.1"
   inkscape:version="0.48.4 r9939"
   sodipodi:docname="calligrakarbon.svg">
  <defs
     id="defs5455">
    <linearGradient
       inkscape:collect="always"
       id="linearGradient4237">
      <stop
         style="stop-color:#a5a9af;stop-opacity:1"
         offset="0"
         id="stop4239" />
      <stop
         style="stop-color:#dadcde;stop-opacity:1"
         offset="1"
         id="stop4241" />
    </linearGradient>
    <linearGradient
       inkscape:collect="always"
       xlink:href="#linearGradient4300-7"
       id="linearGradient4263"
       gradientUnits="userSpaceOnUse"
       gradientTransform="matrix(0.7272726,0,0,0.68965569,-383.84417,-497.86697)"
       x1="560.78583"
       y1="785.70648"
       x2="560.78583"
       y2="727.70654" />
    <linearGradient
       id="linearGradient4410-5"
       inkscape:collect="always">
      <stop
         id="stop4412-9"
         offset="0"
         style="stop-color:#383e51;stop-opacity:1" />
      <stop
         id="stop4414-3"
         offset="1"
         style="stop-color:#655c6f;stop-opacity:0" />
    </linearGradient>
    <linearGradient
       gradientTransform="translate(384.57144,499.798)"
       y2="31.999973"
       x2="32"
       y1="16"
       x1="16.000011"
       gradientUnits="userSpaceOnUse"
       id="linearGradient3042"
       xlink:href="#linearGradient4410-5"
       inkscape:collect="always" />
    <linearGradient
       inkscape:collect="always"
       id="linearGradient4300-7">
      <stop
         style="stop-color:#6c7a89;stop-opacity:1"
         offset="0"
         id="stop4302-2" />
      <stop
         style="stop-color:#768492;stop-opacity:1"
         offset="1"
         id="stop4304-4" />
    </linearGradient>
    <linearGradient
       inkscape:collect="always"
       xlink:href="#linearGradient4237"
       id="linearGradient4286"
       x1="23"
       y1="32"
       x2="23"
       y2="16"
       gradientUnits="userSpaceOnUse" />
  </defs>
  <sodipodi:namedview
     id="base"
     pagecolor="#ffffff"
     bordercolor="#666666"
     borderopacity="1.0"
     inkscape:pageopacity="0"
     inkscape:pageshadow="2"
     inkscape:zoom="11.313709"
     inkscape:cx="24.386855"
     inkscape:cy="15.566948"
     inkscape:document-units="px"
     inkscape:current-layer="layer1"
     showgrid="true"
     fit-margin-top="0"
     fit-margin-left="0"
     fit-margin-right="0"
     fit-margin-bottom="0"
     inkscape:window-width="1864"
     inkscape:window-height="1060"
     inkscape:window-x="54"
     inkscape:window-y="-3"
     inkscape:window-maximized="1"
     inkscape:showpageshadow="false"
     borderlayer="true"
     showguides="true"
     inkscape:snap-bbox="true"
     inkscape:snap-global="true"
     inkscape:bbox-nodes="false"
     inkscape:snap-others="false"
     inkscape:snap-to-guides="false">
    <inkscape:grid
       type="xygrid"
       id="grid4063" />
    <sodipodi:guide
       position="1.1650391e-05,47.999996"
       orientation="4,0"
       id="guide4146" />
    <sodipodi:guide
       position="39,44"
       orientation="0,48"
       id="guide4148" />
    <sodipodi:guide
       position="48.000012,43.999996"
       orientation="-4,0"
       id="guide4150" />
    <sodipodi:guide
       position="48.000012,47.999996"
       orientation="0,-48"
       id="guide4152" />
    <sodipodi:guide
       position="1.1650391e-05,4.0000264"
       orientation="4,0"
       id="guide4154" />
    <sodipodi:guide
       position="1.1650391e-05,2.6367188e-05"
       orientation="0,48"
       id="guide4156" />
    <sodipodi:guide
       position="48.000012,2.6367188e-05"
       orientation="-4,0"
       id="guide4158" />
    <sodipodi:guide
       position="48.000012,4.0000264"
       orientation="0,-48"
       id="guide4160" />
    <sodipodi:guide
       position="48.000012,48.000026"
       orientation="0,-4"
       id="guide4162" />
    <sodipodi:guide
       position="40,23"
       orientation="48,0"
       id="guide4164" />
    <sodipodi:guide
       position="44.000012,2.6367188e-05"
       orientation="0,4"
       id="guide4166" />
    <sodipodi:guide
       position="48.000012,2.6367188e-05"
       orientation="-48,0"
       id="guide4168" />
    <sodipodi:guide
       position="4.0000422,48.000026"
       orientation="0,-4"
       id="guide4170" />
    <sodipodi:guide
       position="4.2167969e-05,48.000026"
       orientation="48,0"
       id="guide4172" />
    <sodipodi:guide
       position="4.2167969e-05,2.6367188e-05"
       orientation="0,4"
       id="guide4174" />
    <sodipodi:guide
       position="8.0000117,43.999996"
       orientation="13.999969,0"
       id="guide4888" />
    <sodipodi:guide
       position="22.000012,43.999996"
       orientation="0,-14"
       id="guide4894" />
    <sodipodi:guide
       position="16.000012,32.000026"
       orientation="16,0"
       id="guide4216" />
    <sodipodi:guide
       position="16.000012,16.000026"
       orientation="0,16"
       id="guide4218" />
    <sodipodi:guide
       position="32.000012,16.000026"
       orientation="-16,0"
       id="guide4220" />
    <sodipodi:guide
       position="32.000012,32.000026"
       orientation="0,-16"
       id="guide4222" />
  </sodipodi:namedview>
  <metadata
     id="metadata5458">
    <rdf:RDF>
      <cc:Work
         rdf:about="">
        <dc:format>image/svg+xml</dc:format>
        <dc:type
           rdf:resource="http://purl.org/dc/dcmitype/StillImage" />
        <dc:title />
      </cc:Work>
    </rdf:RDF>
  </metadata>
  <g
     inkscape:label="Capa 1"
     inkscape:groupmode="layer"
     id="layer1"
     transform="translate(-384.57143,-499.798)">
    <path
       style="fill:url(#linearGradient4263);fill-opacity:1.0;stroke:none"
       d="M 8 4 C 7.994 4 8 7.56799 8 12 L 8 36 C 8 40.432 7.994 44 8 44 L 29.8125 44 L 40 44 C 40.006 44 40 40.432 40 36 L 40 34.34375 L 40 14 C 40 8.4771524 35.522847 4 30 4 L 8 4 z "
       transform="translate(384.57143,499.798)"
       id="path4259" />
    <rect
       style="fill:#2e3132;fill-opacity:0.29411765;stroke:none"
       id="rect4169-4"
       width="31.999989"
       height="0.99999309"
       x="392.57144"
       y="542.79797" />
    <path
       inkscape:connector-curvature="0"
       style="opacity:0.2;fill:url(#linearGradient3042);fill-opacity:1;fill-rule:evenodd;stroke:none"
       d="m 416.57144,515.798 -3.99565,-0.0442 -0.004,1.0442 -8,0 c -0.74362,0.94918 -0.38903,2.55261 -3.69062,1.97789 0.26711,0.4429 4.69062,6.02211 4.69062,6.02211 0.48248,1.05835 -2,4 -3.37139,3.86884 -0.98984,-0.0947 -1.06696,1.36941 -1.6286,1.13115 1.48498,0.83342 0.357,0.92993 0.35918,1.18241 l 12.64083,12.81759 10.99023,0 c 0.006,0 0.01,-3.568 0.01,-8 l 0,-1.65625 0,-10.34375 -8,-8 z"
       id="path4276"
       sodipodi:nodetypes="ccccccscccsscccc" />
    <path
       style="color:#000000;clip-rule:nonzero;display:inline;overflow:visible;visibility:visible;opacity:1;isolation:auto;mix-blend-mode:normal;color-interpolation:sRGB;color-interpolation-filters:linearRGB;solid-color:#000000;solid-opacity:1;fill:url(#linearGradient4286);fill-opacity:1;fill-rule:nonzero;stroke:none;stroke-width:1;stroke-linecap:butt;stroke-linejoin:miter;stroke-miterlimit:4;stroke-dasharray:none;stroke-dashoffset:0;stroke-opacity:0;color-rendering:auto;image-rendering:auto;shape-rendering:auto;text-rendering:auto;enable-background:accumulate"
       d="M 18 16 A 2 2 0 0 0 16 18 A 2 2 0 0 0 18 20 A 2 2 0 0 0 18.882812 19.792969 C 19.884598 21.006467 20.69259 22.218905 20.923828 23.462891 C 21.187436 24.880967 20.781281 26.428513 19.046875 28.296875 A 2 2 0 0 0 18 28 A 2 2 0 0 0 16 30 A 2 2 0 0 0 18 32 A 2 2 0 0 0 20 30 L 28 30 L 28 31 L 31 31 L 31 28 L 28 28 L 28 29 L 19.742188 29 C 21.649404 26.930738 22.230517 25.025696 21.90625 23.28125 C 21.621526 21.74957 20.712301 20.40835 19.646484 19.132812 A 2 2 0 0 0 20 18 L 28 18 L 28 20 L 32 20 L 32 16 L 28 16 L 28 17 L 19.730469 17 A 2 2 0 0 0 18 16 z M 18 17 A 1 1 0 0 1 19 18 A 1 1 0 0 1 18.947266 18.314453 A 1 1 0 0 1 18.912109 18.408203 A 1 1 0 0 1 18.865234 18.496094 A 1 1 0 0 1 18.75 18.660156 A 1 1 0 0 1 18.679688 18.730469 A 1 1 0 0 1 18.603516 18.794922 A 1 1 0 0 1 18.521484 18.851562 A 1 1 0 0 1 18.453125 18.890625 A 1 1 0 0 1 18.433594 18.900391 A 1 1 0 0 1 18.363281 18.931641 A 1 1 0 0 1 18.341797 18.939453 A 1 1 0 0 1 18.267578 18.962891 A 1 1 0 0 1 18.246094 18.96875 A 1 1 0 0 1 18.195312 18.980469 A 1 1 0 0 1 18 19 A 1 1 0 0 1 17 18 A 1 1 0 0 1 18 17 z M 29 17 L 31 17 L 31 19 L 29 19 L 29 17 z M 18 29 A 1 1 0 0 1 18.300781 29.046875 A 1 1 0 0 1 18.306641 29.048828 A 1 1 0 0 1 18.394531 29.082031 A 1 1 0 0 1 18.439453 29.103516 A 1 1 0 0 1 18.478516 29.123047 A 1 1 0 0 1 18.484375 29.125 A 1 1 0 0 1 18.564453 29.173828 A 1 1 0 0 1 18.568359 29.177734 A 1 1 0 0 1 18.720703 29.308594 A 1 1 0 0 1 18.783203 29.378906 A 1 1 0 0 1 18.787109 29.384766 A 1 1 0 0 1 18.84375 29.464844 A 1 1 0 0 1 18.890625 29.546875 A 1 1 0 0 1 18.892578 29.552734 A 1 1 0 0 1 18.933594 29.644531 A 1 1 0 0 1 18.962891 29.732422 A 1 1 0 0 1 18.974609 29.78125 A 1 1 0 0 1 19 29.978516 A 1 1 0 0 1 19 30 A 1 1 0 0 1 18 31 A 1 1 0 0 1 17 30 A 1 1 0 0 1 18 29 z M 29 29 L 30 29 L 30 30 L 29 30 L 29 29 z "
       transform="translate(384.57143,499.798)"
       id="path4229" />
  </g>
</svg>
