<?xml version="1.0" encoding="UTF-8" standalone="no"?>
<!-- Created with Inkscape (http://www.inkscape.org/) -->

<svg
   xmlns:dc="http://purl.org/dc/elements/1.1/"
   xmlns:cc="http://creativecommons.org/ns#"
   xmlns:rdf="http://www.w3.org/1999/02/22-rdf-syntax-ns#"
   xmlns:svg="http://www.w3.org/2000/svg"
   xmlns="http://www.w3.org/2000/svg"
   xmlns:xlink="http://www.w3.org/1999/xlink"
   xmlns:sodipodi="http://sodipodi.sourceforge.net/DTD/sodipodi-0.dtd"
   xmlns:inkscape="http://www.inkscape.org/namespaces/inkscape"
   width="48px"
   height="48px"
   id="svg2985"
   version="1.1"
   inkscape:version="0.91 r13725"
   sodipodi:docname="karbon.svg">
  <defs
     id="defs2987">
    <linearGradient
       id="linearGradient4501">
      <stop
         id="stop4503"
         offset="0"
         style="stop-color:#f67400;stop-opacity:1;" />
      <stop
         id="stop4505"
         offset="1"
         style="stop-color:#ed1515;stop-opacity:1;" />
    </linearGradient>
    <linearGradient
       id="linearGradient4491">
      <stop
         style="stop-color:#212329;stop-opacity:1;"
         offset="0"
         id="stop4493" />
      <stop
         style="stop-color:#31363b;stop-opacity:1;"
         offset="1"
         id="stop4495" />
    </linearGradient>
    <linearGradient
       y2="561.69012"
       x2="414.09818"
       y1="539.0874"
       x1="390.87805"
       gradientTransform="matrix(1.1713132,0,0,1.1713132,-442.46606,-613.17725)"
       gradientUnits="userSpaceOnUse"
       id="linearGradient3097"
       xlink:href="#linearGradient4227-4"
       inkscape:collect="always" />
    <linearGradient
       id="linearGradient4227-4"
       inkscape:collect="always">
      <stop
         id="stop4229-6"
         offset="0"
         style="stop-color:#292c2f;stop-opacity:1" />
      <stop
         id="stop4231-9"
         offset="1"
         style="stop-color:#000000;stop-opacity:0;" />
    </linearGradient>
    <inkscape:perspective
       id="perspective31"
       inkscape:persp3d-origin="372.04724 : 350.78739 : 1"
       inkscape:vp_z="744.09448 : 526.18109 : 1"
       inkscape:vp_y="0 : 1000 : 0"
       inkscape:vp_x="0 : 526.18109 : 1"
       sodipodi:type="inkscape:persp3d" />
    <linearGradient
       inkscape:collect="always"
       xlink:href="#linearGradient4298"
       id="linearGradient4371-1"
       x1="29.061705"
       y1="13.634429"
       x2="29.010033"
       y2="1.4991969"
       gradientUnits="userSpaceOnUse"
       gradientTransform="matrix(-0.7950082,-0.01428087,0.0033851,3.3374507,43.058139,2.3982931)" />
    <linearGradient
       inkscape:collect="always"
       xlink:href="#linearGradient4300-1"
       id="linearGradient4371-1-70"
       x1="29.061705"
       y1="13.634429"
       x2="29.010033"
       y2="1.4991969"
       gradientUnits="userSpaceOnUse"
       gradientTransform="matrix(-0.99376025,-0.01410457,0.00423137,3.2962476,47.822674,-1.53255)" />
    <linearGradient
       inkscape:collect="always"
       xlink:href="#linearGradient4279"
       id="linearGradient4285"
       x1="10"
       y1="20"
       x2="46"
       y2="56"
       gradientUnits="userSpaceOnUse" />
    <linearGradient
       inkscape:collect="always"
       id="linearGradient4279">
      <stop
         style="stop-color:#000000;stop-opacity:1;"
         offset="0"
         id="stop4281" />
      <stop
         style="stop-color:#000000;stop-opacity:0;"
         offset="1"
         id="stop4283" />
    </linearGradient>
    <linearGradient
       id="linearGradient4298"
       inkscape:collect="always">
      <stop
         id="stop4300"
         offset="0"
         style="stop-color:#b985ce;stop-opacity:1" />
      <stop
         id="stop4302"
         offset="1"
         style="stop-color:#e2cdeb;stop-opacity:1" />
    </linearGradient>
    <linearGradient
       inkscape:collect="always"
       id="linearGradient4300-1">
      <stop
         style="stop-color:#8e44ad;stop-opacity:1"
         offset="0"
         id="stop4302-0" />
      <stop
         style="stop-color:#9b59b6;stop-opacity:1"
         offset="1"
         id="stop4304-6" />
    </linearGradient>
  </defs>
  <sodipodi:namedview
     id="base"
     pagecolor="#ffffff"
     bordercolor="#666666"
     borderopacity="1.0"
     inkscape:pageopacity="0.0"
     inkscape:pageshadow="2"
     inkscape:zoom="1"
     inkscape:cx="24.360867"
     inkscape:cy="24.107726"
     inkscape:current-layer="layer1"
     showgrid="true"
     inkscape:grid-bbox="true"
     inkscape:document-units="px"
     inkscape:snap-global="true"
     inkscape:window-width="1523"
     inkscape:window-height="1250"
     inkscape:window-x="1009"
     inkscape:window-y="82"
     inkscape:window-maximized="0"
     inkscape:snap-bbox="true"
     inkscape:bbox-nodes="true"
     inkscape:object-nodes="true"
     inkscape:snap-nodes="true"
     inkscape:snap-others="false"
     inkscape:snap-smooth-nodes="true">
    <inkscape:grid
       type="xygrid"
       id="grid2993" />
  </sodipodi:namedview>
  <metadata
     id="metadata2990">
    <rdf:RDF>
      <cc:Work
         rdf:about="">
        <dc:format>image/svg+xml</dc:format>
        <dc:type
           rdf:resource="http://purl.org/dc/dcmitype/StillImage" />
        <dc:title />
      </cc:Work>
    </rdf:RDF>
  </metadata>
  <g
     id="layer1"
     inkscape:label="Layer 1"
     inkscape:groupmode="layer">
    <path
       sodipodi:nodetypes="ccccc"
       inkscape:connector-curvature="0"
       id="rect4174-4-7-4"
       d="M 4,4 44,4 44,44 4.0000001,44 Z"
       style="opacity:1;fill:url(#linearGradient4371-1-70);fill-opacity:1.0;stroke:none;stroke-width:2;stroke-linecap:round;stroke-linejoin:bevel;stroke-miterlimit:4;stroke-dasharray:none;stroke-opacity:1" />
    <path
       style="opacity:0.2;fill:url(#linearGradient4285);fill-opacity:1;fill-rule:evenodd;stroke:none;stroke-width:1px;stroke-linecap:butt;stroke-linejoin:miter;stroke-opacity:1"
       d="m 40,44 0,-36 4,4 0,32 z"
       id="path4277"
       inkscape:connector-curvature="0"
       sodipodi:nodetypes="ccccc" />
    <path
       sodipodi:nodetypes="ccccc"
       inkscape:connector-curvature="0"
       id="rect4174-4-7"
       d="M 8,8 40,8 40,44 8.0000001,44 Z"
       style="opacity:1;fill:url(#linearGradient4371-1);fill-opacity:1;stroke:none;stroke-width:2;stroke-linecap:round;stroke-linejoin:bevel;stroke-miterlimit:4;stroke-dasharray:none;stroke-opacity:1" />
    <rect
       y="42.999973"
       x="4.0000114"
       height="0.99999309"
       width="39.999989"
       id="rect4169-4-5"
       style="fill:#2e3132;fill-opacity:0.29411765;stroke:none" />
    <path
       style="opacity:1;fill:#31363b;fill-opacity:1;stroke:none;stroke-width:2;stroke-linecap:round;stroke-linejoin:bevel;stroke-miterlimit:4;stroke-dasharray:none;stroke-opacity:1"
       d="M 30.5 27 A 7.5 7.5 0 0 0 24.509766 30 A 1.5 1.5 0 0 0 24.5 30 A 1.5 1.5 0 0 0 23 31.5 A 1.5 1.5 0 0 0 23.304688 32.402344 A 7.5 7.5 0 0 0 23 34.5 A 7.5 7.5 0 0 0 30.5 42 A 7.5 7.5 0 0 0 35.587891 39.998047 A 2.5 2.5 0 0 0 38 37.5 A 2.5 2.5 0 0 0 37.748047 36.410156 A 7.5 7.5 0 0 0 38 34.5 A 7.5 7.5 0 0 0 30.5 27 z M 30.560547 28 A 6.4394077 6.4394077 0 0 1 37 34.439453 A 6.4394077 6.4394077 0 0 1 36.912109 35.4375 A 2.5 2.5 0 0 0 35.5 35 A 2.5 2.5 0 0 0 33 37.5 A 2.5 2.5 0 0 0 33.146484 38.335938 C 32.709422 38.276491 32.251328 38.151264 31.78125 37.904297 A 2 2 0 0 0 32 37 A 2 2 0 0 0 30 35 A 2 2 0 0 0 29.787109 35.013672 C 29.753242 34.764319 29.692844 34.487403 29.603516 34.191406 A 2 2 0 0 0 30 33 A 2 2 0 0 0 28 31 A 2 2 0 0 0 27.005859 31.267578 C 26.619247 31.138052 26.25122 31.085028 25.939453 31.082031 A 1.5 1.5 0 0 0 25.542969 30.423828 A 6.4394077 6.4394077 0 0 1 30.560547 28 z M 24.5 31 A 0.5 0.5 0 0 1 25 31.5 A 0.5 0.5 0 0 1 24.5 32 A 0.5 0.5 0 0 1 24 31.5 A 0.5 0.5 0 0 1 24.5 31 z M 28 32 A 1 1 0 0 1 29 33 A 1 1 0 0 1 28 34 A 1 1 0 0 1 27 33 A 1 1 0 0 1 28 32 z M 30 36 A 1 1 0 0 1 31 37 A 1 1 0 0 1 30 38 A 1 1 0 0 1 29 37 A 1 1 0 0 1 30 36 z M 35.5 36 A 1.5 1.5 0 0 1 37 37.5 A 1.5 1.5 0 0 1 35.5 39 A 1.5 1.5 0 0 1 34 37.5 A 1.5 1.5 0 0 1 35.5 36 z "
       id="path4321" />
    <rect
       style="opacity:1;fill:#81628f;fill-opacity:1;stroke:none;stroke-width:2;stroke-linecap:round;stroke-linejoin:bevel;stroke-miterlimit:4;stroke-dasharray:none;stroke-opacity:1"
       id="rect4331"
       width="14"
       height="2"
       x="12"
       y="21"
       ry="1" />
    <path
       style="color:#000000;font-style:normal;font-variant:normal;font-weight:normal;font-stretch:normal;font-size:medium;line-height:normal;font-family:sans-serif;text-indent:0;text-align:start;text-decoration:none;text-decoration-line:none;text-decoration-style:solid;text-decoration-color:#000000;letter-spacing:normal;word-spacing:normal;text-transform:none;direction:ltr;block-progression:tb;writing-mode:lr-tb;baseline-shift:baseline;text-anchor:start;white-space:normal;clip-rule:nonzero;display:inline;overflow:visible;visibility:visible;opacity:1;isolation:auto;mix-blend-mode:normal;color-interpolation:sRGB;color-interpolation-filters:linearRGB;solid-color:#000000;solid-opacity:1;fill:#81628f;fill-opacity:1;fill-rule:evenodd;stroke:none;stroke-width:2;stroke-linecap:round;stroke-linejoin:round;stroke-miterlimit:4;stroke-dasharray:none;stroke-dashoffset:0;stroke-opacity:1;color-rendering:auto;image-rendering:auto;shape-rendering:auto;text-rendering:auto;enable-background:accumulate"
       d="m 18.984375,10 a 1.0001,1.0001 0 0 0 -0.691406,0.292969 l -6,6 a 1.0001,1.0001 0 1 0 1.414062,1.414062 L 19,12.414062 l 5.292969,5.292969 a 1.0001,1.0001 0 1 0 1.414062,-1.414062 l -6,-6 A 1.0001,1.0001 0 0 0 18.984375,10 Z"
       id="path4333"
       inkscape:connector-curvature="0" />
  </g>
</svg>
