<?xml version="1.0" encoding="UTF-8" standalone="no"?>
<!-- Created with Inkscape (http://www.inkscape.org/) -->

<svg
   xmlns:dc="http://purl.org/dc/elements/1.1/"
   xmlns:cc="http://creativecommons.org/ns#"
   xmlns:rdf="http://www.w3.org/1999/02/22-rdf-syntax-ns#"
   xmlns:svg="http://www.w3.org/2000/svg"
   xmlns="http://www.w3.org/2000/svg"
   xmlns:xlink="http://www.w3.org/1999/xlink"
   xmlns:sodipodi="http://sodipodi.sourceforge.net/DTD/sodipodi-0.dtd"
   xmlns:inkscape="http://www.inkscape.org/namespaces/inkscape"
   width="48"
   height="48"
   id="svg5453"
   version="1.1"
   inkscape:version="0.48.4 r9939"
   sodipodi:docname="kdenlive.svg">
  <defs
     id="defs5455">
    <linearGradient
       inkscape:collect="always"
       id="linearGradient4801">
      <stop
         style="stop-color:#e74c3c;stop-opacity:1"
         offset="0"
         id="stop4803" />
      <stop
         style="stop-color:#c0392b;stop-opacity:1"
         offset="1"
         id="stop4805" />
    </linearGradient>
    <linearGradient
       inkscape:collect="always"
       id="linearGradient4584">
      <stop
         style="stop-color:#2980b9;stop-opacity:1;"
         offset="0"
         id="stop4586" />
      <stop
         style="stop-color:#1d99f3;stop-opacity:1"
         offset="1"
         id="stop4588" />
    </linearGradient>
    <linearGradient
       id="linearGradient4271"
       inkscape:collect="always">
      <stop
         id="stop4273"
         offset="0"
         style="stop-color:#2a2c2f;stop-opacity:1" />
      <stop
         id="stop4275"
         offset="1"
         style="stop-color:#424649;stop-opacity:1" />
    </linearGradient>
    <linearGradient
       inkscape:collect="always"
       xlink:href="#linearGradient4584"
       id="linearGradient4590"
       x1="4"
       y1="44"
       x2="33"
       y2="4"
       gradientUnits="userSpaceOnUse"
       gradientTransform="matrix(-1,0,0,-1,432.57143,547.798)" />
    <linearGradient
       inkscape:collect="always"
       xlink:href="#linearGradient4271"
       id="linearGradient4600"
       x1="20"
       y1="45"
       x2="3"
       y2="28"
       gradientUnits="userSpaceOnUse" />
    <linearGradient
       inkscape:collect="always"
       xlink:href="#linearGradient4227"
       id="linearGradient4689"
       x1="401.57144"
       y1="519.79797"
       x2="404.57144"
       y2="522.79797"
       gradientUnits="userSpaceOnUse" />
    <linearGradient
       inkscape:collect="always"
       id="linearGradient4227">
      <stop
         style="stop-color:#292c2f;stop-opacity:1"
         offset="0"
         id="stop4229" />
      <stop
         style="stop-color:#000000;stop-opacity:0;"
         offset="1"
         id="stop4231" />
    </linearGradient>
    <linearGradient
       inkscape:collect="always"
       xlink:href="#linearGradient4227"
       id="linearGradient4689-9"
       x1="401.57144"
       y1="519.79797"
       x2="404.57144"
       y2="522.79797"
       gradientUnits="userSpaceOnUse"
       gradientTransform="translate(14,14)" />
    <linearGradient
       inkscape:collect="always"
       xlink:href="#linearGradient4801"
       id="linearGradient4807"
       x1="10"
       y1="10"
       x2="38"
       y2="38"
       gradientUnits="userSpaceOnUse"
       gradientTransform="translate(384.57143,499.798)" />
  </defs>
  <sodipodi:namedview
     id="base"
     pagecolor="#ffffff"
     bordercolor="#666666"
     borderopacity="1.0"
     inkscape:pageopacity="0"
     inkscape:pageshadow="2"
     inkscape:zoom="16"
     inkscape:cx="30.303807"
     inkscape:cy="19.866541"
     inkscape:document-units="px"
     inkscape:current-layer="layer1"
     showgrid="true"
     fit-margin-top="0"
     fit-margin-left="0"
     fit-margin-right="0"
     fit-margin-bottom="0"
     inkscape:window-width="1766"
     inkscape:window-height="1053"
     inkscape:window-x="115"
     inkscape:window-y="0"
     inkscape:window-maximized="0"
     inkscape:showpageshadow="false"
     borderlayer="true"
     showguides="false"
     inkscape:snap-bbox="true"
     inkscape:bbox-nodes="true"
     inkscape:object-nodes="true">
    <inkscape:grid
       type="xygrid"
       id="grid4063" />
    <sodipodi:guide
       position="1.1650391e-05,47.999996"
       orientation="4,0"
       id="guide4146" />
    <sodipodi:guide
       position="1.1650391e-05,43.999996"
       orientation="0,48"
       id="guide4148" />
    <sodipodi:guide
       position="48.000012,47.999996"
       orientation="0,-48"
       id="guide4152" />
    <sodipodi:guide
       position="1.1650391e-05,4.0000264"
       orientation="4,0"
       id="guide4154" />
    <sodipodi:guide
       position="1.1650391e-05,2.6367188e-05"
       orientation="0,48"
       id="guide4156" />
    <sodipodi:guide
       position="48.000012,2.6367188e-05"
       orientation="-4,0"
       id="guide4158" />
    <sodipodi:guide
       position="48.000012,4.0000264"
       orientation="0,-48"
       id="guide4160" />
    <sodipodi:guide
       position="48.000012,48.000026"
       orientation="0,-4"
       id="guide4162" />
    <sodipodi:guide
       position="44.000012,48.000026"
       orientation="48,0"
       id="guide4164" />
    <sodipodi:guide
       position="44.000012,2.6367188e-05"
       orientation="0,4"
       id="guide4166" />
    <sodipodi:guide
       position="48.000012,2.6367188e-05"
       orientation="-48,0"
       id="guide4168" />
    <sodipodi:guide
       position="4.0000422,48.000026"
       orientation="0,-4"
       id="guide4170" />
    <sodipodi:guide
       position="4.2167969e-05,48.000026"
       orientation="48,0"
       id="guide4172" />
    <sodipodi:guide
       position="4.2167969e-05,2.6367188e-05"
       orientation="0,4"
       id="guide4174" />
    <sodipodi:guide
       position="4.0000422,2.6367188e-05"
       orientation="-48,0"
       id="guide4176" />
    <sodipodi:guide
       position="4.0000117,47.999996"
       orientation="43.999969,0"
       id="guide4638" />
    <sodipodi:guide
       position="4.0000117,4.0000264"
       orientation="0,20"
       id="guide4640" />
    <sodipodi:guide
       position="24.000012,4.0000264"
       orientation="-43.999969,0"
       id="guide4642" />
    <sodipodi:guide
       position="24.000012,47.999996"
       orientation="0,-20"
       id="guide4644" />
    <sodipodi:guide
       position="4.0000422,24.000026"
       orientation="20,0"
       id="guide4666" />
    <sodipodi:guide
       position="4.0000422,4.0000264"
       orientation="0,39.999969"
       id="guide4668" />
    <sodipodi:guide
       position="44.000012,4.0000264"
       orientation="-20,0"
       id="guide4670" />
    <sodipodi:guide
       position="44.000012,24.000026"
       orientation="0,-39.999969"
       id="guide4672" />
  </sodipodi:namedview>
  <metadata
     id="metadata5458">
    <rdf:RDF>
      <cc:Work
         rdf:about="">
        <dc:format>image/svg+xml</dc:format>
        <dc:type
           rdf:resource="http://purl.org/dc/dcmitype/StillImage" />
        <dc:title />
      </cc:Work>
    </rdf:RDF>
  </metadata>
  <g
     inkscape:label="Capa 1"
     inkscape:groupmode="layer"
     id="layer1"
     transform="translate(-384.57143,-499.798)">
    <path
       style="fill:url(#linearGradient4590);fill-opacity:1;fill-rule:evenodd;stroke:none;stroke-width:1px;stroke-linecap:butt;stroke-linejoin:miter;stroke-opacity:1"
       d="m 400.57143,543.798 13,-13 -12,-12 -13,13 0,12 z m 15,-15 13,-13 0,-12 -12,0 -13,13 z"
       id="path4175"
       inkscape:connector-curvature="0"
       sodipodi:nodetypes="cccccccccccc" />
    <path
       style="opacity:1;fill:url(#linearGradient4807);fill-opacity:1;fill-rule:evenodd;stroke:none;stroke-width:1px;stroke-linecap:butt;stroke-linejoin:miter;stroke-opacity:1"
       d="m 397.57143,506.798 -2,4 -4,2 28,28 2,-4 4,-2 z"
       id="path4218-1-4-4"
       inkscape:connector-curvature="0"
       sodipodi:nodetypes="ccccccc" />
    <path
       style="fill:url(#linearGradient4600);fill-rule:evenodd;stroke:none;stroke-width:1px;stroke-linecap:butt;stroke-linejoin:miter;stroke-opacity:1;fill-opacity:1"
       d="M 27 4 L 16.5 14.5 L 17.292969 15.292969 L 18 14.585938 L 19.414062 16 L 18.707031 16.707031 L 19.5 17.5 L 29 8 L 40 19 L 30.5 28.5 L 31.292969 29.292969 L 32 28.585938 L 33.414062 30 L 32.707031 30.707031 L 33.5 31.5 L 44 21 L 44 19.414062 L 42.585938 18 L 44 16.585938 L 44 15 L 41 18 L 30 7 L 33 4 L 31.414062 4 L 30 5.4140625 L 28.585938 4 L 27 4 z M 26 6.5859375 L 27.414062 8 L 26 9.4140625 L 24.585938 8 L 26 6.5859375 z M 22 10.585938 L 23.414062 12 L 22 13.414062 L 20.585938 12 L 22 10.585938 z M 14.5 16.5 L 4 27 L 4 28.585938 L 5.4140625 30 L 4 31.414062 L 4 33 L 7 30 L 18 41 L 15 44 L 16.585938 44 L 18 42.585938 L 19.414062 44 L 21 44 L 31.5 33.5 L 30.707031 32.707031 L 30 33.414062 L 28.585938 32 L 29.292969 31.292969 L 28.5 30.5 L 19 40 L 8 29 L 17.5 19.5 L 16.707031 18.707031 L 16 19.414062 L 14.585938 18 L 15.292969 17.292969 L 14.5 16.5 z M 12 20.585938 L 13.414062 22 L 12 23.414062 L 10.585938 22 L 12 20.585938 z M 40 20.585938 L 41.414062 22 L 40 23.414062 L 38.585938 22 L 40 20.585938 z M 8 24.585938 L 9.4140625 26 L 8 27.414062 L 6.5859375 26 L 8 24.585938 z M 36 24.585938 L 37.414062 26 L 36 27.414062 L 34.585938 26 L 36 24.585938 z M 26 34.585938 L 27.414062 36 L 26 37.414062 L 24.585938 36 L 26 34.585938 z M 22 38.585938 L 23.414062 40 L 22 41.414062 L 20.585938 40 L 22 38.585938 z "
       transform="translate(384.57143,499.798)"
       id="path4526" />
    <path
       sodipodi:nodetypes="cccccccccc"
       inkscape:connector-curvature="0"
       id="path4218-1-4-4-8"
       d="m 406.07143,515.298 -2,2 3,3 2,-2 z m -4,4 -2,2 3,3 2,-2 z"
       style="opacity:0.2;fill:url(#linearGradient4689);fill-opacity:1;fill-rule:evenodd;stroke:none;stroke-width:1px;stroke-linecap:butt;stroke-linejoin:miter;stroke-opacity:1" />
    <path
       sodipodi:nodetypes="cccccccccc"
       inkscape:connector-curvature="0"
       id="path4218-1-4-4-8-3"
       d="m 420.07143,529.298 -2,2 3,3 2,-2 z m -4,4 -2,2 3,3 2,-2 z"
       style="opacity:0.2;fill:url(#linearGradient4689-9);fill-opacity:1;fill-rule:evenodd;stroke:none;stroke-width:1px;stroke-linecap:butt;stroke-linejoin:miter;stroke-opacity:1" />
  </g>
</svg>
