<?xml version="1.0" encoding="UTF-8" standalone="no"?>
<!-- Created with Inkscape (http://www.inkscape.org/) -->

<svg
   xmlns:dc="http://purl.org/dc/elements/1.1/"
   xmlns:cc="http://creativecommons.org/ns#"
   xmlns:rdf="http://www.w3.org/1999/02/22-rdf-syntax-ns#"
   xmlns:svg="http://www.w3.org/2000/svg"
   xmlns="http://www.w3.org/2000/svg"
   xmlns:xlink="http://www.w3.org/1999/xlink"
   xmlns:sodipodi="http://sodipodi.sourceforge.net/DTD/sodipodi-0.dtd"
   xmlns:inkscape="http://www.inkscape.org/namespaces/inkscape"
   width="48"
   height="48"
   id="svg3209"
   version="1.1"
   inkscape:version="0.48.4 r9939"
   sodipodi:docname="New document 1">
  <defs
     id="defs3211">
    <linearGradient
       gradientTransform="translate(-182.85714,-77.150103)"
       inkscape:collect="always"
       xlink:href="#linearGradient4256"
       id="linearGradient6638"
       gradientUnits="userSpaceOnUse"
       x1="410.57144"
       y1="534.79797"
       x2="410.57144"
       y2="510.798" />
    <linearGradient
       id="linearGradient4256">
      <stop
         style="stop-color:#8cbdf8;stop-opacity:1;"
         offset="0"
         id="stop4258" />
      <stop
         style="stop-color:#d5e8ff;stop-opacity:1;"
         offset="1"
         id="stop4260" />
    </linearGradient>
    <linearGradient
       inkscape:collect="always"
       xlink:href="#linearGradient4227-0-8"
       id="linearGradient6640"
       gradientUnits="userSpaceOnUse"
       gradientTransform="translate(-182.85714,-76.735793)"
       x1="396.57144"
       y1="513.38367"
       x2="412.57144"
       y2="531.38367" />
    <linearGradient
       id="linearGradient4227-0-8"
       inkscape:collect="always">
      <stop
         id="stop4229-3-3"
         offset="0"
         style="stop-color:#292c2f;stop-opacity:1" />
      <stop
         id="stop4231-90-8"
         offset="1"
         style="stop-color:#000000;stop-opacity:0;" />
    </linearGradient>
    <linearGradient
       inkscape:collect="always"
       xlink:href="#linearGradient4232"
       id="linearGradient4849"
       gradientUnits="userSpaceOnUse"
       gradientTransform="matrix(1.0810811,0,0,1.0810811,199.76834,420.70195)"
       x1="24"
       y1="43"
       x2="24"
       y2="5" />
    <linearGradient
       id="linearGradient4232">
      <stop
         style="stop-color:#3889e9;stop-opacity:1"
         offset="0"
         id="stop4234-0" />
      <stop
         style="stop-color:#5ea5fb;stop-opacity:1"
         offset="1"
         id="stop4236" />
    </linearGradient>
    <linearGradient
       inkscape:collect="always"
       xlink:href="#linearGradient4232-4"
       id="linearGradient4849-7"
       gradientUnits="userSpaceOnUse"
       gradientTransform="matrix(1.0810811,0,0,1.0810811,-1.94595,1002.4163)"
       x1="24"
       y1="43"
       x2="24"
       y2="5" />
    <linearGradient
       id="linearGradient4232-4">
      <stop
         style="stop-color:#3889e9;stop-opacity:1"
         offset="0"
         id="stop4234-0-5" />
      <stop
         style="stop-color:#5ea5fb;stop-opacity:1"
         offset="1"
         id="stop4236-2" />
    </linearGradient>
    <linearGradient
       inkscape:collect="always"
       xlink:href="#linearGradient4227-0-8-7"
       id="linearGradient6640-3"
       gradientUnits="userSpaceOnUse"
       gradientTransform="translate(-384.57143,504.97853)"
       x1="396.57144"
       y1="513.38367"
       x2="412.57144"
       y2="531.38367" />
    <linearGradient
       id="linearGradient4227-0-8-7"
       inkscape:collect="always">
      <stop
         id="stop4229-3-3-9"
         offset="0"
         style="stop-color:#292c2f;stop-opacity:1" />
      <stop
         id="stop4231-90-8-4"
         offset="1"
         style="stop-color:#000000;stop-opacity:0;" />
    </linearGradient>
    <linearGradient
       gradientTransform="translate(-384.57143,504.56422)"
       inkscape:collect="always"
       xlink:href="#linearGradient4256-4"
       id="linearGradient6638-4"
       gradientUnits="userSpaceOnUse"
       x1="410.57144"
       y1="534.79797"
       x2="410.57144"
       y2="510.798" />
    <linearGradient
       id="linearGradient4256-4">
      <stop
         style="stop-color:#8cbdf8;stop-opacity:1;"
         offset="0"
         id="stop4258-4" />
      <stop
         style="stop-color:#d5e8ff;stop-opacity:1;"
         offset="1"
         id="stop4260-2" />
    </linearGradient>
  </defs>
  <sodipodi:namedview
     id="base"
     pagecolor="#ffffff"
     bordercolor="#666666"
     borderopacity="1.0"
     inkscape:pageopacity="0.0"
     inkscape:pageshadow="2"
     inkscape:zoom="15.839192"
     inkscape:cx="22.172684"
     inkscape:cy="25.612123"
     inkscape:document-units="px"
     inkscape:current-layer="layer1"
     showgrid="true"
     inkscape:snap-bbox="true"
     inkscape:window-width="1864"
     inkscape:window-height="1060"
     inkscape:window-x="54"
     inkscape:window-y="-3"
     inkscape:window-maximized="1">
    <inkscape:grid
       type="xygrid"
       id="grid3310"
       empspacing="5"
       visible="true"
       enabled="true"
       snapvisiblegridlinesonly="true" />
  </sodipodi:namedview>
  <metadata
     id="metadata3214">
    <rdf:RDF>
      <cc:Work
         rdf:about="">
        <dc:format>image/svg+xml</dc:format>
        <dc:type
           rdf:resource="http://purl.org/dc/dcmitype/StillImage" />
        <dc:title></dc:title>
      </cc:Work>
    </rdf:RDF>
  </metadata>
  <g
     inkscape:label="Layer 1"
     inkscape:groupmode="layer"
     id="layer1"
     transform="translate(0,-1004.3622)">
    <path
       style="fill:#ffffff;fill-opacity:1;fill-rule:evenodd;stroke:none;display:inline"
       d="m 5,1009.3622 38,0 0,38 -38,0 z"
       id="path4186"
       inkscape:connector-curvature="0"
       sodipodi:nodetypes="ccccc" />
    <path
       sodipodi:nodetypes="ccccccc"
       inkscape:connector-curvature="0"
       id="rect9148"
       d="m 4,1008.3622 40,0 0,32 0,8 -8,0 -32,0 z"
       style="fill:url(#linearGradient4849-7);fill-opacity:1;fill-rule:evenodd;stroke:none;display:inline" />
    <path
       inkscape:connector-curvature="0"
       style="opacity:0.2;color:#000000;fill:#ffffff;fill-opacity:1;fill-rule:evenodd;stroke:none;stroke-width:2;marker:none;visibility:visible;display:inline;overflow:visible;enable-background:accumulate"
       d="m 5,1009.3622 0,1 0,36 0,1 1,0 36,0 1,0 0,-1 0,-37 -38,0 z m 1,1 36,0 0,36 -36,0 0,-36 z"
       id="rect5357-4-0" />
    <path
       inkscape:connector-curvature="0"
       id="path4225"
       d="m 10,1036.3622 13,12 21,0 0,-7 0,-18 -5,-5 0,18 -4,0 -3,3 -4,-3 z"
       style="opacity:0.4;fill:url(#linearGradient6640-3);fill-opacity:1;fill-rule:evenodd;stroke:none"
       sodipodi:nodetypes="ccccccccccc" />
    <path
       style="color:#000000;fill:url(#linearGradient6638-4);fill-opacity:1;fill-rule:evenodd;stroke:none;stroke-width:2;marker:none;visibility:visible;display:inline;overflow:visible;enable-background:accumulate"
       d="m 19.5,1015.3622 c -0.78154,0 -1.51125,0.2546 -2.09375,0.6875 l -0.0312,-0.031 -0.71875,0.7188 0.0312,0.031 c -0.34002,0.4574 -0.57277,1.0029 -0.65625,1.5937 l -5.03125,0 -1,0 0,8 -2,0 0,1 5,0 0,-1 -2,0 0,-7 5.03125,0 c 0.0835,0.5908 0.31623,1.1363 0.65625,1.5938 l -0.0312,0.031 0.71875,0.7187 0.0312,-0.031 c 0.5825,0.4329 1.31221,0.6875 2.09375,0.6875 0.78154,0 1.51125,-0.2546 2.09375,-0.6875 l 0.0312,0.031 0.71875,-0.7187 -0.0312,-0.031 c 0.34002,-0.4575 0.57277,-1.003 0.65625,-1.5938 l 4.03125,0 0,2 9,0 0,-2 2,0 0,16 -3.03125,0 c -0.24009,-1.699 -1.70348,-3 -3.46875,-3 -1.76527,0 -3.22866,1.301 -3.46875,3 l -3.125,0 c -0.20384,-0.5864 -0.75041,-1 -1.40625,-1 -0.82843,0 -1.5,0.6716 -1.5,1.5 0,0.8284 0.67157,1.5 1.5,1.5 0.65584,0 1.20241,-0.4136 1.40625,-1 l 3.125,0 c 0.24009,1.699 1.70348,3 3.46875,3 1.76527,0 3.22866,-1.301 3.46875,-3 l 3.03125,0 1,0 0,-18 -3,0 0,-2 -9,0 0,2 -4.03125,0 c -0.0835,-0.5908 -0.31623,-1.1363 -0.65625,-1.5937 l 0.0312,-0.031 -0.71875,-0.7188 -0.0312,0.031 c -0.5825,-0.4329 -1.31221,-0.6875 -2.09375,-0.6875 z m 0,1 c 0.50316,0 0.98279,0.1505 1.375,0.4063 l -1.375,1.375 -1.375,-1.375 c 0.39221,-0.2558 0.87184,-0.4063 1.375,-0.4063 z m -2.09375,1.125 1.375,1.375 -1.375,1.375 C 17.15047,1019.845 17,1019.3654 17,1018.8622 c 0,-0.5032 0.15047,-0.9828 0.40625,-1.375 z m 4.1875,0 c 0.25578,0.3922 0.40625,0.8718 0.40625,1.375 0,0.5032 -0.15047,0.9828 -0.40625,1.375 l -1.375,-1.375 1.375,-1.375 z m -2.09375,2.0938 1.375,1.375 c -0.39221,0.2557 -0.87184,0.4062 -1.375,0.4062 -0.50316,0 -0.98279,-0.1505 -1.375,-0.4062 l 1.375,-1.375 z m -10.5,8.7812 0,1 1,0 0,7 1,0 3.09375,0 c 0.20384,0.5864 0.75041,1 1.40625,1 0.82843,0 1.5,-0.6716 1.5,-1.5 0,-0.1035 -0.0113,-0.2148 -0.0312,-0.3125 l 5.3125,-3.0625 -0.5,-0.875 -5.34375,3.0938 c -0.25793,-0.2095 -0.57933,-0.3438 -0.9375,-0.3438 -0.65584,0 -1.20241,0.4136 -1.40625,1 l -3.09375,0 0,-6 1,0 0,-1 -3,0 z m 22.5,5 c 1.38071,0 2.5,1.1193 2.5,2.5 0,1.3807 -1.11929,2.5 -2.5,2.5 -1.38071,0 -2.5,-1.1193 -2.5,-2.5 0,-1.3807 1.11929,-2.5 2.5,-2.5 z m -16,2 c 0.27614,0 0.5,0.2239 0.5,0.5 0,0.2761 -0.22386,0.5 -0.5,0.5 -0.27614,0 -0.5,-0.2239 -0.5,-0.5 0,-0.2761 0.22386,-0.5 0.5,-0.5 z m 8,0 c 0.27614,0 0.5,0.2239 0.5,0.5 0,0.2761 -0.22386,0.5 -0.5,0.5 -0.27614,0 -0.5,-0.2239 -0.5,-0.5 0,-0.2761 0.22386,-0.5 0.5,-0.5 z"
       id="rect6279"
       inkscape:connector-curvature="0" />
  </g>
</svg>
